{
.appVersion = "3436";
.formatVersion = 3;
DisplayStrings = (
"ÆA ǼǢӔ АΑΆÁÀĂӐǍÂÄӒȦẠẬẶĄẢĀ/A_macroncomb-cy ÃÅǺẨẲẪẰẴẮẤẦ
VΛW ԜẂẀŴẄ
ДЛЉΔ Δ∆/De-cy.loclBGR/El-cy.loclBGR Ԓ
У/U-cy.ss02 Ɣ/Upsilon.ss06 Y ЎӮӰӲ /Ushort-cy.ss02/Umacron-cy.ss02/Udieresis-cy.ss02/Uhungarumlaut-cy.ss02  /Upsilontonos.ss06/Upsilondieresis.ss06  ҮΥΎΫҰÝŶŸỲȲỸỶỴ
XӼZ/Xi.ss06 Σ∑Ξ ХΧ/Ha_U_Iishort-cy/Ha_u_iishort-cy ҲӾ ŹŽŻẐΖƩ
I/I.cv05 Ꞌ ΙІӀΊÍÌİÏΪЇĬĨỈĪǏÎĮỊ /Iota.cv05/I-cy.cv05/Iotatonos.cv05/Iacute.cv05/Igrave.cv05/Idotaccent.cv05/Yi-cy.cv05/Iotadieresis.cv05/Ibreve.cv05/Icaron.cv05/Icircumflex.cv05/Ihookabove.cv05/Imacron.cv05/Itilde.cv05/Iogonek.cv05/Idotbelow.cv05 
NŊ№И ƝŃŇŅ/Ncommaaccent.loclMAH ÑΝ ЙҊЍӢӤ
HҤ ĦꞪӇԨḨĤНҢӉΗΉḢ
U ÚŬÛÜỤÙŰŪŲŮŨỦƯỨỪỬỮỰ
∏ПЦЏШ ҦΠԤҴЩ
ЧҸ ҺЋҶӋӴ/Chedescender_brevecomb-cy 
M ΜМӍ
EFƑ ƎΕΈÉĔĚÊËĖẸÈĒĘẼẺỂỀỄẾỆЕЀЁӖ
T ТΤ/T_circumflexcomb ṪҬŦŤŢȚЂ
L ΓГҐ ĹĽĻ/Lcommaaccent.loclMAH ĿŁ ЃӶҒҔ
/L.ss05  /Gamma.ss05/Ge-cy.ss05/Geupturn-cy.ss05  /Lacute.ss05/Lcaron.ss05/Lcommaaccent.ss05/Lcommaaccent.loclMAH.ss05/Ldot.ss05/Lslash.ss05  /Gje-cy.ss05/Gedescender-cy.ss05/Gestroke-cy.ss05/Gemiddlehook-cy.ss05 
J Ј/Jacute ĴĲ
Sʔ/half-section §&ẞ ЅŚŠŞŜȘʕ
PÞЬЫ/Yeru-cy.ss07 ЪҌЊ /P_circumflexcomb ṖҎӸ/Yerudieresis-cy.ss07 
BБR/R.ss01/Ya-cy.ss04 Ф/Ef-cy.ss04/Ef-cy.ss05 Ψ ḂВΒŔ/Racute.ss01 Ř/Rcaron.ss01 Ŗ/Rcommaaccent.ss01 Я/Ya-cy.ss01 РΡӸΦ/Phi.ss05 
OQ/Q.ss02 ΩŒҨЮ ОΟΏΩ/Q_dotaccentcomb/Q_circumflexcomb/Q_dotaccentcomb.ss02/Q_circumflexcomb.ss02 ΌỔỐỒỖỘƠỚỜỞỠỢÓŎÔÖỌÒŐŌǪØǾÕỎӦӨӪ/Obarred_macroncomb-cy Θ
C ĆČÇĈĊСҪ
G/G.cv06  ĞǦĜĢĠḠǤ /Gbreve.cv06/Gcaron.cv06/Gcircumflex.cv06/Gcommaaccent.cv06/Gdotaccent.cv06/Gmacron.cv06/Gstroke.cv06 
D ĎĐÐ
ЭƏҼ ЄӬ/Ereversed_macroncomb-cy ӘӚҾ
ЗƷ ԐƐҘӞӠǮ
K ǨĶ/K_dotaccentcomb/K_circumflexcomb 
/Zhe-cy.cv07/Kappa.cv07/Kahook-cy.cv07/Kaverticalstroke-cy.cv07  /Ka-cy.cv07/Kastroke-cy.cv07/Kabashkir-cy.cv07/Kje-cy.cv07/Kadescender-cy.cv07/Zhedescender-cy.cv07/Zhebreve-cy.cv07/Zhedieresis-cy.cv07  /K.cv07/Kcaron.cv07/Kcommaaccent.cv07/K_dotaccentcomb.cv07/K_circumflexcomb.cv07 
ЖΚӃҜ КҞҠЌҚҖӁӜ

glyphs = (
{
color = 9;
glyphname = A;
kernLeft = A;
kernRight = A;
lastChange = "2025-11-30 09:53:42 +0000";
layers = (
{
anchors = (
{
name = bottom;
pos = (350,0);
},
{
name = ogonek;
pos = (555,0);
},
{
name = top;
pos = (350,700);
}
);
layerId = m003;
shapes = (
{
closed = 1;
nodes = (
(550,124,l),
(510,276,l),
(190,276,l),
(150,124,l)
);
},
{
angle = 180;
pos = (700,700);
ref = V;
}
);
width = 700;
},
{
anchors = (
{
name = bottom;
pos = (350,0);
},
{
name = ogonek;
pos = (578,0);
},
{
name = top;
pos = (350,700);
}
);
layerId = m004;
shapes = (
{
closed = 1;
nodes = (
(554,174,l),
(528,266,l),
(172,266,l),
(146,174,l)
);
},
{
angle = 180;
pos = (700,700);
ref = V;
}
);
width = 700;
},
{
anchors = (
{
name = bottom;
pos = (350,0);
},
{
name = ogonek;
pos = (624,0);
},
{
name = top;
pos = (350,700);
}
);
layerId = m007;
shapes = (
{
closed = 1;
nodes = (
(560,200,l),
(546,240,l),
(154,240,l),
(142,200,l)
);
},
{
angle = 180;
pos = (700,700);
ref = V;
}
);
width = 700;
}
);
metricLeft = X;
metricRight = X;
unicode = 65;
userData = {
KernOnName = A;
};
},
{
color = 8;
glyphname = AE;
kernLeft = A;
kernRight = E;
lastChange = "2025-11-28 20:03:03 +0000";
layers = (
{
anchors = (
{
name = top;
pos = (500,700);
}
);
layerId = m003;
shapes = (
{
closed = 1;
nodes = (
(204,0,l),
(356,548,l),
(492,548,l),
(492,700,l),
(210,700,l),
(12,0,l)
);
},
{
closed = 1;
nodes = (
(496,174,l),
(496,326,l),
(194,326,l),
(194,174,l)
);
},
{
alignment = -1;
pos = (360,0);
ref = E;
}
);
width = 960;
},
{
anchors = (
{
name = top;
pos = (500,700);
}
);
layerId = m004;
shapes = (
{
closed = 1;
nodes = (
(134,0,l),
(340,614,l),
(498,614,l),
(498,700,l),
(266,700,l),
(30,0,l)
);
},
{
closed = 1;
nodes = (
(496,204,l),
(496,296,l),
(180,296,l),
(180,204,l)
);
},
{
alignment = -1;
pos = (360,0);
ref = E;
}
);
width = 960;
},
{
anchors = (
{
name = top;
pos = (500,700);
}
);
layerId = m007;
shapes = (
{
closed = 1;
nodes = (
(80,0,l),
(324,660,l),
(484,660,l),
(484,700,l),
(294,700,l),
(36,0,l)
);
},
{
closed = 1;
nodes = (
(480,240,l),
(480,280,l),
(154,280,l),
(154,240,l)
);
},
{
alignment = -1;
pos = (360,0);
ref = E;
}
);
width = 960;
}
);
metricLeft = X;
metricRight = E;
unicode = 198;
},
{
color = 9;
glyphname = B;
kernLeft = I;
kernRight = S;
lastChange = "2025-12-03 11:27:55 +0000";
layers = (
{
anchors = (
{
name = bottom;
pos = (320,0);
},
{
name = top;
pos = (320,700);
}
);
layerId = m003;
shapes = (
{
closed = 1;
nodes = (
(384,0,ls),
(555,0,o),
(636,68,o),
(636,198,cs),
(636,202,ls),
(636,306,o),
(568,352,o),
(518,368,c),
(566,380,o),
(626,414,o),
(626,514,cs),
(626,518,ls),
(626,646,o),
(522,700,o),
(388,700,cs),
(52,700,l),
(52,0,l)
);
},
{
closed = 1;
nodes = (
(240,274,l),
(362,274,ls),
(412,274,o),
(438,256,o),
(438,214,cs),
(438,212,ls),
(438,170,o),
(412,152,o),
(362,152,cs),
(240,152,l)
);
},
{
closed = 1;
nodes = (
(240,548,l),
(356,548,ls),
(408,548,o),
(432,528,o),
(432,488,cs),
(432,486,ls),
(432,446,o),
(408,426,o),
(356,426,cs),
(240,426,l)
);
}
);
width = 660;
},
{
anchors = (
{
name = bottom;
pos = (320,0);
},
{
name = top;
pos = (320,700);
}
);
layerId = m004;
shapes = (
{
closed = 1;
nodes = (
(382,0,ls),
(529,0,o),
(612,58,o),
(612,190,cs),
(612,194,ls),
(612,284,o),
(552,340,o),
(500,356,c),
(544,368,o),
(604,408,o),
(604,508,cs),
(604,512,ls),
(604,638,o),
(508,700,o),
(380,700,cs),
(84,700,l),
(84,0,l)
);
},
{
closed = 1;
nodes = (
(182,306,l),
(372,306,ls),
(458,306,o),
(510,276,o),
(510,198,cs),
(510,194,ls),
(510,110,o),
(449,88,o),
(372,88,cs),
(182,88,l)
);
},
{
closed = 1;
nodes = (
(182,612,l),
(366,612,ls),
(458,612,o),
(500,578,o),
(500,506,cs),
(500,502,ls),
(500,438,o),
(461,394,o),
(372,394,cs),
(182,394,l)
);
}
);
width = 660;
},
{
anchors = (
{
name = bottom;
pos = (320,0);
},
{
name = top;
pos = (320,700);
}
);
layerId = m007;
shapes = (
{
closed = 1;
nodes = (
(388,0,ls),
(545,0,o),
(598,88,o),
(598,182,cs),
(598,186,ls),
(598,290,o),
(526,342,o),
(480,352,c),
(532,372,o),
(588,422,o),
(588,518,cs),
(588,522,ls),
(588,636,o),
(514,700,o),
(378,700,cs),
(100,700,l),
(100,0,l)
);
},
{
closed = 1;
nodes = (
(140,330,l),
(386,330,ls),
(506,330,o),
(558,272,o),
(558,186,cs),
(558,182,ls),
(558,114,o),
(525,40,o),
(386,40,cs),
(140,40,l)
);
},
{
closed = 1;
nodes = (
(140,660,l),
(376,660,ls),
(480,660,o),
(548,614,o),
(548,518,cs),
(548,514,ls),
(548,422,o),
(487,370,o),
(386,370,cs),
(140,370,l)
);
}
);
width = 660;
}
);
metricLeft = N;
unicode = 66;
userData = {
KernOnName = B;
};
},
{
color = 9;
glyphname = C;
kernLeft = O;
kernRight = C;
lastChange = "2025-12-03 11:38:09 +0000";
layers = (
{
anchors = (
{
name = bottom;
pos = (360,0);
},
{
name = top;
pos = (360,700);
}
);
guides = (
{
pos = (-8,480);
},
{
pos = (-8,220);
}
);
layerId = m003;
shapes = (
{
closed = 1;
nodes = (
(528,-12,o),
(632,80,o),
(640,220,c),
(454,220,l),
(452,184,o),
(424,142,o),
(358,142,cs),
(354,142,ls),
(270,142,o),
(224,208,o),
(224,348,cs),
(224,352,ls),
(224,492,o),
(270,560,o),
(354,560,cs),
(358,560,ls),
(424,560,o),
(452,516,o),
(454,480,c),
(640,480,l),
(632,620,o),
(528,712,o),
(358,712,cs),
(354,712,ls),
(146,712,o),
(28,566,o),
(28,352,cs),
(28,348,ls),
(28,134,o),
(148,-12,o),
(354,-12,cs),
(358,-12,ls)
);
}
);
width = 660;
},
{
anchors = (
{
name = bottom;
pos = (357,0);
},
{
name = top;
pos = (357,700);
}
);
guides = (
{
pos = (-8,500);
},
{
pos = (-6,200);
}
);
layerId = m004;
shapes = (
{
closed = 1;
nodes = (
(520,-12,o),
(610,78,o),
(618,200,c),
(518,200,l),
(510,134,o),
(468,80,o),
(362,80,cs),
(358,80,ls),
(212,80,o),
(152,200,o),
(152,348,cs),
(152,352,ls),
(152,500,o),
(210,620,o),
(358,620,cs),
(362,620,ls),
(468,620,o),
(510,566,o),
(518,500,c),
(618,500,l),
(610,622,o),
(520,712,o),
(362,712,cs),
(358,712,ls),
(156,712,o),
(52,562,o),
(52,352,cs),
(52,348,ls),
(52,138,o),
(158,-12,o),
(358,-12,cs),
(362,-12,ls)
);
}
);
width = 660;
},
{
anchors = (
{
name = bottom;
pos = (353,0);
},
{
name = top;
pos = (353,700);
}
);
guides = (
{
pos = (-8,520);
},
{
pos = (-8,180);
}
);
layerId = m007;
shapes = (
{
closed = 1;
nodes = (
(502,-12,o),
(592,72,o),
(608,180,c),
(568,180,l),
(552,96,o),
(480,28,o),
(364,28,cs),
(360,28,ls),
(190,28,o),
(100,160,o),
(100,348,cs),
(100,352,ls),
(100,540,o),
(188,672,o),
(360,672,cs),
(364,672,ls),
(480,672,o),
(552,604,o),
(568,520,c),
(608,520,l),
(592,628,o),
(502,712,o),
(364,712,cs),
(360,712,ls),
(158,712,o),
(60,558,o),
(60,352,cs),
(60,348,ls),
(60,142,o),
(160,-12,o),
(360,-12,cs),
(364,-12,ls)
);
}
);
width = 660;
}
);
metricLeft = O;
unicode = 67;
},
{
color = 9;
glyphname = D;
kernLeft = I;
kernRight = O;
lastChange = "2025-12-03 11:29:33 +0000";
layers = (
{
anchors = (
{
name = top;
pos = (320,700);
}
);
layerId = m003;
shapes = (
{
closed = 1;
nodes = (
(282,0,ls),
(509,0,o),
(652,118,o),
(652,348,cs),
(652,352,ls),
(652,580,o),
(510,700,o),
(282,700,cs),
(52,700,l),
(52,0,l)
);
},
{
closed = 1;
nodes = (
(246,548,l),
(266,548,ls),
(386,548,o),
(456,486,o),
(456,352,cs),
(456,348,ls),
(456,212,o),
(385,152,o),
(266,152,cs),
(246,152,l)
);
}
);
width = 680;
},
{
anchors = (
{
name = top;
pos = (320,700);
}
);
layerId = m004;
shapes = (
{
closed = 1;
nodes = (
(260,0,ls),
(515,0,o),
(628,128,o),
(628,348,cs),
(628,352,ls),
(628,570,o),
(516,700,o),
(260,700,cs),
(84,700,l),
(84,0,l)
);
},
{
closed = 1;
nodes = (
(184,608,l),
(256,608,ls),
(444,608,o),
(528,530,o),
(528,352,cs),
(528,348,ls),
(528,168,o),
(443,92,o),
(256,92,cs),
(184,92,l)
);
}
);
width = 680;
},
{
anchors = (
{
name = top;
pos = (320,700);
}
);
layerId = m007;
shapes = (
{
closed = 1;
nodes = (
(252,0,ls),
(497,0,o),
(620,110,o),
(620,348,cs),
(620,352,ls),
(620,590,o),
(498,700,o),
(252,700,cs),
(100,700,l),
(100,0,l)
);
},
{
closed = 1;
nodes = (
(140,660,l),
(250,660,ls),
(470,660,o),
(580,566,o),
(580,352,cs),
(580,348,ls),
(580,132,o),
(469,40,o),
(250,40,cs),
(140,40,l)
);
}
);
width = 680;
}
);
metricLeft = N;
metricRight = O;
unicode = 68;
},
{
color = 9;
glyphname = E;
kernLeft = I;
kernRight = E;
lastChange = "2025-11-28 20:04:12 +0000";
layers = (
{
anchors = (
{
name = bottom;
pos = (320,0);
},
{
name = ogonek;
pos = (432,0);
},
{
name = top;
pos = (320,700);
}
);
layerId = m003;
shapes = (
{
closed = 1;
nodes = (
(564,0,l),
(564,152,l),
(246,152,l),
(246,274,l),
(540,274,l),
(540,426,l),
(246,426,l),
(246,548,l),
(564,548,l),
(564,700,l),
(52,700,l),
(52,0,l)
);
}
);
width = 600;
},
{
anchors = (
{
name = bottom;
pos = (320,0);
},
{
name = ogonek;
pos = (450,0);
},
{
name = top;
pos = (320,700);
}
);
layerId = m004;
shapes = (
{
closed = 1;
nodes = (
(542,0,l),
(542,88,l),
(184,88,l),
(184,306,l),
(516,306,l),
(516,394,l),
(184,394,l),
(184,612,l),
(542,612,l),
(542,700,l),
(84,700,l),
(84,0,l)
);
}
);
width = 600;
},
{
anchors = (
{
name = bottom;
pos = (320,0);
},
{
name = ogonek;
pos = (494,0);
},
{
name = top;
pos = (320,700);
}
);
layerId = m007;
shapes = (
{
closed = 1;
nodes = (
(534,0,l),
(534,40,l),
(140,40,l),
(140,330,l),
(512,330,l),
(512,370,l),
(140,370,l),
(140,660,l),
(534,660,l),
(534,700,l),
(100,700,l),
(100,0,l)
);
}
);
width = 600;
}
);
metricLeft = N;
unicode = 69;
userData = {
KernOnName = E;
};
},
{
color = 8;
glyphname = Schwa;
kernLeft = O;
kernRight = O;
lastChange = "2025-12-03 11:31:56 +0000";
layers = (
{
anchors = (
{
name = bottom;
pos = (340,0);
},
{
name = top;
pos = (340,700);
}
);
guides = (
{
pos = (-8,480);
}
);
layerId = m003;
shapes = (
{
closed = 1;
nodes = (
(544,-12,o),
(672,118,o),
(672,348,cs),
(672,352,ls),
(672,588,o),
(538.286,712,o),
(342,712,cs),
(338,712,ls),
(170,712,o),
(50,615,o),
(40,480,c),
(230,480,l),
(234,524,o),
(270,560,o),
(340,560,cs),
(344,560,ls),
(460,560,o),
(482,470,o),
(482,352,cs),
(482,348,ls),
(482,216,o),
(446,140,o),
(346,140,cs),
(342,140,ls),
(248,140,o),
(220,200,o),
(220,272,c),
(220,274,l),
(556,274,l),
(556,426,l),
(28,426,l),
(28,352,ls),
(28,131,o),
(138,-12,o),
(342,-12,cs),
(346,-12,ls)
);
}
);
width = 700;
},
{
anchors = (
{
name = bottom;
pos = (340,0);
},
{
name = top;
pos = (340,700);
}
);
guides = (
{
pos = (-8,500);
}
);
layerId = m004;
shapes = (
{
closed = 1;
nodes = (
(552,-12,o),
(648,140,o),
(648,348,cs),
(648,352,ls),
(648,558,o),
(534,712,o),
(344,712,cs),
(340,712,ls),
(198,712,o),
(74,629,o),
(64,500,c),
(164,500,l),
(176,591,o),
(260,624,o),
(340,624,cs),
(344,624,ls),
(486,624,o),
(548,498,o),
(548,352,cs),
(548,348,ls),
(548,190,o),
(494,76,o),
(346,76,cs),
(342,76,ls),
(214,76,o),
(152,162,o),
(152,304,c),
(152,306,l),
(582,306,l),
(582,394,l),
(52,394,l),
(52,352,ls),
(52,115,o),
(152,-12,o),
(342,-12,cs),
(346,-12,ls)
);
}
);
width = 700;
},
{
anchors = (
{
name = bottom;
pos = (340,0);
},
{
name = top;
pos = (340,700);
}
);
guides = (
{
pos = (-8,520);
}
);
layerId = m007;
shapes = (
{
closed = 1;
nodes = (
(538,-12,o),
(640,142,o),
(640,348,cs),
(640,352,ls),
(640,575.045,o),
(522,712,o),
(334,712,cs),
(330,712,ls),
(186,712,o),
(90,628,o),
(74,520,c),
(114,520,l),
(130,604,o),
(208,672,o),
(330,672,cs),
(334,672,ls),
(518,672,o),
(600,524,o),
(600,352,cs),
(600,348,ls),
(600,164,o),
(518,28,o),
(348,28,cs),
(344,28,ls),
(172,28,o),
(104,162,o),
(104,328,c),
(104,330,l),
(616,330,l),
(616,370,l),
(60,370,l),
(60,352,ls),
(60,135,o),
(152,-12,o),
(344,-12,cs),
(348,-12,ls)
);
}
);
width = 700;
}
);
metricLeft = O;
metricRight = O;
unicode = 399;
},
{
color = 8;
glyphname = Ezh;
kernLeft = C;
kernRight = U;
lastChange = "2025-12-03 11:22:47 +0000";
layers = (
{
anchors = (
{
name = bottom;
pos = (310,0);
},
{
name = top;
pos = (310,700);
}
);
guides = (
{
pos = (-8,220);
}
);
layerId = m003;
shapes = (
{
closed = 1;
nodes = (
(480,-12,o),
(596,68,o),
(596,216,cs),
(596,220,ls),
(596,340,o),
(524,418,o),
(398,434,c),
(582,584,l),
(582,700,l),
(40,700,l),
(40,550,l),
(350,550,l),
(170,398,l),
(170,300,l),
(266,300,ls),
(346,300,o),
(402,286,o),
(402,220,cs),
(402,216,ls),
(402,164,o),
(370,136,o),
(318,136,cs),
(314,136,ls),
(250,136,o),
(212,161,o),
(208,220,c),
(20,220,l),
(26,63,o),
(146,-10,o),
(310,-12,cs),
(314,-12,ls)
);
}
);
width = 620;
},
{
anchors = (
{
name = bottom;
pos = (310,0);
},
{
name = top;
pos = (310,700);
}
);
guides = (
{
pos = (-8,200);
}
);
layerId = m004;
shapes = (
{
closed = 1;
nodes = (
(475,-12,o),
(572,72,o),
(572,202,cs),
(572,206,ls),
(572,348,o),
(472,410,o),
(336,414,c),
(556,634,l),
(556,700,l),
(60,700,l),
(60,612,l),
(412,612,l),
(196,392,l),
(196,336,l),
(264,336,ls),
(394,336,o),
(472,310,o),
(472,206,cs),
(472,202,ls),
(472,126,o),
(422,76,o),
(314,76,cs),
(310,76,ls),
(192,76,o),
(146,126,o),
(142,200,c),
(42,200,l),
(46,49,o),
(174,-10,o),
(310,-12,cs),
(314,-12,ls)
);
}
);
width = 620;
},
{
anchors = (
{
name = bottom;
pos = (310,0);
},
{
name = top;
pos = (310,700);
}
);
guides = (
{
pos = (-8,180);
}
);
layerId = m007;
shapes = (
{
closed = 1;
nodes = (
(457,-12,o),
(558,64,o),
(558,192,cs),
(558,196,ls),
(558,346,o),
(438,400,o),
(282,400,c),
(544,668,l),
(544,700,l),
(72,700,l),
(72,660,l),
(484,660,l),
(222,390,l),
(222,362,l),
(260,362,ls),
(416,362,o),
(518,324,o),
(518,196,cs),
(518,192,ls),
(518,80,o),
(424,28,o),
(308,28,cs),
(304,28,ls),
(180,28,o),
(100,81,o),
(92,180,c),
(52,180,l),
(60,61,o),
(152,-10,o),
(304,-12,cs),
(308,-12,ls)
);
}
);
width = 620;
}
);
metricLeft = "Ereversed-cy";
metricRight = B;
unicode = 439;
},
{
color = 9;
glyphname = F;
kernLeft = I;
kernRight = Psi;
lastChange = "2025-11-28 20:05:08 +0000";
layers = (
{
anchors = (
{
name = top;
pos = (290,700);
}
);
layerId = m003;
shapes = (
{
closed = 1;
nodes = (
(246,0,l),
(246,548,l),
(550,548,l),
(550,700,l),
(52,700,l),
(52,0,l)
);
},
{
closed = 1;
nodes = (
(530,274,l),
(530,426,l),
(190,426,l),
(190,274,l)
);
}
);
width = 580;
},
{
anchors = (
{
name = top;
pos = (290,700);
}
);
layerId = m004;
shapes = (
{
closed = 1;
nodes = (
(184,0,l),
(184,612,l),
(532,612,l),
(532,700,l),
(84,700,l),
(84,0,l)
);
},
{
closed = 1;
nodes = (
(492,306,l),
(492,394,l),
(144,394,l),
(144,306,l)
);
}
);
width = 580;
},
{
anchors = (
{
name = top;
pos = (290,700);
}
);
layerId = m007;
shapes = (
{
closed = 1;
nodes = (
(140,0,l),
(140,660,l),
(524,660,l),
(524,700,l),
(100,700,l),
(100,0,l)
);
},
{
closed = 1;
nodes = (
(484,330,l),
(484,370,l),
(130,370,l),
(130,330,l)
);
}
);
width = 580;
}
);
metricLeft = N;
unicode = 70;
userData = {
KernOnName = F;
};
},
{
color = 9;
glyphname = G;
kernLeft = O;
kernRight = O;
lastChange = "2025-12-03 11:37:37 +0000";
layers = (
{
anchors = (
{
name = bottom;
pos = (360,0);
},
{
name = top;
pos = (360,700);
}
);
guides = (
{
pos = (-8,480);
}
);
layerId = m003;
shapes = (
{
closed = 1;
nodes = (
(590,-12,o),
(672,118,o),
(672,348,cs),
(672,352,ls),
(672,366,o),
(672,380,o),
(670,400,c),
(350,400,l),
(350,262,l),
(492,262,l),
(492,261,o),
(492,261,o),
(492,260,cs),
(491,185,o),
(446,142,o),
(372,142,cs),
(368,142,ls),
(284,142,o),
(224,208,o),
(224,348,cs),
(224,352,ls),
(224,492,o),
(286,560,o),
(370,560,cs),
(374,560,ls),
(440,560,o),
(472,516,o),
(474,480,c),
(658,480,l),
(650,620,o),
(540,712,o),
(370,712,cs),
(366,712,ls),
(158,712,o),
(28,566,o),
(28,352,cs),
(28,348,ls),
(28,134,o),
(158,-12,o),
(364,-12,cs),
(368,-12,ls)
);
}
);
width = 700;
},
{
anchors = (
{
name = bottom;
pos = (360,0);
},
{
name = top;
pos = (360,700);
}
);
guides = (
{
pos = (-8,500);
}
);
layerId = m004;
shapes = (
{
closed = 1;
nodes = (
(568,-12,o),
(648,122,o),
(648,348,cs),
(648,352,ls),
(648,356,o),
(648,370,o),
(646,384,c),
(350,384,l),
(350,296,l),
(550,296,l),
(550,295,o),
(550,295,o),
(550,294,cs),
(549,171,o),
(500,76,o),
(370,76,cs),
(366,76,ls),
(220,76,o),
(152,200,o),
(152,348,cs),
(152,352,ls),
(152,500,o),
(218,624,o),
(366,624,cs),
(370,624,ls),
(476,624,o),
(524,566,o),
(532,500,c),
(628,500,l),
(620,622,o),
(526,712,o),
(368,712,cs),
(364,712,ls),
(162,712,o),
(52,562,o),
(52,352,cs),
(52,348,ls),
(52,138,o),
(162,-12,o),
(362,-12,cs),
(366,-12,ls)
);
}
);
width = 700;
},
{
anchors = (
{
name = bottom;
pos = (360,0);
},
{
name = top;
pos = (360,700);
}
);
guides = (
{
pos = (-8,520);
}
);
layerId = m007;
shapes = (
{
closed = 1;
nodes = (
(574,-12,o),
(640,136,o),
(640,348,cs),
(640,352,ls),
(640,356,o),
(640,362,o),
(638,370,c),
(350,370,l),
(350,330,l),
(600,330,l),
(600,329,o),
(600,329,o),
(600,328,cs),
(600,155,o),
(540,28,o),
(366,28,cs),
(362,28,ls),
(188,28,o),
(100,160,o),
(100,348,cs),
(100,352,ls),
(100,540,o),
(190,672,o),
(362,672,cs),
(366,672,ls),
(516,672,o),
(566,572,o),
(574,520,c),
(616,520,l),
(608,592,o),
(540,712,o),
(366,712,cs),
(362,712,ls),
(160,712,o),
(60,558,o),
(60,352,cs),
(60,348,ls),
(60,142,o),
(162,-12,o),
(362,-12,cs),
(366,-12,ls)
);
}
);
width = 700;
}
);
metricLeft = O;
metricRight = O;
unicode = 71;
},
{
glyphname = G.cv06;
kernLeft = O;
kernRight = Omega;
lastChange = "2025-12-03 11:33:02 +0000";
layers = (
{
anchors = (
{
name = bottom;
pos = (360,0);
},
{
name = top;
pos = (360,700);
}
);
guides = (
{
pos = (-8,480);
}
);
layerId = m003;
shapes = (
{
closed = 1;
nodes = (
(432,-12,o),
(484,20,o),
(508,62,c),
(508,0,l),
(672,0,l),
(672,400,l),
(350,400,l),
(350,262,l),
(494,262,l),
(494,261,o),
(494,261,o),
(494,260,cs),
(493,193,o),
(452,142,o),
(372,142,cs),
(368,142,ls),
(284,142,o),
(224,208,o),
(224,348,cs),
(224,352,ls),
(224,492,o),
(286,560,o),
(370,560,cs),
(374,560,ls),
(440,560,o),
(472,516,o),
(474,480,c),
(658,480,l),
(650,620,o),
(540,712,o),
(370,712,cs),
(366,712,ls),
(158,712,o),
(28,566,o),
(28,352,cs),
(28,348,ls),
(28,134,o),
(132,-12,o),
(338,-12,cs),
(342,-12,ls)
);
}
);
width = 720;
},
{
anchors = (
{
name = bottom;
pos = (360,0);
},
{
name = top;
pos = (360,700);
}
);
guides = (
{
pos = (-8,500);
}
);
layerId = m004;
shapes = (
{
closed = 1;
nodes = (
(470,-12,o),
(534,38,o),
(552,90,c),
(552,0,l),
(642,0,l),
(642,384,l),
(350,384,l),
(350,296,l),
(552,296,l),
(552,295,o),
(552,295,o),
(552,294,cs),
(551,161,o),
(498,76,o),
(366,76,cs),
(362,76,ls),
(216,76,o),
(152,200,o),
(152,348,cs),
(152,352,ls),
(152,500,o),
(218,624,o),
(366,624,cs),
(370,624,ls),
(476,624,o),
(524,566,o),
(532,500,c),
(628,500,l),
(620,622,o),
(526,712,o),
(368,712,cs),
(364,712,ls),
(162,712,o),
(52,562,o),
(52,352,cs),
(52,348,ls),
(52,138,o),
(152,-12,o),
(352,-12,cs),
(356,-12,ls)
);
}
);
width = 720;
},
{
anchors = (
{
name = bottom;
pos = (360,0);
},
{
name = top;
pos = (360,700);
}
);
guides = (
{
pos = (-8,520);
}
);
layerId = m007;
shapes = (
{
closed = 1;
nodes = (
(526,-12,o),
(574,82,o),
(590,124,c),
(590,0,l),
(630,0,l),
(630,370,l),
(350,370,l),
(350,330,l),
(592,330,l),
(592,329,o),
(592,329,o),
(592,328,cs),
(592,124,o),
(518,28,o),
(368,28,cs),
(364,28,ls),
(190,28,o),
(100,160,o),
(100,348,cs),
(100,352,ls),
(100,540,o),
(190,672,o),
(362,672,cs),
(366,672,ls),
(516,672,o),
(568,572,o),
(576,520,c),
(616,520,l),
(608,592,o),
(540,712,o),
(366,712,cs),
(362,712,ls),
(160,712,o),
(60,558,o),
(60,352,cs),
(60,348,ls),
(60,142,o),
(160,-12,o),
(360,-12,cs),
(364,-12,ls)
);
}
);
width = 720;
}
);
metricLeft = O;
metricRight = U;
},
{
color = 8;
glyphname = Gstroke;
kernLeft = O;
kernRight = O;
lastChange = "2025-11-28 20:05:48 +0000";
layers = (
{
layerId = m003;
shapes = (
{
ref = G;
},
{
closed = 1;
nodes = (
(700,166,l),
(700,234,l),
(350,234,l),
(350,166,l)
);
}
);
width = 700;
},
{
layerId = m004;
shapes = (
{
ref = G;
},
{
closed = 1;
nodes = (
(700,174,l),
(700,246,l),
(350,246,l),
(350,174,l)
);
}
);
width = 700;
},
{
layerId = m007;
shapes = (
{
ref = G;
},
{
closed = 1;
nodes = (
(700,180,l),
(700,220,l),
(350,220,l),
(350,180,l)
);
}
);
width = 700;
}
);
metricLeft = O;
unicode = 484;
},
{
glyphname = Gstroke.cv06;
kernLeft = O;
kernRight = Omega;
lastChange = "2025-11-28 20:05:51 +0000";
layers = (
{
layerId = m003;
shapes = (
{
ref = G.cv06;
},
{
closed = 1;
nodes = (
(720,166,l),
(720,234,l),
(350,234,l),
(350,166,l)
);
}
);
width = 720;
},
{
layerId = m004;
shapes = (
{
ref = G.cv06;
},
{
closed = 1;
nodes = (
(720,174,l),
(720,246,l),
(350,246,l),
(350,174,l)
);
}
);
width = 720;
},
{
layerId = m007;
shapes = (
{
ref = G.cv06;
},
{
closed = 1;
nodes = (
(720,180,l),
(720,220,l),
(348,220,l),
(348,180,l)
);
}
);
width = 720;
}
);
metricLeft = O;
metricWidth = G.cv06;
},
{
color = 9;
glyphname = H;
kernLeft = I;
kernRight = I;
lastChange = "2025-12-01 09:02:32 +0000";
layers = (
{
anchors = (
{
name = bottom;
pos = (360,0);
},
{
name = top;
pos = (360,700);
}
);
layerId = m003;
shapes = (
{
closed = 1;
nodes = (
(246,0,l),
(246,270,l),
(474,270,l),
(474,0,l),
(668,0,l),
(668,700,l),
(474,700,l),
(474,430,l),
(246,430,l),
(246,700,l),
(52,700,l),
(52,0,l)
);
}
);
width = 720;
},
{
anchors = (
{
name = bottom;
pos = (360,0);
},
{
name = top;
pos = (360,700);
}
);
layerId = m004;
shapes = (
{
closed = 1;
nodes = (
(184,0,l),
(184,304,l),
(536,304,l),
(536,0,l),
(636,0,l),
(636,700,l),
(536,700,l),
(536,396,l),
(184,396,l),
(184,700,l),
(84,700,l),
(84,0,l)
);
}
);
width = 720;
},
{
anchors = (
{
name = bottom;
pos = (360,0);
},
{
name = top;
pos = (360,702);
}
);
layerId = m007;
shapes = (
{
closed = 1;
nodes = (
(140,0,l),
(140,330,l),
(580,330,l),
(580,0,l),
(620,0,l),
(620,700,l),
(580,700,l),
(580,370,l),
(140,370,l),
(140,700,l),
(100,700,l),
(100,0,l)
);
}
);
width = 720;
}
);
metricLeft = N;
metricRight = N;
unicode = 72;
userData = {
KernOnName = H;
};
},
{
color = 8;
glyphname = Hbar;
kernLeft = I;
kernRight = I;
lastChange = "2025-11-28 20:05:58 +0000";
layers = (
{
layerId = m003;
shapes = (
{
ref = H;
},
{
closed = 1;
nodes = (
(720,540,l),
(720,620,l),
(0,620,l),
(0,540,l)
);
}
);
width = 720;
},
{
layerId = m004;
shapes = (
{
ref = H;
},
{
closed = 1;
nodes = (
(720,544,l),
(720,616,l),
(0,616,l),
(0,544,l)
);
}
);
width = 720;
},
{
layerId = m007;
shapes = (
{
ref = H;
},
{
closed = 1;
nodes = (
(720,560,l),
(720,600,l),
(0,600,l),
(0,560,l)
);
}
);
width = 720;
}
);
unicode = 294;
},
{
color = 8;
glyphname = Hhook;
kernLeft = T;
kernRight = I;
lastChange = "2025-11-28 20:06:01 +0000";
layers = (
{
layerId = m003;
shapes = (
{
pos = (160,0);
ref = "En-cy";
},
{
closed = 1;
nodes = (
(160,484,l),
(160,548,ls),
(160,561.333,o),
(166.667,568,o),
(180,568,cs),
(360,568,l),
(406,700,l),
(114,700,ls),
(47.333,700,o),
(14,666.667,o),
(14,600,cs),
(14,484,l)
);
}
);
width = 880;
},
{
layerId = m004;
shapes = (
{
pos = (160,0);
ref = "En-cy";
},
{
closed = 1;
nodes = (
(120,508,l),
(120,574,ls),
(120,603.333,o),
(134,620,o),
(166,620,cs),
(324,620,l),
(344,700,l),
(130,700,ls),
(63.333,700,o),
(30,666.667,o),
(30,600,cs),
(30,508,l)
);
}
);
width = 880;
},
{
layerId = m007;
shapes = (
{
pos = (160,0);
ref = "En-cy";
},
{
closed = 1;
nodes = (
(78,524,l),
(78,588,ls),
(78,636,o),
(102,660,o),
(150,660,cs),
(286,660,l),
(300,700,l),
(150,700,ls),
(75.333,700,o),
(38,662.667,o),
(38,588,cs),
(38,524,l)
);
}
);
width = 880;
}
);
metricRight = H;
unicode = 42922;
},
{
color = 9;
glyphname = I;
kernLeft = I;
kernRight = I;
lastChange = "2025-11-28 20:06:04 +0000";
layers = (
{
anchors = (
{
name = bottom;
pos = (140,0);
},
{
name = ogonek;
pos = (106,0);
},
{
name = top;
pos = (140,700);
}
);
layerId = m003;
shapes = (
{
closed = 1;
nodes = (
(238,0,l),
(238,700,l),
(42,700,l),
(42,0,l)
);
}
);
width = 280;
},
{
anchors = (
{
name = bottom;
pos = (140,0);
},
{
name = ogonek;
pos = (98,0);
},
{
name = top;
pos = (140,700);
}
);
layerId = m004;
shapes = (
{
closed = 1;
nodes = (
(190,0,l),
(190,700,l),
(90,700,l),
(90,0,l)
);
}
);
width = 280;
},
{
anchors = (
{
name = bottom;
pos = (140,0);
},
{
name = ogonek;
pos = (120,0);
},
{
name = top;
pos = (140,700);
}
);
layerId = m007;
shapes = (
{
closed = 1;
nodes = (
(160,0,l),
(160,700,l),
(120,700,l),
(120,0,l)
);
}
);
width = 280;
}
);
unicode = 73;
},
{
glyphname = I.cv05;
kernLeft = "Zhe-royal";
kernRight = "Zhe-royal";
lastChange = "2025-11-28 20:06:11 +0000";
layers = (
{
anchors = (
{
name = bottom;
pos = (240,0);
},
{
name = ogonek;
pos = (336,0);
},
{
name = top;
pos = (240,700);
}
);
layerId = m003;
shapes = (
{
pos = (100,0);
ref = I;
},
{
closed = 1;
nodes = (
(12,556,l),
(468,556,l),
(468,700,l),
(12,700,l)
);
},
{
closed = 1;
nodes = (
(12,0,l),
(468,0,l),
(468,146,l),
(12,146,l)
);
}
);
width = 480;
},
{
anchors = (
{
name = bottom;
pos = (240,0);
},
{
name = ogonek;
pos = (358,0);
},
{
name = top;
pos = (240,700);
}
);
layerId = m004;
shapes = (
{
pos = (100,0);
ref = I;
},
{
closed = 1;
nodes = (
(30,608,l),
(450,608,l),
(450,700,l),
(29,700,l)
);
},
{
closed = 1;
nodes = (
(29,0,l),
(450,0,l),
(450,92,l),
(30,92,l)
);
}
);
width = 480;
},
{
anchors = (
{
name = bottom;
pos = (240,0);
},
{
name = ogonek;
pos = (404,0);
},
{
name = top;
pos = (240,700);
}
);
layerId = m007;
shapes = (
{
pos = (100,0);
ref = I;
},
{
closed = 1;
nodes = (
(36,660,l),
(444,660,l),
(444,700,l),
(36,700,l)
);
},
{
closed = 1;
nodes = (
(36,0,l),
(444,0,l),
(444,40,l),
(36,40,l)
);
}
);
width = 480;
}
);
metricLeft = T;
metricRight = T;
},
{
color = 9;
glyphname = J;
kernLeft = L;
kernRight = I;
lastChange = "2025-11-28 20:06:20 +0000";
layers = (
{
anchors = (
{
name = bottom;
pos = (200,0);
},
{
name = top;
pos = (352,700);
}
);
layerId = m003;
shapes = (
{
closed = 1;
nodes = (
(391.333,0,o),
(448,56.667,o),
(448,150,cs),
(448,700,l),
(256,700,l),
(256,210,ls),
(256,175.333,o),
(240.667,160,o),
(206,160,cs),
(12,160,l),
(12,0,l),
(298,0,ls)
);
}
);
width = 500;
},
{
anchors = (
{
name = bottom;
pos = (200,0);
},
{
name = top;
pos = (367,700);
}
);
layerId = m004;
shapes = (
{
closed = 1;
nodes = (
(359.333,0,o),
(416,56.667,o),
(416,150,cs),
(416,700,l),
(316,700,l),
(316,176,ls),
(316,120,o),
(288.667,92,o),
(230,92,cs),
(30,92,l),
(30,0,l),
(266,0,ls)
);
}
);
width = 500;
},
{
anchors = (
{
name = bottom;
pos = (200,0);
},
{
name = top;
pos = (381,700);
}
);
layerId = m007;
shapes = (
{
closed = 1;
nodes = (
(346,0,o),
(400,54,o),
(400,150,cs),
(400,700,l),
(360,700,l),
(360,158,ls),
(360,80.667,o),
(319.333,40,o),
(242,40,cs),
(36,40,l),
(36,0,l),
(250,0,l)
);
}
);
width = 500;
}
);
metricLeft = T;
metricRight = N;
unicode = 74;
},
{
color = 9;
glyphname = K;
kernLeft = I;
kernRight = X;
lastChange = "2025-11-28 20:06:24 +0000";
layers = (
{
anchors = (
{
name = bottom;
pos = (340,0);
},
{
name = top;
pos = (340,700);
}
);
layerId = m003;
shapes = (
{
closed = 1;
nodes = (
(246,0,l),
(246,214,l),
(298,280,l),
(456,0,l),
(682,0,l),
(448,402,l),
(688,700,l),
(478,700,l),
(246,414,l),
(246,700,l),
(52,700,l),
(52,0,l)
);
}
);
width = 700;
},
{
anchors = (
{
name = bottom;
pos = (340,0);
},
{
name = top;
pos = (340,700);
}
);
layerId = m004;
shapes = (
{
closed = 1;
nodes = (
(184,0,l),
(184,232,l),
(294,340,l),
(544,0,l),
(670,0,l),
(376,404,l),
(670,700,l),
(542,700,l),
(184,350,l),
(184,700,l),
(84,700,l),
(84,0,l)
);
}
);
width = 700;
},
{
anchors = (
{
name = bottom;
pos = (340,0);
},
{
name = top;
pos = (340,700);
}
);
layerId = m007;
shapes = (
{
closed = 1;
nodes = (
(140,0,l),
(140,252,l),
(292,384,l),
(614,0,l),
(664,0,l),
(324,410,l),
(652,700,l),
(598,700,l),
(140,300,l),
(140,700,l),
(100,700,l),
(100,0,l)
);
}
);
width = 700;
}
);
metricLeft = N;
metricRight = X;
unicode = 75;
userData = {
KernOnName = K;
};
},
{
color = 9;
glyphname = L;
kernLeft = I;
kernRight = L;
lastChange = "2025-12-01 20:31:12 +0000";
layers = (
{
anchors = (
{
name = bottom;
pos = (300,0);
},
{
name = top;
pos = (150,700);
}
);
layerId = m003;
shapes = (
{
closed = 1;
nodes = (
(548,0,l),
(548,160,l),
(248,160,l),
(248,700,l),
(52,700,l),
(52,0,l)
);
}
);
width = 560;
},
{
anchors = (
{
name = bottom;
pos = (300,0);
},
{
name = top;
pos = (135,700);
}
);
layerId = m004;
shapes = (
{
closed = 1;
nodes = (
(530,0,l),
(530,92,l),
(184,92,l),
(184,700,l),
(84,700,l),
(84,0,l)
);
}
);
width = 560;
},
{
anchors = (
{
name = bottom;
pos = (300,0);
},
{
name = top;
pos = (119,700);
}
);
layerId = m007;
shapes = (
{
closed = 1;
nodes = (
(524,0,l),
(524,40,l),
(140,40,l),
(140,700,l),
(100,700,l),
(100,0,l)
);
}
);
width = 560;
}
);
metricLeft = N;
metricRight = T;
unicode = 76;
userData = {
KernOnName = L;
};
},
{
glyphname = L.ss05;
kernLeft = I;
kernRight = L;
lastChange = "2025-12-01 20:31:21 +0000";
layers = (
{
anchors = (
{
name = bottom;
pos = (300,0);
},
{
name = top;
pos = (150,700);
}
);
layerId = m003;
shapes = (
{
closed = 1;
nodes = (
(548,0,l),
(548,160,l),
(288,160,ls),
(262,160,o),
(248,174,o),
(248,200,cs),
(248,700,l),
(52,700,l),
(52,140,ls),
(52,46,o),
(98,0,o),
(192,0,cs)
);
}
);
width = 560;
},
{
anchors = (
{
name = bottom;
pos = (300,0);
},
{
name = top;
pos = (135,700);
}
);
layerId = m004;
shapes = (
{
closed = 1;
nodes = (
(530,0,l),
(530,92,l),
(262,92,ls),
(212,92,o),
(184,116,o),
(184,170,cs),
(184,700,l),
(84,700,l),
(84,144,ls),
(84,50,o),
(132,0,o),
(228,0,cs)
);
}
);
width = 560;
},
{
anchors = (
{
name = bottom;
pos = (300,0);
},
{
name = top;
pos = (119,700);
}
);
layerId = m007;
shapes = (
{
closed = 1;
nodes = (
(524,0,l),
(524,40,l),
(256,40,ls),
(178,40,o),
(140,80,o),
(140,158,cs),
(140,700,l),
(100,700,l),
(100,150,ls),
(98,52,o),
(150,0,o),
(248,0,cs)
);
}
);
width = 560;
}
);
metricLeft = N;
metricRight = T;
userData = {
KernOnName = L;
};
},
{
color = 8;
glyphname = Lslash;
kernLeft = I;
kernRight = L;
lastChange = "2025-11-28 20:06:29 +0000";
layers = (
{
anchors = (
{
name = top;
pos = (150,700);
}
);
layerId = m003;
shapes = (
{
closed = 1;
nodes = (
(400,367,l),
(400,487,l),
(0,333,l),
(0,213,l)
);
},
{
alignment = -1;
ref = L;
}
);
width = 560;
},
{
anchors = (
{
name = top;
pos = (135,700);
}
);
layerId = m004;
shapes = (
{
closed = 1;
nodes = (
(400,392,l),
(400,470,l),
(0,310,l),
(0,232,l)
);
},
{
alignment = -1;
ref = L;
}
);
width = 560;
},
{
anchors = (
{
name = top;
pos = (119,700);
}
);
layerId = m007;
shapes = (
{
closed = 1;
nodes = (
(400,410,l),
(400,452,l),
(0,290,l),
(0,248,l)
);
},
{
alignment = -1;
ref = L;
}
);
width = 560;
}
);
metricRight = L;
unicode = 321;
},
{
glyphname = Lslash.ss05;
kernLeft = I;
kernRight = L;
lastChange = "2025-11-28 20:06:32 +0000";
layers = (
{
anchors = (
{
name = top;
pos = (150,700);
}
);
layerId = m003;
shapes = (
{
closed = 1;
nodes = (
(400,367,l),
(400,487,l),
(0,333,l),
(0,213,l)
);
},
{
alignment = -1;
ref = L.ss05;
}
);
width = 560;
},
{
anchors = (
{
name = top;
pos = (135,700);
}
);
layerId = m004;
shapes = (
{
closed = 1;
nodes = (
(400,392,l),
(400,470,l),
(0,310,l),
(0,232,l)
);
},
{
alignment = -1;
ref = L.ss05;
}
);
width = 560;
},
{
anchors = (
{
name = top;
pos = (119,700);
}
);
layerId = m007;
shapes = (
{
closed = 1;
nodes = (
(400,410,l),
(400,452,l),
(0,290,l),
(0,248,l)
);
},
{
alignment = -1;
ref = L.ss05;
}
);
width = 560;
}
);
metricRight = L;
},
{
color = 9;
glyphname = M;
kernLeft = I;
kernRight = I;
lastChange = "2025-11-28 20:06:34 +0000";
layers = (
{
anchors = (
{
name = bottom;
pos = (460,0);
},
{
name = top;
pos = (460,700);
}
);
layerId = m003;
shapes = (
{
closed = 1;
nodes = (
(226,0,l),
(226,482,l),
(370,0,l),
(538,0,l),
(678,466,l),
(678,0,l),
(868,0,l),
(868,700,l),
(600,700,l),
(468,220,l),
(330,700,l),
(52,700,l),
(52,0,l)
);
}
);
width = 920;
},
{
anchors = (
{
name = bottom;
pos = (461,0);
},
{
name = top;
pos = (460,700);
}
);
layerId = m004;
shapes = (
{
closed = 1;
nodes = (
(180,0,l),
(180,586,l),
(414,0,l),
(506,0,l),
(736,580,l),
(736,0,l),
(836,0,l),
(836,700,l),
(690,700,l),
(464,130,l),
(234,700,l),
(84,700,l),
(84,0,l)
);
}
);
width = 920;
},
{
anchors = (
{
name = bottom;
pos = (462,0);
},
{
name = top;
pos = (460,700);
}
);
layerId = m007;
shapes = (
{
closed = 1;
nodes = (
(140,0,l),
(140,654,l),
(440,0,l),
(480,0,l),
(780,652,l),
(780,0,l),
(820,0,l),
(820,700,l),
(760,700,l),
(462,46,l),
(162,700,l),
(100,700,l),
(100,0,l)
);
}
);
width = 920;
}
);
metricLeft = N;
metricRight = N;
unicode = 77;
},
{
color = 9;
glyphname = N;
kernLeft = I;
kernRight = I;
lastChange = "2025-11-28 20:06:38 +0000";
layers = (
{
anchors = (
{
name = bottom;
pos = (360,0);
},
{
name = top;
pos = (360,700);
}
);
layerId = m003;
shapes = (
{
closed = 1;
nodes = (
(228,0,l),
(228,450,l),
(452,0,l),
(668,0,l),
(668,700,l),
(494,700,l),
(494,238,l),
(270,700,l),
(52,700,l),
(52,0,l)
);
}
);
width = 720;
},
{
anchors = (
{
name = bottom;
pos = (360,0);
},
{
name = top;
pos = (360,700);
}
);
layerId = m004;
shapes = (
{
closed = 1;
nodes = (
(182,0,l),
(182,550,l),
(524,0,l),
(636,0,l),
(636,700,l),
(538,700,l),
(538,150,l),
(196,700,l),
(84,700,l),
(84,0,l)
);
}
);
width = 720;
},
{
anchors = (
{
name = bottom;
pos = (360,0);
},
{
name = top;
pos = (360,700);
}
);
layerId = m007;
shapes = (
{
closed = 1;
nodes = (
(140,0,l),
(140,646,l),
(572,0,l),
(620,0,l),
(620,700,l),
(580,700,l),
(580,56,l),
(148,700,l),
(100,700,l),
(100,0,l)
);
}
);
width = 720;
}
);
unicode = 78;
},
{
glyphname = Nhookleft;
kernLeft = j;
kernRight = I;
lastChange = "2025-12-01 08:30:57 +0000";
layers = (
{
layerId = m007;
shapes = (
{
ref = N;
},
{
closed = 1;
nodes = (
(16,-200,ls),
(98,-200,o),
(140,-158,o),
(140,-76,cs),
(140,10,l),
(100,2,l),
(100,-68,ls),
(100,-130,o),
(70,-160,o),
(8,-160,cs),
(-72,-160,l),
(-72,-200,l)
);
}
);
width = 720;
},
{
layerId = m004;
shapes = (
{
ref = N;
},
{
closed = 1;
nodes = (
(52,-200,ls),
(140,-200,o),
(182,-156,o),
(182,-68,cs),
(182,10,l),
(84,6,l),
(84,-44,ls),
(84,-86,o),
(62,-108,o),
(20,-108,cs),
(-60,-108,l),
(-60,-200,l)
);
}
);
width = 720;
},
{
layerId = m003;
shapes = (
{
ref = N;
},
{
closed = 1;
nodes = (
(94,-200,ls),
(182,-200,o),
(228,-154,o),
(228,-66,cs),
(228,10,l),
(52,10,l),
(52,-16,ls),
(52,-38,o),
(42,-46,o),
(24,-46,cs),
(-66,-46,l),
(-66,-200,l)
);
}
);
width = 720;
}
);
unicode = 413;
},
{
color = 8;
glyphname = Eng;
kernLeft = I;
kernRight = "I-des";
lastChange = "2025-11-28 20:06:41 +0000";
layers = (
{
layerId = m003;
shapes = (
{
closed = 1;
nodes = (
(228,0,l),
(228,450,l),
(476,0,l),
(668,0,l),
(668,700,l),
(492,700,l),
(492,278,l),
(258,700,l),
(52,700,l),
(52,0,l)
);
},
{
alignment = -1;
pos = (374,0);
ref = "hook-2";
}
);
width = 720;
},
{
layerId = m004;
shapes = (
{
closed = 1;
nodes = (
(180,0,l),
(180,546,l),
(536,0,l),
(636,0,l),
(636,700,l),
(538,700,l),
(538,160,l),
(188,700,l),
(84,700,l),
(84,0,l)
);
},
{
alignment = -1;
pos = (382,0);
ref = "hook-2";
}
);
width = 720;
},
{
layerId = m007;
shapes = (
{
closed = 1;
nodes = (
(140,0,l),
(140,642,l),
(580,0,l),
(620,0,l),
(620,700,l),
(580,700,l),
(580,68,l),
(148,700,l),
(100,700,l),
(100,0,l)
);
},
{
alignment = -1;
pos = (390,0);
ref = "hook-2";
}
);
width = 720;
}
);
metricLeft = N;
metricRight = N;
unicode = 330;
},
{
color = 9;
glyphname = O;
kernLeft = O;
kernRight = O;
lastChange = "2025-12-03 11:38:48 +0000";
layers = (
{
anchors = (
{
name = bottom;
pos = (360,0);
},
{
name = top;
pos = (360,700);
}
);
layerId = m003;
shapes = (
{
closed = 1;
nodes = (
(570,-12,o),
(692,124,o),
(692,348,cs),
(692,352,ls),
(692,574,o),
(570,712,o),
(362,712,cs),
(358,712,ls),
(148,712,o),
(28,574,o),
(28,352,cs),
(28,348,ls),
(28,126,o),
(150,-12,o),
(358,-12,cs),
(362,-12,ls)
);
},
{
closed = 1;
nodes = (
(358,148,ls),
(252,148,o),
(224,242,o),
(224,348,cs),
(224,352,ls),
(224,464,o),
(254,552,o),
(358,552,cs),
(362,552,ls),
(474,552,o),
(496,450,o),
(496,352,cs),
(496,348,ls),
(496,236,o),
(466,148,o),
(362,148,cs)
);
}
);
width = 720;
},
{
anchors = (
{
name = bottom;
pos = (360,0);
},
{
name = top;
pos = (360,700);
}
);
layerId = m004;
shapes = (
{
closed = 1;
nodes = (
(550,-12,o),
(668,128,o),
(668,348,cs),
(668,352,ls),
(668,576,o),
(552,712,o),
(362,712,cs),
(358,712,ls),
(166,712,o),
(52,576,o),
(52,352,cs),
(52,348,ls),
(52,130,o),
(170,-12,o),
(358,-12,cs),
(362,-12,ls)
);
},
{
closed = 1;
nodes = (
(358,80,ls),
(208,80,o),
(152,204,o),
(152,348,cs),
(152,352,ls),
(152,500,o),
(206,620,o),
(358,620,cs),
(362,620,ls),
(516,620,o),
(568,496,o),
(568,352,cs),
(568,348,ls),
(568,200,o),
(510,80,o),
(362,80,cs)
);
}
);
width = 720;
},
{
anchors = (
{
name = bottom;
pos = (360,0);
},
{
name = top;
pos = (360,700);
}
);
layerId = m007;
shapes = (
{
closed = 1;
nodes = (
(556,-12,o),
(660,136,o),
(660,348,cs),
(660,352,ls),
(660,560,o),
(562,712,o),
(362,712,cs),
(358,712,ls),
(152,712,o),
(60,552,o),
(60,352,cs),
(60,348,ls),
(60,138,o),
(168,-12,o),
(358,-12,cs),
(362,-12,ls)
);
},
{
closed = 1;
nodes = (
(358,28,ls),
(190,28,o),
(100,160,o),
(100,348,cs),
(100,352,ls),
(100,536,o),
(178,672,o),
(358,672,cs),
(362,672,ls),
(550,672,o),
(620,524,o),
(620,352,cs),
(620,348,ls),
(620,166,o),
(538,28,o),
(362,28,cs)
);
}
);
width = 720;
}
);
unicode = 79;
userData = {
KernOnName = O;
};
},
{
color = 8;
glyphname = Ohorn;
kernLeft = O;
kernRight = "O-horn";
lastChange = "2025-11-28 20:07:06 +0000";
layers = (
{
anchors = (
{
name = bottom;
pos = (360,0);
},
{
name = top;
pos = (360,700);
}
);
layerId = m003;
shapes = (
{
alignment = -1;
ref = O;
},
{
pos = (480,0);
ref = horncomb;
},
{
closed = 1;
nodes = (
(382,700,l),
(382,588,l),
(486,588,l),
(486,700,l)
);
}
);
width = 780;
},
{
anchors = (
{
name = bottom;
pos = (360,0);
},
{
name = top;
pos = (360,700);
}
);
layerId = m004;
shapes = (
{
alignment = -1;
ref = O;
},
{
pos = (532,0);
ref = horncomb;
},
{
closed = 1;
nodes = (
(412,700,l),
(412,634,l),
(546,634,l),
(546,700,l)
);
}
);
width = 780;
},
{
anchors = (
{
name = bottom;
pos = (360,0);
},
{
name = top;
pos = (360,700);
}
);
layerId = m007;
shapes = (
{
alignment = -1;
ref = O;
},
{
pos = (570,0);
ref = horncomb;
},
{
closed = 1;
nodes = (
(448,700,l),
(448,660,l),
(582,660,l),
(582,700,l)
);
}
);
width = 780;
}
);
metricLeft = O;
metricRight = T;
unicode = 416;
},
{
color = 8;
glyphname = Oslash;
kernLeft = O;
kernRight = O;
lastChange = "2025-11-28 20:07:11 +0000";
layers = (
{
anchors = (
{
name = top;
pos = (360,700);
}
);
layerId = m003;
shapes = (
{
closed = 1;
nodes = (
(193,0,l),
(679,700,l),
(527,700,l),
(41,0,l)
);
},
{
ref = O;
}
);
width = 720;
},
{
anchors = (
{
name = top;
pos = (360,700);
}
);
layerId = m004;
shapes = (
{
closed = 1;
nodes = (
(152,0,l),
(660,700,l),
(568,700,l),
(60,0,l)
);
},
{
ref = O;
}
);
width = 720;
},
{
anchors = (
{
name = top;
pos = (360,700);
}
);
layerId = m007;
shapes = (
{
closed = 1;
nodes = (
(110,0,l),
(660,700,l),
(610,700,l),
(60,0,l)
);
},
{
ref = O;
}
);
width = 720;
}
);
metricLeft = O;
metricRight = O;
unicode = 216;
},
{
color = 8;
glyphname = OE;
kernLeft = O;
kernRight = E;
lastChange = "2025-12-03 11:28:51 +0000";
layers = (
{
anchors = (
{
name = top;
pos = (520,700);
}
);
layerId = m003;
shapes = (
{
alignment = -1;
pos = (400,0);
ref = E;
},
{
closed = 1;
nodes = (
(646,700,l),
(400,700,ls),
(178,700,o),
(28,574,o),
(28,352,cs),
(28,348,ls),
(28,126,o),
(178,0,o),
(400,0,cs),
(646,0,l),
(646,152,l),
(416,152,ls),
(294,152,o),
(224,224,o),
(224,348,cs),
(224,352,ls),
(224,474,o),
(294,548,o),
(416,548,cs),
(646,548,l)
);
}
);
width = 1000;
},
{
anchors = (
{
name = top;
pos = (520,700);
}
);
layerId = m004;
shapes = (
{
alignment = -1;
pos = (400,0);
ref = E;
},
{
closed = 1;
nodes = (
(584,700,l),
(422,700,ls),
(184,700,o),
(52,584,o),
(52,352,cs),
(52,348,ls),
(52,116,o),
(186,0,o),
(422,0,cs),
(584,0,l),
(584,92,l),
(426,92,ls),
(232,92,o),
(152,174,o),
(152,348,cs),
(152,352,ls),
(152,538,o),
(238,608,o),
(426,608,cs),
(584,608,l)
);
}
);
width = 1000;
},
{
anchors = (
{
name = top;
pos = (520,700);
}
);
layerId = m007;
shapes = (
{
alignment = -1;
pos = (400,0);
ref = E;
},
{
closed = 1;
nodes = (
(538,700,l),
(428,700,ls),
(174,700,o),
(60,580,o),
(60,352,cs),
(60,348,ls),
(60,102,o),
(184,0,o),
(428,0,cs),
(538,0,l),
(538,42,l),
(428,42,ls),
(206,42,o),
(100,144,o),
(100,348,cs),
(100,352,ls),
(100,572,o),
(206,660,o),
(428,660,cs),
(538,660,l)
);
}
);
width = 1000;
}
);
metricLeft = O;
metricRight = E;
unicode = 338;
},
{
color = 9;
glyphname = P;
kernLeft = I;
kernRight = P;
lastChange = "2025-12-03 11:39:23 +0000";
layers = (
{
anchors = (
{
name = top;
pos = (320,700);
}
);
layerId = m003;
shapes = (
{
closed = 1;
nodes = (
(246,0,l),
(246,244,l),
(376,244,ls),
(535,244,o),
(640,318,o),
(640,470,cs),
(640,474,ls),
(640,624,o),
(536,700,o),
(376,700,cs),
(52,700,l),
(52,0,l)
);
},
{
closed = 1;
nodes = (
(246,552,l),
(352,552,ls),
(412,552,o),
(446,528,o),
(446,474,cs),
(446,470,ls),
(446,414,o),
(411,392,o),
(352,392,cs),
(246,392,l)
);
}
);
width = 660;
},
{
anchors = (
{
name = top;
pos = (320,700);
}
);
layerId = m004;
shapes = (
{
closed = 1;
nodes = (
(184,0,l),
(184,260,l),
(364,260,ls),
(543,260,o),
(620,358,o),
(620,478,cs),
(620,482,ls),
(620,600,o),
(544,700,o),
(364,700,cs),
(84,700,l),
(84,0,l)
);
},
{
closed = 1;
nodes = (
(184,608,l),
(354,608,ls),
(458,608,o),
(520,572,o),
(520,482,cs),
(520,478,ls),
(520,386,o),
(457,352,o),
(354,352,cs),
(184,352,l)
);
}
);
width = 660;
},
{
anchors = (
{
name = top;
pos = (320,700);
}
);
layerId = m007;
shapes = (
{
closed = 1;
nodes = (
(140,0,l),
(140,272,l),
(364,272,ls),
(513,272,o),
(610,350,o),
(610,484,cs),
(610,488,ls),
(610,620,o),
(514,700,o),
(364,700,cs),
(100,700,l),
(100,0,l)
);
},
{
closed = 1;
nodes = (
(140,660,l),
(358,660,ls),
(488,660,o),
(570,600,o),
(570,488,cs),
(570,484,ls),
(570,370,o),
(487,312,o),
(358,312,cs),
(140,312,l)
);
}
);
width = 660;
}
);
metricLeft = N;
unicode = 80;
},
{
color = 8;
glyphname = Thorn;
kernLeft = I;
kernRight = Phi;
lastChange = "2025-12-03 11:39:32 +0000";
layers = (
{
layerId = m003;
shapes = (
{
closed = 1;
nodes = (
(246,0,l),
(246,700,l),
(52,700,l),
(52,0,l)
);
},
{
closed = 1;
nodes = (
(82,122,l),
(376,122,ls),
(535,122,o),
(640,196,o),
(640,348,cs),
(640,352,ls),
(640,502,o),
(536,578,o),
(376,578,cs),
(82,578,l)
);
},
{
closed = 1;
nodes = (
(242,430,l),
(350,430,ls),
(410,430,o),
(444,406,o),
(444,352,cs),
(444,348,ls),
(444,292,o),
(409,270,o),
(350,270,cs),
(242,270,l)
);
}
);
width = 660;
},
{
layerId = m004;
shapes = (
{
closed = 1;
nodes = (
(184,0,l),
(184,700,l),
(84,700,l),
(84,0,l)
);
},
{
closed = 1;
nodes = (
(116,130,l),
(364,130,ls),
(543,130,o),
(620,228,o),
(620,348,cs),
(620,352,ls),
(620,470,o),
(544,570,o),
(364,570,cs),
(116,570,l)
);
},
{
closed = 1;
nodes = (
(178,478,l),
(354,478,ls),
(458,478,o),
(520,442,o),
(520,352,cs),
(520,348,ls),
(520,256,o),
(457,222,o),
(354,222,cs),
(178,222,l)
);
}
);
width = 660;
},
{
layerId = m007;
shapes = (
{
closed = 1;
nodes = (
(140,0,l),
(140,700,l),
(100,700,l),
(100,0,l)
);
},
{
closed = 1;
nodes = (
(116,136,l),
(364,136,ls),
(513,136,o),
(610,214,o),
(610,348,cs),
(610,352,ls),
(610,484,o),
(514,564,o),
(364,564,cs),
(116,564,l)
);
},
{
closed = 1;
nodes = (
(140,524,l),
(358,524,ls),
(488,524,o),
(570,464,o),
(570,352,cs),
(570,348,ls),
(570,234,o),
(487,176,o),
(358,176,cs),
(140,176,l)
);
}
);
width = 660;
}
);
metricLeft = N;
metricRight = P;
unicode = 222;
},
{
color = 9;
glyphname = Q;
kernLeft = O;
kernRight = Q;
lastChange = "2025-11-28 20:08:12 +0000";
layers = (
{
layerId = m003;
shapes = (
{
closed = 1;
nodes = (
(688,-150,l),
(559,70,l),
(395,8,l),
(485,-150,l)
);
},
{
ref = O;
}
);
width = 720;
},
{
layerId = m004;
shapes = (
{
closed = 1;
nodes = (
(650,-150,l),
(520,56,l),
(428,16,l),
(532,-150,l)
);
},
{
ref = O;
}
);
width = 720;
},
{
layerId = m007;
shapes = (
{
closed = 1;
nodes = (
(624,-150,l),
(500,42,l),
(460,24,l),
(570,-150,l)
);
},
{
ref = O;
}
);
width = 720;
}
);
metricLeft = O;
metricRight = O;
unicode = 81;
},
{
glyphname = Q.ss02;
kernLeft = O;
kernRight = Q;
lastChange = "2025-11-28 20:08:15 +0000";
layers = (
{
layerId = m003;
shapes = (
{
ref = O;
},
{
closed = 1;
nodes = (
(640,-7,l),
(545,-7,ls),
(526.333,-7,o),
(519.333,-4,o),
(514,12,cs),
(493,87,l),
(293,87,l),
(347,-74,ls),
(363,-123.333,o),
(401,-150,o),
(481,-150,cs),
(640,-150,l)
);
}
);
width = 720;
},
{
layerId = m004;
shapes = (
{
ref = O;
},
{
closed = 1;
nodes = (
(640,-58,l),
(524,-58,ls),
(492,-58,o),
(478,-48.667,o),
(470,-22,cs),
(454,34,l),
(340,34,l),
(374,-78,ls),
(390,-126,o),
(424,-150,o),
(496,-150,cs),
(640,-150,l)
);
}
);
width = 720;
},
{
layerId = m007;
shapes = (
{
ref = O;
},
{
closed = 1;
nodes = (
(640,-110,l),
(518,-110,ls),
(467.333,-110,o),
(446,-90,o),
(438,-58,cs),
(418,10,l),
(372,10,l),
(398,-80,ls),
(411.333,-125.333,o),
(443.333,-150,o),
(510,-150,cs),
(640,-150,l)
);
}
);
width = 720;
}
);
metricLeft = O;
metricRight = O;
},
{
color = 9;
glyphname = R;
kernLeft = I;
kernRight = R;
lastChange = "2025-12-03 11:26:30 +0000";
layers = (
{
anchors = (
{
name = bottom;
pos = (340,0);
},
{
name = top;
pos = (340,700);
}
);
layerId = m003;
shapes = (
{
closed = 1;
nodes = (
(246,0,l),
(246,256,l),
(286,256,l),
(438,0,l),
(656,0,l),
(482,276,l),
(565,300,o),
(634,364,o),
(634,478,cs),
(634,482,ls),
(634,616,o),
(540,700,o),
(370,700,cs),
(52,700,l),
(52,0,l)
);
},
{
closed = 1;
nodes = (
(246,556,l),
(338,556,ls),
(402,556,o),
(440,536,o),
(440,478,cs),
(440,474,ls),
(440,414,o),
(401,396,o),
(338,396,cs),
(246,396,l)
);
}
);
width = 680;
},
{
anchors = (
{
name = bottom;
pos = (340,0);
},
{
name = top;
pos = (340,700);
}
);
layerId = m004;
shapes = (
{
closed = 1;
nodes = (
(184,0,l),
(184,282,l),
(324,282,l),
(514,0,l),
(632,0,l),
(434,290,l),
(543,298,o),
(612,378,o),
(612,490,cs),
(612,494,ls),
(612,622,o),
(526,700,o),
(378,700,cs),
(84,700,l),
(84,0,l)
);
},
{
closed = 1;
nodes = (
(184,608,l),
(362,608,ls),
(456,608,o),
(512,572,o),
(512,494,cs),
(512,490,ls),
(512,406,o),
(445,376,o),
(362,376,cs),
(184,376,l)
);
}
);
width = 680;
},
{
anchors = (
{
name = bottom;
pos = (340,0);
},
{
name = top;
pos = (340,700);
}
);
layerId = m007;
shapes = (
{
closed = 1;
nodes = (
(140,0,l),
(140,306,l),
(350,306,l),
(568,0,l),
(618,0,l),
(398,306,l),
(525,308,o),
(602,386,o),
(602,500,cs),
(602,504,ls),
(602,626,o),
(522,700,o),
(384,700,cs),
(100,700,l),
(100,0,l)
);
},
{
closed = 1;
nodes = (
(140,660,l),
(380,660,ls),
(502,660,o),
(562,602,o),
(562,504,cs),
(562,500,ls),
(562,392,o),
(487,346,o),
(380,346,cs),
(140,346,l)
);
}
);
width = 680;
}
);
metricLeft = N;
unicode = 82;
userData = {
KernOnName = R;
};
},
{
glyphname = R.ss01;
kernLeft = I;
kernRight = R;
lastChange = "2025-12-03 11:26:20 +0000";
layers = (
{
anchors = (
{
name = bottom;
pos = (340,0);
},
{
name = top;
pos = (340,700);
}
);
layerId = m003;
shapes = (
{
closed = 1;
nodes = (
(246,0,l),
(246,256,l),
(342,256,ls),
(388,256,o),
(406,238,o),
(406,192,cs),
(406,114,ls),
(406,44,o),
(418,18,o),
(448,0,c),
(656,0,l),
(618,42,o),
(598,60,o),
(598,118,cs),
(598,222,ls),
(598,272,o),
(574,304,o),
(534,320,c),
(607,350,o),
(634,406,o),
(634,484,cs),
(634,488,ls),
(634,610,o),
(546,700,o),
(370,700,cs),
(52,700,l),
(52,0,l)
);
},
{
closed = 1;
nodes = (
(246,556,l),
(338,556,ls),
(404,556,o),
(440,536,o),
(440,478,cs),
(440,474,ls),
(440,412,o),
(399,398,o),
(338,398,cs),
(246,398,l)
);
}
);
width = 680;
},
{
anchors = (
{
name = bottom;
pos = (340,0);
},
{
name = top;
pos = (340,700);
}
);
layerId = m004;
shapes = (
{
closed = 1;
nodes = (
(184,0,l),
(184,282,l),
(392,282,ls),
(450,282,o),
(472,260,o),
(472,202,cs),
(472,114,ls),
(472,44,o),
(488,20,o),
(516,0,c),
(632,0,l),
(596,28,o),
(572,56,o),
(572,114,cs),
(572,226,ls),
(572,282,o),
(546,316,o),
(514,326,c),
(558,348,o),
(612,394,o),
(612,490,cs),
(612,494,ls),
(612,622,o),
(526,700,o),
(378,700,cs),
(84,700,l),
(84,0,l)
);
},
{
closed = 1;
nodes = (
(184,608,l),
(362,608,ls),
(452,608,o),
(512,572,o),
(512,494,cs),
(512,490,ls),
(512,406,o),
(445,376,o),
(362,376,cs),
(184,376,l)
);
}
);
width = 680;
},
{
anchors = (
{
name = bottom;
pos = (340,0);
},
{
name = top;
pos = (340,700);
}
);
layerId = m007;
shapes = (
{
closed = 1;
nodes = (
(140,0,l),
(140,306,l),
(432,306,ls),
(490,306,o),
(512,282,o),
(512,224,cs),
(512,122,ls),
(512,58,o),
(534,16,o),
(558,0,c),
(618,0,l),
(576,30,o),
(552,54,o),
(552,122,cs),
(552,230,ls),
(552,292,o),
(528,322,o),
(494,330,c),
(538,348,o),
(602,394,o),
(602,500,cs),
(602,504,ls),
(602,632,o),
(518,700,o),
(384,700,cs),
(100,700,l),
(100,0,l)
);
},
{
closed = 1;
nodes = (
(140,660,l),
(380,660,ls),
(502,660,o),
(562,602,o),
(562,504,cs),
(562,500,ls),
(562,394,o),
(489,346,o),
(380,346,cs),
(140,346,l)
);
}
);
width = 680;
}
);
metricLeft = N;
metricRight = R;
userData = {
KernOnName = R;
};
},
{
color = 9;
glyphname = S;
kernLeft = S;
kernRight = S;
lastChange = "2025-12-03 11:24:26 +0000";
layers = (
{
anchors = (
{
name = bottom;
pos = (330,0);
},
{
name = top;
pos = (330,700);
}
);
guides = (
{
pos = (-8,480);
},
{
pos = (-8,220);
}
);
layerId = m003;
shapes = (
{
closed = 1;
nodes = (
(514,-12,o),
(628,56,o),
(628,214,cs),
(628,218,ls),
(628,338,o),
(560,406,o),
(426,426,cs),
(308,444,ls),
(261,450,o),
(228,458,o),
(228,502,cs),
(228,506,ls),
(228,540,o),
(254,564,o),
(324,564,cs),
(328,564,ls),
(394,564,o),
(426,538,o),
(426,480,c),
(614,480,l),
(610,648,o),
(486,712,o),
(328,712,cs),
(324,712,ls),
(152,712,o),
(36,632,o),
(36,486,cs),
(36,482,ls),
(36,348,o),
(105,300,o),
(222,280,cs),
(360,258,ls),
(416,250,o),
(436,234,o),
(436,198,cs),
(436,194,ls),
(436,154,o),
(402,136,o),
(332,136,cs),
(328,136,ls),
(256,136,o),
(228,159,o),
(224,220,c),
(36,220,l),
(40,59,o),
(148,-12,o),
(332,-12,cs),
(336,-12,ls)
);
}
);
width = 660;
},
{
anchors = (
{
name = bottom;
pos = (330,0);
},
{
name = top;
pos = (330,700);
}
);
guides = (
{
pos = (-8,500);
},
{
pos = (-8,200);
}
);
layerId = m004;
shapes = (
{
closed = 1;
nodes = (
(492,-12,o),
(602,48,o),
(602,194,cs),
(602,198,ls),
(602,330,o),
(500,372,o),
(380,394,cs),
(288,410,ls),
(209,424,o),
(166,448,o),
(166,514,cs),
(166,518,ls),
(166,588,o),
(228,624,o),
(328,624,cs),
(332,624,ls),
(428,624,o),
(488,584,o),
(492,500,c),
(588,500,l),
(584,640,o),
(486,712,o),
(332,712,cs),
(328,712,ls),
(182,712,o),
(66,646,o),
(66,510,cs),
(66,506,ls),
(66,378,o),
(153,336,o),
(264,316,cs),
(356,300,ls),
(436,284,o),
(502,268,o),
(502,188,cs),
(502,184,ls),
(502,92,o),
(422,76,o),
(336,76,cs),
(332,76,ls),
(226,76,o),
(160,101,o),
(156,200,c),
(58,200,l),
(62,39,o),
(176,-12,o),
(332,-12,cs),
(336,-12,ls)
);
}
);
width = 660;
},
{
anchors = (
{
name = bottom;
pos = (330,0);
},
{
name = top;
pos = (330,700);
}
);
guides = (
{
pos = (-8,520);
},
{
pos = (-8,180);
}
);
layerId = m007;
shapes = (
{
closed = 1;
nodes = (
(482,-12,o),
(586,42,o),
(586,178,cs),
(586,182,ls),
(586,310,o),
(498,344,o),
(378,366,cs),
(294,380,ls),
(177,400,o),
(122,430,o),
(122,522,cs),
(122,526,ls),
(122,636,o),
(226,672,o),
(328,672,cs),
(332,672,ls),
(446,672,o),
(530,630,o),
(534,520,c),
(574,520,l),
(570,652,o),
(466,712,o),
(332,712,cs),
(328,712,ls),
(196,712,o),
(82,654,o),
(82,526,cs),
(82,522,ls),
(82,392,o),
(163,366,o),
(282,342,cs),
(370,326,ls),
(488,304,o),
(546,276,o),
(546,182,cs),
(546,178,ls),
(546,58,o),
(448,28,o),
(338,28,cs),
(334,28,ls),
(210,28,o),
(120,63,o),
(116,180,c),
(76,180,l),
(80,31,o),
(200,-12,o),
(334,-12,cs),
(338,-12,ls)
);
}
);
width = 660;
}
);
unicode = 83;
userData = {
KernOnName = S;
};
},
{
color = 8;
glyphname = Germandbls;
kernLeft = I;
kernRight = S;
lastChange = "2025-12-03 11:25:15 +0000";
layers = (
{
layerId = m003;
shapes = (
{
closed = 1;
nodes = (
(592,0,o),
(660,60,o),
(660,178,cs),
(660,182,ls),
(660,252,o),
(626,304,o),
(560,344,cs),
(510,374,ls),
(490,386,o),
(480,396,o),
(480,420,cs),
(480,424,ls),
(480,444,o),
(490,460,o),
(514,484,cs),
(614,590,l),
(614,700,l),
(52,700,l),
(52,0,l),
(246,0,l),
(246,558,l),
(388,558,l),
(346,512,ls),
(312,472,o),
(294,432,o),
(294,386,cs),
(294,382,ls),
(294,324,o),
(320,282,o),
(366,256,cs),
(426,220,ls),
(448,206,o),
(462,192,o),
(462,174,cs),
(462,170,ls),
(462,150,o),
(444,142,o),
(424,142,cs),
(296,142,l),
(296,0,l),
(450,0,ls)
);
}
);
width = 680;
},
{
layerId = m004;
shapes = (
{
closed = 1;
nodes = (
(582,0,o),
(640,54,o),
(640,158,cs),
(640,162,ls),
(640,238,o),
(606,286,o),
(528,332,cs),
(478,362,ls),
(444,380,o),
(430,400,o),
(430,428,cs),
(430,432,ls),
(430,462,o),
(452,488,o),
(470,510,cs),
(590,634,l),
(590,700,l),
(84,700,l),
(84,0,l),
(184,0,l),
(184,608,l),
(446,608,l),
(374,532,ls),
(340,498,o),
(324,458,o),
(324,414,cs),
(324,410,ls),
(324,362,o),
(356,316,o),
(410,282,cs),
(470,246,ls),
(518,216,o),
(540,188,o),
(540,158,cs),
(540,154,ls),
(540,108,o),
(508,92,o),
(442,92,cs),
(310,92,l),
(310,0,l),
(448,0,ls)
);
}
);
width = 680;
},
{
layerId = m007;
shapes = (
{
closed = 1;
nodes = (
(556,0,o),
(630,40,o),
(630,152,cs),
(630,156,ls),
(630,230,o),
(592,276,o),
(520,310,cs),
(474,332,ls),
(412,362,o),
(390,382,o),
(390,418,cs),
(390,422,ls),
(390,462,o),
(420,502,o),
(446,534,cs),
(574,678,l),
(574,700,l),
(100,700,l),
(100,0,l),
(140,0,l),
(140,660,l),
(508,660,l),
(408,550,ls),
(374,510,o),
(350,470,o),
(350,422,cs),
(350,418,ls),
(350,370,o),
(378,332,o),
(452,298,cs),
(500,276,ls),
(566,246,o),
(590,212,o),
(590,156,cs),
(590,152,ls),
(590,70,o),
(532,40,o),
(438,40,cs),
(320,40,l),
(320,0,l),
(440,0,l)
);
}
);
width = 680;
}
);
metricLeft = N;
metricRight = P;
unicode = 7838;
},
{
color = 9;
glyphname = T;
kernLeft = T;
kernRight = T;
lastChange = "2025-12-01 09:08:42 +0000";
layers = (
{
anchors = (
{
name = bottom;
pos = (330,0);
},
{
name = top;
pos = (330,700);
}
);
layerId = m003;
shapes = (
{
closed = 1;
nodes = (
(428,0,l),
(428,540,l),
(648,540,l),
(648,700,l),
(12,700,l),
(12,540,l),
(232,540,l),
(232,0,l)
);
}
);
width = 660;
},
{
anchors = (
{
name = bottom;
pos = (330,0);
},
{
name = top;
pos = (330,700);
}
);
layerId = m004;
shapes = (
{
closed = 1;
nodes = (
(380,0,l),
(380,608,l),
(630,608,l),
(630,700,l),
(30,700,l),
(30,608,l),
(280,608,l),
(280,0,l)
);
}
);
width = 660;
},
{
anchors = (
{
name = bottom;
pos = (330,0);
},
{
name = top;
pos = (330,700);
}
);
layerId = m007;
shapes = (
{
closed = 1;
nodes = (
(350,0,l),
(350,660,l),
(624,660,l),
(624,700,l),
(36,700,l),
(36,660,l),
(310,660,l),
(310,0,l)
);
}
);
width = 660;
}
);
unicode = 84;
userData = {
KernOnName = T;
};
},
{
color = 9;
glyphname = U;
kernLeft = U;
kernRight = U;
lastChange = "2025-12-02 08:22:18 +0000";
layers = (
{
anchors = (
{
name = bottom;
pos = (360,0);
},
{
name = ogonek;
pos = (327,0);
},
{
name = top;
pos = (360,700);
}
);
layerId = m003;
shapes = (
{
closed = 1;
nodes = (
(362,-12,ls),
(552,-12,o),
(672,80,o),
(672,284,cs),
(672,700,l),
(478,700,l),
(478,298,ls),
(478,210,o),
(454,148,o),
(362,148,cs),
(358,148,ls),
(266,148,o),
(242,210,o),
(242,298,cs),
(242,700,l),
(48,700,l),
(48,284,ls),
(48,80,o),
(168,-12,o),
(358,-12,cs)
);
}
);
width = 720;
},
{
anchors = (
{
name = bottom;
pos = (360,0);
},
{
name = ogonek;
pos = (368,0);
},
{
name = top;
pos = (360,700);
}
);
layerId = m004;
shapes = (
{
closed = 1;
nodes = (
(362,-12,ls),
(534,-12,o),
(642,74,o),
(642,268,cs),
(642,700,l),
(542,700,l),
(542,270,ls),
(542,138,o),
(478,80,o),
(362,80,cs),
(358,80,ls),
(242,80,o),
(178,138,o),
(178,270,cs),
(178,700,l),
(78,700,l),
(78,268,ls),
(78,74,o),
(186,-12,o),
(358,-12,cs)
);
}
);
width = 720;
},
{
anchors = (
{
name = bottom;
pos = (360,0);
},
{
name = ogonek;
pos = (400,0);
},
{
name = top;
pos = (360,700);
}
);
layerId = m007;
shapes = (
{
closed = 1;
nodes = (
(362,-12,ls),
(552,-12,o),
(630,102,o),
(630,254,cs),
(630,700,l),
(590,700,l),
(590,258,ls),
(590,122,o),
(526,28,o),
(362,28,cs),
(358,28,ls),
(194,28,o),
(132,122,o),
(132,258,cs),
(132,700,l),
(92,700,l),
(92,254,ls),
(92,102,o),
(168,-12,o),
(358,-12,cs)
);
}
);
width = 720;
}
);
unicode = 85;
},
{
color = 9;
glyphname = V;
kernLeft = V;
kernRight = V;
lastChange = "2025-11-28 20:09:45 +0000";
layers = (
{
anchors = (
{
name = bottom;
pos = (350,0);
},
{
name = top;
pos = (350,700);
}
);
layerId = m003;
shapes = (
{
closed = 1;
nodes = (
(476,0,l),
(688,700,l),
(498,700,l),
(354,188,l),
(210,700,l),
(12,700,l),
(224,0,l)
);
}
);
width = 700;
},
{
anchors = (
{
name = bottom;
pos = (350,0);
},
{
name = top;
pos = (350,700);
}
);
layerId = m004;
shapes = (
{
closed = 1;
nodes = (
(418,0,l),
(670,700,l),
(566,700,l),
(352,102,l),
(140,700,l),
(30,700,l),
(284,0,l)
);
}
);
width = 700;
},
{
anchors = (
{
name = bottom;
pos = (350,0);
},
{
name = top;
pos = (350,700);
}
);
layerId = m007;
shapes = (
{
closed = 1;
nodes = (
(378,0,l),
(664,700,l),
(618,700,l),
(352,46,l),
(82,700,l),
(36,700,l),
(326,0,l)
);
}
);
width = 700;
}
);
metricLeft = X;
metricRight = X;
unicode = 86;
userData = {
KernOnName = V;
};
},
{
color = 9;
glyphname = W;
kernLeft = W;
kernRight = W;
lastChange = "2025-11-28 20:09:48 +0000";
layers = (
{
anchors = (
{
name = bottom;
pos = (500,0);
},
{
name = top;
pos = (500,700);
}
);
layerId = m003;
shapes = (
{
closed = 1;
nodes = (
(416,0,l),
(500,414,l),
(584,0,l),
(828,0,l),
(988,700,l),
(812,700,l),
(706,208,l),
(600,700,l),
(400,700,l),
(308,208,l),
(204,700,l),
(12,700,l),
(172,0,l)
);
}
);
width = 1000;
},
{
anchors = (
{
name = bottom;
pos = (500,0);
},
{
name = top;
pos = (500,700);
}
);
layerId = m004;
shapes = (
{
closed = 1;
nodes = (
(354,0,l),
(500,538,l),
(644,0,l),
(778,0,l),
(970,700,l),
(872,700,l),
(714,102,l),
(556,700,l),
(452,700,l),
(296,102,l),
(136,700,l),
(30,700,l),
(222,0,l)
);
}
);
width = 1000;
},
{
anchors = (
{
name = bottom;
pos = (500,0);
},
{
name = top;
pos = (500,700);
}
);
layerId = m007;
shapes = (
{
closed = 1;
nodes = (
(304,0,l),
(500,640,l),
(696,0,l),
(748,0,l),
(964,700,l),
(918,700,l),
(722,60,l),
(526,700,l),
(474,700,l),
(278,60,l),
(82,700,l),
(36,700,l),
(252,0,l)
);
}
);
width = 1000;
}
);
metricLeft = X;
metricRight = X;
unicode = 87;
},
{
color = 9;
glyphname = X;
kernLeft = X;
kernRight = X;
lastChange = "2025-11-28 20:09:51 +0000";
layers = (
{
anchors = (
{
name = bottom;
pos = (340,0);
},
{
name = top;
pos = (340,700);
}
);
layerId = m003;
shapes = (
{
closed = 1;
nodes = (
(220,0,l),
(340,206,l),
(468,0,l),
(688,0,l),
(478,354,l),
(680,700,l),
(472,700,l),
(352,494,l),
(236,700,l),
(16,700,l),
(222,342,l),
(12,0,l)
);
}
);
width = 700;
},
{
anchors = (
{
name = bottom;
pos = (340,0);
},
{
name = top;
pos = (340,700);
}
);
layerId = m004;
shapes = (
{
closed = 1;
nodes = (
(144,0,l),
(348,282,l),
(550,0,l),
(670,0,l),
(418,352,l),
(660,700,l),
(546,700,l),
(350,418,l),
(158,700,l),
(38,700,l),
(282,346,l),
(30,0,l)
);
}
);
width = 700;
},
{
anchors = (
{
name = bottom;
pos = (340,0);
},
{
name = top;
pos = (340,700);
}
);
layerId = m007;
shapes = (
{
closed = 1;
nodes = (
(86,0,l),
(350,320,l),
(614,0,l),
(664,0,l),
(378,350,l),
(650,700,l),
(600,700,l),
(350,380,l),
(100,700,l),
(50,700,l),
(322,350,l),
(36,0,l)
);
}
);
width = 700;
}
);
unicode = 88;
userData = {
KernOnName = X;
};
},
{
color = 9;
glyphname = Y;
kernLeft = Y;
kernRight = Y;
lastChange = "2025-11-28 20:09:54 +0000";
layers = (
{
anchors = (
{
name = bottom;
pos = (340,0);
},
{
name = top;
pos = (340,700);
}
);
layerId = m003;
shapes = (
{
closed = 1;
nodes = (
(438,0,l),
(438,276,l),
(668,700,l),
(472,700,l),
(350,460,l),
(230,700,l),
(12,700,l),
(242,276,l),
(242,0,l)
);
}
);
width = 680;
},
{
anchors = (
{
name = bottom;
pos = (340,0);
},
{
name = top;
pos = (340,700);
}
);
layerId = m004;
shapes = (
{
closed = 1;
nodes = (
(390,0,l),
(390,280,l),
(650,700,l),
(538,700,l),
(344,376,l),
(146,700,l),
(30,700,l),
(290,280,l),
(290,0,l)
);
}
);
width = 680;
},
{
anchors = (
{
name = bottom;
pos = (340,0);
},
{
name = top;
pos = (340,700);
}
);
layerId = m007;
shapes = (
{
closed = 1;
nodes = (
(360,0,l),
(360,272,l),
(644,700,l),
(596,700,l),
(340,312,l),
(84,700,l),
(36,700,l),
(320,272,l),
(320,0,l)
);
}
);
width = 680;
}
);
metricLeft = X;
metricRight = X;
unicode = 89;
},
{
color = 9;
glyphname = Z;
kernLeft = Sigma;
kernRight = Sigma;
lastChange = "2025-11-28 20:09:56 +0000";
layers = (
{
anchors = (
{
name = bottom;
pos = (320,0);
},
{
name = top;
pos = (320,700);
}
);
layerId = m003;
shapes = (
{
closed = 1;
nodes = (
(614,0,l),
(614,160,l),
(274,160,l),
(614,576,l),
(614,700,l),
(28,700,l),
(28,542,l),
(368,542,l),
(28,126,l),
(28,0,l)
);
}
);
width = 640;
},
{
anchors = (
{
name = bottom;
pos = (320,0);
},
{
name = top;
pos = (320,700);
}
);
layerId = m004;
shapes = (
{
closed = 1;
nodes = (
(592,0,l),
(592,92,l),
(176,92,l),
(588,620,l),
(588,700,l),
(54,700,l),
(54,608,l),
(462,608,l),
(50,80,l),
(50,0,l)
);
}
);
width = 640;
},
{
anchors = (
{
name = bottom;
pos = (320,0);
},
{
name = top;
pos = (320,700);
}
);
layerId = m007;
shapes = (
{
closed = 1;
nodes = (
(584,0,l),
(584,40,l),
(110,40,l),
(574,664,l),
(574,700,l),
(66,700,l),
(66,660,l),
(522,660,l),
(58,34,l),
(58,0,l)
);
}
);
width = 640;
}
);
metricLeft = Sigma;
metricRight = Sigma;
unicode = 90;
},
{
color = 8;
glyphname = Saltillo;
kernLeft = I;
kernRight = I;
lastChange = "2025-11-28 20:09:59 +0000";
layers = (
{
layerId = m003;
shapes = (
{
closed = 1;
nodes = (
(238,240,l),
(238,580,l),
(238,700,l),
(44,700,l),
(44,580,l),
(44,240,l)
);
}
);
width = 280;
},
{
layerId = m004;
shapes = (
{
closed = 1;
nodes = (
(190,240,l),
(190,580,l),
(190,700,l),
(90,700,l),
(90,580,l),
(90,240,l)
);
}
);
width = 280;
},
{
layerId = m007;
shapes = (
{
closed = 1;
nodes = (
(160,240,l),
(160,580,l),
(160,700,l),
(120,700,l),
(120,580,l),
(120,240,l)
);
}
);
width = 280;
}
);
unicode = 42891;
},
{
color = 9;
glyphname = a;
kernLeft = a;
kernRight = a;
lastChange = "2025-11-28 20:20:05 +0000";
layers = (
{
anchors = (
{
name = bottom;
pos = (260,0);
},
{
name = ogonek;
pos = (357,0);
},
{
name = top;
pos = (260,500);
}
);
layerId = m003;
shapes = (
{
closed = 1;
nodes = (
(336,200,l),
(336,0,l),
(490,0,l),
(490,200,l)
);
},
{
pos = (-14,0);
ref = "a-part";
}
);
width = 520;
},
{
anchors = (
{
name = bottom;
pos = (260,0);
},
{
name = ogonek;
pos = (366,0);
},
{
name = top;
pos = (260,500);
}
);
layerId = m004;
shapes = (
{
closed = 1;
nodes = (
(368,200,l),
(368,0,l),
(458,0,l),
(458,200,l)
);
},
{
ref = "a-part";
}
);
width = 520;
},
{
anchors = (
{
name = bottom;
pos = (260,0);
},
{
name = ogonek;
pos = (400,0);
},
{
name = top;
pos = (260,500);
}
);
layerId = m007;
shapes = (
{
closed = 1;
nodes = (
(400,200,l),
(400,0,l),
(440,0,l),
(440,200,l)
);
},
{
ref = "a-part";
}
);
width = 520;
}
);
metricRight = upsilon;
unicode = 97;
userData = {
KernOnName = a;
};
},
{
glyphname = a.cv01;
kernLeft = o;
kernRight = n;
lastChange = "2025-11-28 20:20:01 +0000";
layers = (
{
anchors = (
{
name = bottom;
pos = (280,0);
},
{
name = ogonek;
pos = (388,0);
},
{
name = top;
pos = (280,500);
}
);
layerId = m003;
shapes = (
{
closed = 1;
nodes = (
(336,0,l),
(520,0,l),
(520,500,l),
(336,500,l)
);
},
{
pos = (434,0);
ref = "puzo-b";
scale = (-1,1);
}
);
width = 560;
},
{
anchors = (
{
name = bottom;
pos = (280,0);
},
{
name = ogonek;
pos = (398,0);
},
{
name = top;
pos = (280,500);
}
);
layerId = m004;
shapes = (
{
closed = 1;
nodes = (
(394,0,l),
(490,0,l),
(490,500,l),
(394,500,l)
);
},
{
pos = (478,0);
ref = "puzo-b";
scale = (-1,1);
}
);
width = 560;
},
{
anchors = (
{
name = bottom;
pos = (280,0);
},
{
name = ogonek;
pos = (434,0);
},
{
name = top;
pos = (280,500);
}
);
layerId = m007;
shapes = (
{
closed = 1;
nodes = (
(434,0,l),
(474,0,l),
(474,500,l),
(434,500,l)
);
},
{
pos = (498,0);
ref = "puzo-b";
scale = (-1,1);
}
);
width = 560;
}
);
metricLeft = o;
metricRight = u;
},
{
color = 8;
glyphname = ae;
kernLeft = a;
kernRight = o;
lastChange = "2025-12-03 09:33:04 +0000";
layers = (
{
anchors = (
{
name = bottom;
pos = (410,0);
},
{
name = ogonek;
pos = (519,0);
},
{
name = top;
pos = (410,500);
}
);
guides = (
{
pos = (-8,170);
},
{
pos = (-8,330);
}
);
layerId = m003;
shapes = (
{
closed = 1;
nodes = (
(200,-12,ls),
(308,-12,o),
(368,34,o),
(380,140,c),
(474,140,l),
(474,308,ls),
(474,456,o),
(398,512,o),
(264,512,cs),
(260,512,ls),
(134,512,o),
(38,442,o),
(38,330,c),
(198,330,l),
(202,360,o),
(214,384,o),
(256,384,cs),
(260,384,ls),
(294,384,o),
(310,366,o),
(310,320,cs),
(310,190,ls),
(310,150,o),
(290,118,o),
(242,118,cs),
(238,118,ls),
(206,118,o),
(190,130,o),
(190,152,cs),
(190,156,ls),
(190,180,o),
(208,194,o),
(248,194,cs),
(366,194,l),
(366,306,l),
(244,306,ls),
(116,306,o),
(22,264,o),
(22,146,cs),
(22,142,ls),
(22,38,o),
(88,-12,o),
(196,-12,cs)
);
},
{
closed = 1;
nodes = (
(702,-12,o),
(786,66,o),
(796,170,c),
(628,170,l),
(624,136,o),
(606,118,o),
(564,118,cs),
(560,118,ls),
(506,118,o),
(482,154,o),
(482,242,cs),
(482,262,ls),
(482,336,o),
(496,386,o),
(556,386,cs),
(560,386,ls),
(602,386,o),
(626,356,o),
(626,306,c),
(410,306,l),
(410,194,l),
(798,194,l),
(798,252,ls),
(798,432,o),
(694,512,o),
(558,512,cs),
(554,512,ls),
(416,512,o),
(316,428,o),
(316,250,cs),
(316,92,o),
(392,-12,o),
(562,-12,cs),
(566,-12,ls)
);
}
);
width = 820;
},
{
anchors = (
{
name = bottom;
pos = (410,0);
},
{
name = ogonek;
pos = (561,0);
},
{
name = top;
pos = (410,500);
}
);
guides = (
{
pos = (-8,150);
},
{
pos = (-8,350);
}
);
layerId = m004;
shapes = (
{
closed = 1;
nodes = (
(216,-12,ls),
(326,-12,o),
(384,44,o),
(404,138,c),
(438,138,l),
(438,316,ls),
(438,447,o),
(378,512,o),
(256,512,cs),
(252,512,ls),
(140,512,o),
(62,450,o),
(62,350,c),
(158,350,l),
(158,384,o),
(174,428,o),
(254,428,cs),
(258,428,ls),
(316,428,o),
(352,405,o),
(352,328,cs),
(352,202,ls),
(352,137,o),
(314,72,o),
(228,72,cs),
(224,72,ls),
(160,72,o),
(132,96,o),
(132,136,cs),
(132,140,ls),
(132,198,o),
(182,210,o),
(294,210,cs),
(374,210,l),
(374,290,l),
(282,290,ls),
(139,290,o),
(40,264,o),
(40,134,cs),
(40,130,ls),
(40,42,o),
(110,-12,o),
(212,-12,cs)
);
},
{
closed = 1;
nodes = (
(698,-12,o),
(764,64,o),
(768,150,c),
(674,150,l),
(664,94,o),
(628,72,o),
(570,72,cs),
(566,72,ls),
(482,72,o),
(444,137,o),
(444,242,cs),
(444,258,ls),
(444,357,o),
(476,428,o),
(566,428,cs),
(570,428,ls),
(642,428,o),
(684,380,o),
(684,290,c),
(406,290,l),
(406,210,l),
(776,210,l),
(776,256,ls),
(776,412,o),
(710,512,o),
(568,512,cs),
(564,512,ls),
(418,512,o),
(358,403,o),
(358,250,cs),
(358,91,o),
(414,-12,o),
(570,-12,cs),
(574,-12,ls)
);
}
);
width = 820;
},
{
anchors = (
{
name = bottom;
pos = (410,0);
},
{
name = ogonek;
pos = (590,0);
},
{
name = top;
pos = (410,500);
}
);
guides = (
{
pos = (-8,360);
},
{
pos = (-8,140);
}
);
layerId = m007;
shapes = (
{
closed = 1;
nodes = (
(214,-12,ls),
(332,-12,o),
(388,60,o),
(402,142,c),
(412,142,l),
(412,334,ls),
(412,448,o),
(360,512,o),
(250,512,cs),
(246,512,ls),
(140,512,o),
(72,450,o),
(72,360,c),
(112,360,l),
(112,432,o),
(156,472,o),
(246,472,cs),
(250,472,ls),
(342,472,o),
(378,420,o),
(378,336,cs),
(378,218,ls),
(378,108,o),
(320,28,o),
(218,28,cs),
(214,28,ls),
(136,28,o),
(90,62,o),
(90,124,cs),
(90,128,ls),
(90,224,o),
(171,230,o),
(290,230,cs),
(390,230,l),
(390,270,l),
(288,270,ls),
(155,270,o),
(50,256,o),
(50,128,cs),
(50,124,ls),
(50,36,o),
(112,-12,o),
(210,-12,cs)
);
},
{
closed = 1;
nodes = (
(718,-12,o),
(752,88,o),
(758,140,c),
(716,140,l),
(708,80,o),
(670,28,o),
(578,28,cs),
(574,28,ls),
(452,28,o),
(416,124,o),
(416,244,cs),
(416,258,ls),
(416,390,o),
(462,472,o),
(570,472,cs),
(574,472,ls),
(686,472,o),
(724,384,o),
(724,270,c),
(400,270,l),
(400,230,l),
(764,230,l),
(764,256,ls),
(764,406,o),
(712,512,o),
(574,512,cs),
(570,512,ls),
(424,512,o),
(378,398,o),
(378,250,cs),
(378,82,o),
(442,-12,o),
(576,-12,cs),
(580,-12,ls)
);
}
);
width = 820;
}
);
metricLeft = a;
metricRight = o;
unicode = 230;
},
{
color = 9;
glyphname = b;
kernLeft = I;
kernRight = o;
lastChange = "2025-11-28 20:17:42 +0000";
layers = (
{
anchors = (
{
name = bottom;
pos = (280,0);
},
{
name = top;
pos = (127,700);
}
);
layerId = m003;
shapes = (
{
closed = 1;
nodes = (
(224,700,l),
(40,700,l),
(40,0,l),
(224,0,l)
);
},
{
pos = (126,0);
ref = "puzo-b";
}
);
width = 560;
},
{
anchors = (
{
name = bottom;
pos = (280,0);
},
{
name = top;
pos = (112,700);
}
);
layerId = m004;
shapes = (
{
closed = 1;
nodes = (
(166,700,l),
(70,700,l),
(70,0,l),
(166,0,l)
);
},
{
pos = (82,0);
ref = "puzo-b";
}
);
width = 560;
},
{
anchors = (
{
name = bottom;
pos = (280,0);
},
{
name = top;
pos = (102,700);
}
);
layerId = m007;
shapes = (
{
closed = 1;
nodes = (
(126,700,l),
(86,700,l),
(86,0,l),
(126,0,l)
);
},
{
pos = (62,0);
ref = "puzo-b";
}
);
width = 560;
}
);
metricLeft = n;
metricRight = o;
unicode = 98;
},
{
color = 9;
glyphname = c;
kernLeft = o;
kernRight = c;
lastChange = "2025-12-03 09:35:59 +0000";
layers = (
{
anchors = (
{
name = bottom;
pos = (270,0);
},
{
name = top;
pos = (270,500);
}
);
guides = (
{
pos = (-8,330);
},
{
pos = (-8,170);
}
);
layerId = m003;
shapes = (
{
closed = 1;
nodes = (
(400,-12,o),
(480,62,o),
(484,170,c),
(314,170,l),
(314,148,o),
(300,128,o),
(272,128,cs),
(268,128,ls),
(224,128,o),
(204,168,o),
(204,248,cs),
(204,252,ls),
(204,332,o),
(226,372,o),
(268,372,cs),
(272,372,ls),
(300,372,o),
(314,352,o),
(314,330,c),
(484,330,l),
(480,438,o),
(400,512,o),
(272,512,cs),
(268,512,ls),
(116,512,o),
(22,412,o),
(22,252,cs),
(22,248,ls),
(22,88,o),
(118,-12,o),
(268,-12,cs),
(272,-12,ls)
);
}
);
width = 500;
},
{
anchors = (
{
name = bottom;
pos = (270,0);
},
{
name = top;
pos = (270,500);
}
);
guides = (
{
pos = (-8,350);
},
{
pos = (-8,150);
}
);
layerId = m004;
shapes = (
{
closed = 1;
nodes = (
(396,-12,o),
(464,70,o),
(468,150,c),
(376,150,l),
(372,110,o),
(338,76,o),
(276,76,cs),
(272,76,ls),
(190,76,o),
(140,136,o),
(140,248,cs),
(140,252,ls),
(140,364,o),
(190,424,o),
(272,424,cs),
(276,424,ls),
(338,424,o),
(372,390,o),
(376,350,c),
(468,350,l),
(464,430,o),
(396,512,o),
(276,512,cs),
(272,512,ls),
(150,512,o),
(44,426,o),
(44,252,cs),
(44,248,ls),
(44,74,o),
(152,-12,o),
(272,-12,cs),
(276,-12,ls)
);
}
);
width = 500;
},
{
anchors = (
{
name = bottom;
pos = (270,0);
},
{
name = top;
pos = (270,500);
}
);
guides = (
{
pos = (-8,360);
},
{
pos = (-8,140);
}
);
layerId = m007;
shapes = (
{
closed = 1;
nodes = (
(392,-12,o),
(454,60,o),
(460,140,c),
(420,140,l),
(414,88,o),
(376,28,o),
(276,28,cs),
(272,28,ls),
(170,28,o),
(96,104,o),
(96,248,cs),
(96,252,ls),
(96,396,o),
(170,472,o),
(272,472,cs),
(276,472,ls),
(376,472,o),
(414,412,o),
(420,360,c),
(460,360,l),
(454,440,o),
(392,512,o),
(276,512,cs),
(272,512,ls),
(150,512,o),
(56,424,o),
(56,252,cs),
(56,248,ls),
(56,76,o),
(150,-12,o),
(272,-12,cs),
(276,-12,ls)
);
}
);
width = 500;
}
);
metricLeft = o;
unicode = 99;
userData = {
KernOnName = c;
};
},
{
color = 8;
glyphname = eth;
kernLeft = delta;
kernRight = delta;
lastChange = "2025-11-28 20:17:32 +0000";
layers = (
{
layerId = m003;
shapes = (
{
closed = 1;
nodes = (
(264,510,l),
(478,750,l),
(358,750,l),
(146,510,l)
);
},
{
ref = partialdiff;
}
);
width = 560;
},
{
layerId = m004;
shapes = (
{
closed = 1;
nodes = (
(256,540,l),
(454,750,l),
(358,750,l),
(158,540,l)
);
},
{
ref = partialdiff;
}
);
width = 560;
},
{
layerId = m007;
shapes = (
{
closed = 1;
nodes = (
(232,540,l),
(430,750,l),
(378,750,l),
(180,540,l)
);
},
{
ref = partialdiff;
}
);
width = 560;
}
);
metricLeft = o;
metricRight = upsilon;
unicode = 240;
},
{
color = 9;
glyphname = e;
kernLeft = o;
kernRight = o;
lastChange = "2025-12-03 09:29:02 +0000";
layers = (
{
anchors = (
{
name = bottom;
pos = (276,0);
},
{
name = ogonek;
pos = (232,0);
},
{
name = top;
pos = (276,500);
}
);
guides = (
{
pos = (-8,170);
}
);
layerId = m003;
shapes = (
{
closed = 1;
nodes = (
(422,-12,o),
(506,62,o),
(516,170,c),
(348,170,l),
(344,136,o),
(322,118,o),
(284,118,cs),
(280,118,ls),
(212,118,o),
(196,181,o),
(196,242,cs),
(196,262,ls),
(196,329,o),
(214,386,o),
(276,386,cs),
(280,386,ls),
(322,386,o),
(346,356,o),
(346,306,c),
(130,306,l),
(130,194,l),
(518,194,l),
(518,252,ls),
(518,412,o),
(432,512,o),
(280,512,cs),
(276,512,ls),
(122,512,o),
(22,412,o),
(22,252,cs),
(22,248,ls),
(22,96,o),
(110,-12,o),
(280,-12,cs),
(284,-12,ls)
);
}
);
width = 540;
},
{
anchors = (
{
name = bottom;
pos = (276,0);
},
{
name = ogonek;
pos = (270,0);
},
{
name = top;
pos = (276,500);
}
);
guides = (
{
pos = (-8,150);
}
);
layerId = m004;
shapes = (
{
closed = 1;
nodes = (
(408,-12,o),
(478,60,o),
(490,150,c),
(396,150,l),
(388,108,o),
(350,72,o),
(280,72,cs),
(276,72,ls),
(180,72,o),
(140,138,o),
(140,242,cs),
(140,258,ls),
(140,360,o),
(174,428,o),
(274,428,cs),
(278,428,ls),
(352,428,o),
(398,380,o),
(398,290,c),
(104,290,l),
(104,210,l),
(496,210,l),
(496,252,ls),
(496,438,o),
(390,512,o),
(276,512,cs),
(272,512,ls),
(130,512,o),
(44,414,o),
(44,252,cs),
(44,248,ls),
(44,86,o),
(136,-12,o),
(278,-12,cs),
(282,-12,ls)
);
}
);
width = 540;
},
{
anchors = (
{
name = bottom;
pos = (276,0);
},
{
name = ogonek;
pos = (306,0);
},
{
name = top;
pos = (276,500);
}
);
guides = (
{
pos = (-8,140);
}
);
layerId = m007;
shapes = (
{
closed = 1;
nodes = (
(408,-12,o),
(468,72,o),
(476,140,c),
(436,140,l),
(428,84,o),
(374,28,o),
(284,28,cs),
(280,28,ls),
(164,28,o),
(96,99,o),
(96,244,cs),
(96,258,ls),
(96,383,o),
(148,472,o),
(274,472,cs),
(278,472,ls),
(382,472,o),
(444,400,o),
(444,270,c),
(80,270,l),
(80,230,l),
(484,230,l),
(484,252,ls),
(484,422,o),
(406,512,o),
(278,512,cs),
(274,512,ls),
(122,512,o),
(56,402,o),
(56,252,cs),
(56,248,ls),
(56,98,o),
(126,-12,o),
(280,-12,cs),
(284,-12,ls)
);
}
);
width = 540;
}
);
metricLeft = o;
metricRight = o;
unicode = 101;
userData = {
KernOnName = e;
};
},
{
color = 8;
glyphname = ezh;
kernLeft = tau;
kernRight = "n-des";
lastChange = "2025-12-03 10:59:16 +0000";
layers = (
{
anchors = (
{
name = bottom;
pos = (250,-200);
},
{
name = top;
pos = (250,500);
}
);
guides = (
{
pos = (-8,-20);
}
);
layerId = m003;
shapes = (
{
closed = 1;
nodes = (
(414,-212,o),
(502,-134,o),
(502,6,cs),
(502,10,ls),
(502,160,o),
(412,224,o),
(312,230,c),
(486,390,l),
(486,500,l),
(22,500,l),
(22,362,l),
(278,362,l),
(100,196,l),
(100,108,l),
(206,108,ls),
(278,108,o),
(318,70,o),
(318,12,cs),
(318,8,ls),
(318,-44,o),
(302,-74,o),
(256,-74,cs),
(252,-74,ls),
(208,-74,o),
(192,-57,o),
(188,-20,c),
(12,-20,l),
(16,-153,o),
(116,-212,o),
(250,-212,cs),
(254,-212,ls)
);
}
);
width = 520;
},
{
anchors = (
{
name = bottom;
pos = (250,-200);
},
{
name = top;
pos = (250,500);
}
);
guides = (
{
pos = (-8,-50);
}
);
layerId = m004;
shapes = (
{
closed = 1;
nodes = (
(404,-212,o),
(482,-136,o),
(482,-2,cs),
(482,2,ls),
(482,146,o),
(400,212,o),
(270,216,c),
(476,428,l),
(476,500,l),
(32,500,l),
(32,412,l),
(350,412,l),
(150,204,l),
(150,130,l),
(210,130,ls),
(320,130,o),
(386,110,o),
(386,2,cs),
(386,-2,ls),
(386,-86,o),
(342,-124,o),
(258,-124,cs),
(254,-124,ls),
(194,-124,o),
(136,-111,o),
(128,-50,c),
(30,-50,l),
(34,-155,o),
(124,-212,o),
(254,-212,cs),
(258,-212,ls)
);
}
);
width = 520;
},
{
anchors = (
{
name = bottom;
pos = (250,-200);
},
{
name = top;
pos = (250,500);
}
);
guides = (
{
pos = (-8,-60);
}
);
layerId = m007;
shapes = (
{
closed = 1;
nodes = (
(376,-212,o),
(466,-136,o),
(466,-2,cs),
(466,2,ls),
(466,142,o),
(380,214,o),
(236,218,c),
(464,464,l),
(464,500,l),
(38,500,l),
(38,460,l),
(408,460,l),
(180,212,l),
(180,180,l),
(212,180,ls),
(352,180,o),
(426,128,o),
(426,2,cs),
(426,-2,ls),
(426,-94,o),
(368,-172,o),
(248,-172,cs),
(244,-172,ls),
(132,-172,o),
(82,-124,o),
(78,-60,c),
(38,-60,l),
(42,-150,o),
(114,-212,o),
(244,-212,cs),
(248,-212,ls)
);
}
);
width = 520;
}
);
unicode = 658;
},
{
color = 9;
glyphname = f;
kernLeft = t;
kernRight = f;
lastChange = "2025-12-01 13:53:05 +0000";
layers = (
{
anchors = (
{
name = top;
pos = (240,700);
}
);
layerId = m003;
shapes = (
{
closed = 1;
nodes = (
(394,358,l),
(394,500,l),
(12,500,l),
(12,358,l)
);
},
{
closed = 1;
nodes = (
(280,0,l),
(280,536,ls),
(280,554,o),
(290,566,o),
(308,566,cs),
(420,566,l),
(420,700,l),
(230,700,ls),
(142,700,o),
(96,656,o),
(96,568,cs),
(96,0,l)
);
}
);
width = 420;
},
{
anchors = (
{
name = top;
pos = (240,700);
}
);
layerId = m004;
shapes = (
{
closed = 1;
nodes = (
(372,412,l),
(372,500,l),
(30,500,l),
(30,412,l)
);
},
{
closed = 1;
nodes = (
(226,0,l),
(226,544,ls),
(226,592,o),
(248,612,o),
(298,612,cs),
(412,612,l),
(412,700,l),
(268,700,ls),
(174,700,o),
(130,658,o),
(130,570,cs),
(130,0,l)
);
}
);
width = 420;
},
{
anchors = (
{
name = top;
pos = (240,700);
}
);
layerId = m007;
shapes = (
{
closed = 1;
nodes = (
(364,460,l),
(364,500,l),
(36,500,l),
(36,460,l)
);
},
{
closed = 1;
nodes = (
(192,0,l),
(192,572,ls),
(192,630,o),
(222,660,o),
(280,660,cs),
(404,660,l),
(404,700,l),
(280,700,ls),
(192,700,o),
(152,660,o),
(152,572,cs),
(152,0,l)
);
}
);
width = 420;
}
);
metricLeft = tau;
unicode = 102;
userData = {
KernOnName = f;
};
},
{
color = 9;
glyphname = g;
kernLeft = o;
kernRight = "n-des";
lastChange = "2025-12-03 10:58:23 +0000";
layers = (
{
anchors = (
{
name = bottom;
pos = (280,-200);
},
{
name = top;
pos = (280,500);
}
);
guides = (
{
pos = (-8,-20);
}
);
layerId = m003;
shapes = (
{
closed = 1;
nodes = (
(436,-212,o),
(520,-140,o),
(520,28,cs),
(520,500,l),
(338,500,l),
(338,20,ls),
(338,-44,o),
(326,-80,o),
(270,-80,cs),
(264,-80,ls),
(220,-80,o),
(202,-61,o),
(198,-20,c),
(26,-20,l),
(30,-151,o),
(134,-212,o),
(266,-212,cs),
(272,-212,ls)
);
},
{
pos = (434,0);
ref = "puzo-g";
scale = (-1,1);
}
);
width = 560;
},
{
anchors = (
{
name = bottom;
pos = (280,-200);
},
{
name = top;
pos = (280,500);
}
);
guides = (
{
pos = (-8,-50);
}
);
layerId = m004;
shapes = (
{
closed = 1;
nodes = (
(430,-212,o),
(490,-134,o),
(490,24,cs),
(490,500,l),
(394,500,l),
(394,12,ls),
(394,-88,o),
(360,-124,o),
(264,-124,cs),
(260,-124,ls),
(192,-124,o),
(156,-96,o),
(148,-50,c),
(52,-50,l),
(56,-144,o),
(124,-212,o),
(262,-212,cs),
(266,-212,ls)
);
},
{
pos = (476,0);
ref = "puzo-g";
scale = (-1,1);
}
);
width = 560;
},
{
anchors = (
{
name = bottom;
pos = (280,-200);
},
{
name = top;
pos = (280,500);
}
);
guides = (
{
pos = (-8,-60);
},
{
pos = (-8,-60);
}
);
layerId = m007;
shapes = (
{
closed = 1;
nodes = (
(414,-212,o),
(474,-134,o),
(474,6,cs),
(474,500,l),
(434,500,l),
(434,4,ls),
(434,-114,o),
(384,-172,o),
(266,-172,cs),
(264,-172,ls),
(170,-172,o),
(112,-139,o),
(104,-60,c),
(64,-60,l),
(72,-169,o),
(152,-212,o),
(264,-212,cs),
(266,-212,ls)
);
},
{
pos = (498,0);
ref = "puzo-g";
scale = (-1,1);
}
);
width = 560;
}
);
metricLeft = o;
metricRight = u;
unicode = 103;
userData = {
KernOnName = g;
};
},
{
glyphname = g.cv02;
kernLeft = o;
kernRight = t;
lastChange = "2025-12-03 10:59:58 +0000";
layers = (
{
anchors = (
{
name = bottom;
pos = (250,-200);
},
{
name = top;
pos = (270,500);
}
);
layerId = m003;
shapes = (
{
closed = 1;
nodes = (
(465,-200,o),
(540,-154,o),
(540,-42,cs),
(540,-38,ls),
(540,72,o),
(452,120,o),
(332,120,cs),
(254,120,ls),
(233,120,o),
(220,126,o),
(220,142,cs),
(220,146,ls),
(220,160,o),
(232,168,o),
(254,168,cs),
(272,168,ls),
(431,168,o),
(502,224,o),
(502,316,cs),
(502,320,ls),
(502,348,o),
(494,368,o),
(486,386,c),
(548,386,l),
(548,500,l),
(270,500,ls),
(110,500,o),
(34,440,o),
(34,336,cs),
(34,332,ls),
(34,270,o),
(74,216,o),
(112,204,c),
(80,190,o),
(62,168,o),
(62,134,cs),
(62,130,ls),
(62,66,o),
(135,42,o),
(254,42,cs),
(348,42,l),
(348,-10,l),
(376,-10,o),
(392,-20,o),
(392,-38,cs),
(392,-42,ls),
(392,-62,o),
(375,-70,o),
(348,-70,cs),
(226,-70,ls),
(199,-70,o),
(182,-62,o),
(182,-42,cs),
(182,-38,ls),
(182,-20,o),
(198,-10,o),
(226,-10,cs),
(348,-10,l),
(348,96,l),
(104,96,o),
(32,62,o),
(32,-38,cs),
(32,-42,ls),
(32,-154,o),
(117,-200,o),
(242,-200,cs),
(332,-200,ls)
);
},
{
closed = 1;
nodes = (
(268,286,ls),
(236,286,o),
(214,302,o),
(214,332,cs),
(214,336,ls),
(214,364,o),
(234,384,o),
(268,384,cs),
(272,384,ls),
(304,384,o),
(328,364,o),
(328,336,cs),
(328,332,ls),
(328,302,o),
(306,286,o),
(272,286,cs)
);
}
);
width = 568;
},
{
anchors = (
{
name = bottom;
pos = (242,-200);
},
{
name = top;
pos = (270,500);
}
);
layerId = m004;
shapes = (
{
closed = 1;
nodes = (
(433,-200,o),
(510,-160,o),
(510,-54,cs),
(510,-50,ls),
(510,62,o),
(426,96,o),
(312,96,cs),
(210,96,ls),
(179,96,o),
(166,108,o),
(166,130,cs),
(166,134,ls),
(166,154,o),
(178,168,o),
(210,168,cs),
(270,168,ls),
(393,168,o),
(480,212,o),
(480,322,cs),
(480,326,ls),
(480,372,o),
(462,402,o),
(444,420,c),
(520,420,l),
(520,500,l),
(268,500,ls),
(134,500,o),
(56,440,o),
(56,334,cs),
(56,330,ls),
(56,264,o),
(88,220,o),
(126,200,c),
(92,186,o),
(78,160,o),
(78,130,cs),
(78,126,ls),
(78,60,o),
(139,46,o),
(210,46,cs),
(324,46,l),
(324,12,l),
(380,12,o),
(424,4,o),
(424,-50,cs),
(424,-54,ls),
(424,-108,o),
(379,-116,o),
(324,-116,cs),
(222,-116,ls),
(167,-116,o),
(122,-108,o),
(122,-54,cs),
(122,-50,ls),
(122,4,o),
(166,12,o),
(222,12,cs),
(324,12,l),
(324,84,l),
(172,84,o),
(36,84,o),
(36,-50,cs),
(36,-54,ls),
(36,-170,o),
(123,-200,o),
(234,-200,cs),
(312,-200,ls)
);
},
{
closed = 1;
nodes = (
(266,244,ls),
(198,244,o),
(152,270,o),
(152,330,cs),
(152,334,ls),
(152,394,o),
(198,420,o),
(266,420,cs),
(270,420,ls),
(340,420,o),
(386,394,o),
(386,334,cs),
(386,330,ls),
(386,268,o),
(336,244,o),
(270,244,cs)
);
}
);
width = 560;
},
{
anchors = (
{
name = bottom;
pos = (270,-200);
},
{
name = top;
pos = (270,500);
}
);
layerId = m007;
shapes = (
{
closed = 1;
nodes = (
(413,-200,o),
(490,-162,o),
(490,-60,cs),
(490,-56,ls),
(490,50,o),
(414,84,o),
(306,84,cs),
(188,84,ls),
(149,84,o),
(130,100,o),
(130,124,cs),
(130,128,ls),
(130,152,o),
(148,168,o),
(188,168,cs),
(268,168,ls),
(393,168,o),
(468,230,o),
(468,330,cs),
(468,334,ls),
(468,394,o),
(436,438,o),
(404,460,c),
(520,460,l),
(520,500,l),
(268,500,ls),
(142,500,o),
(70,436,o),
(70,336,cs),
(70,332,ls),
(70,246,o),
(118,208,o),
(154,194,c),
(120,188,o),
(90,164,o),
(90,126,cs),
(90,122,ls),
(90,76,o),
(121,58,o),
(184,58,cs),
(310,58,l),
(310,44,l),
(394,44,o),
(450,22,o),
(450,-56,cs),
(450,-60,ls),
(450,-138,o),
(391,-160,o),
(310,-160,cs),
(228,-160,ls),
(145,-160,o),
(88,-140,o),
(88,-60,cs),
(88,-56,ls),
(88,22,o),
(136,44,o),
(228,44,cs),
(310,44,l),
(310,80,l),
(168,80,o),
(48,78,o),
(48,-56,cs),
(48,-60,ls),
(48,-164,o),
(121,-200,o),
(230,-200,cs),
(306,-200,l)
);
},
{
closed = 1;
nodes = (
(266,208,ls),
(164,208,o),
(110,250,o),
(110,332,cs),
(110,336,ls),
(110,428,o),
(170,460,o),
(266,460,cs),
(270,460,ls),
(370,460,o),
(428,422,o),
(428,336,cs),
(428,332,ls),
(428,246,o),
(368,208,o),
(270,208,cs)
);
}
);
width = 560;
}
);
userData = {
KernOnName = g;
};
},
{
glyphname = g.ss05;
kernLeft = o;
kernRight = "a-des";
lastChange = "2025-12-03 10:58:33 +0000";
layers = (
{
anchors = (
{
name = bottom;
pos = (278,-200);
},
{
name = top;
pos = (278,500);
}
);
guides = (
{
pos = (-10,-20);
}
);
layerId = m003;
shapes = (
{
pos = (560,0);
ref = "puzo-full-small";
scale = (-1,1);
},
{
closed = 1;
nodes = (
(446,-212,o),
(530,-140,o),
(530,28,cs),
(530,222,l),
(346,222,l),
(346,20,ls),
(346,-50,o),
(334,-78,o),
(278,-78,cs),
(274,-78,ls),
(230,-78,o),
(212,-61,o),
(208,-20,c),
(34,-20,l),
(44,-153,o),
(142,-212,o),
(276,-212,cs),
(280,-212,ls)
);
}
);
width = 560;
},
{
anchors = (
{
name = bottom;
pos = (280,-200);
},
{
name = top;
pos = (280,500);
}
);
guides = (
{
pos = (-8,-50);
}
);
layerId = m004;
shapes = (
{
pos = (560,0);
ref = "puzo-full-small";
scale = (-1,1);
},
{
closed = 1;
nodes = (
(440,-212,o),
(498,-134,o),
(498,24,cs),
(498,252,l),
(404,252,l),
(404,12,ls),
(404,-86,o),
(368,-124,o),
(274,-124,cs),
(270,-124,ls),
(200,-124,o),
(166,-98,o),
(158,-50,c),
(62,-50,l),
(70,-148,o),
(138,-212,o),
(274,-212,cs),
(278,-212,ls)
);
}
);
width = 560;
},
{
anchors = (
{
name = bottom;
pos = (280,-200);
},
{
name = top;
pos = (280,500);
}
);
guides = (
{
pos = (-8,-60);
}
);
layerId = m007;
shapes = (
{
pos = (560,0);
ref = "puzo-full-small";
scale = (-1,1);
},
{
closed = 1;
nodes = (
(420,-212,o),
(480,-134,o),
(480,6,cs),
(480,260,l),
(440,260,l),
(440,4,ls),
(440,-114,o),
(390,-172,o),
(274,-172,cs),
(270,-172,ls),
(176,-172,o),
(118,-139,o),
(110,-60,c),
(70,-60,l),
(78,-169,o),
(158,-212,o),
(270,-212,cs),
(274,-212,ls)
);
}
);
width = 560;
}
);
metricLeft = o;
metricRight = a;
userData = {
KernOnName = g;
};
},
{
glyphname = gstroke.cv02;
kernLeft = o;
kernRight = t;
lastChange = "2025-12-01 13:15:42 +0000";
layers = (
{
layerId = m003;
shapes = (
{
ref = g.cv02;
},
{
closed = 1;
nodes = (
(548,302,l),
(548,362,l),
(250,362,l),
(250,302,l)
);
}
);
width = 560;
},
{
layerId = m004;
shapes = (
{
ref = g.cv02;
},
{
closed = 1;
nodes = (
(520,294,l),
(520,366,l),
(250,366,l),
(250,294,l)
);
}
);
width = 560;
},
{
layerId = m007;
shapes = (
{
ref = g.cv02;
},
{
closed = 1;
nodes = (
(524,310,l),
(524,350,l),
(250,350,l),
(250,310,l)
);
}
);
width = 560;
}
);
},
{
color = 9;
glyphname = h;
kernLeft = I;
kernRight = n;
lastChange = "2025-11-28 20:15:36 +0000";
layers = (
{
anchors = (
{
name = bottom;
pos = (284,0);
},
{
name = top;
pos = (134,700);
}
);
hints = (
{
horizontal = 1;
place = (0,21);
target = up;
type = BottomGhost;
},
{
horizontal = 1;
place = (52,142);
type = Stem;
},
{
horizontal = 1;
place = (0,-20);
target = down;
type = TopGhost;
},
{
place = (0,0);
type = Stem;
},
{
place = (0,0);
type = Stem;
}
);
layerId = m003;
shapes = (
{
closed = 1;
nodes = (
(224,0,l),
(224,700,l),
(40,700,l),
(40,0,l)
);
},
{
pos = (122,0);
ref = "puzo-n";
}
);
width = 560;
},
{
anchors = (
{
name = bottom;
pos = (284,0);
},
{
name = top;
pos = (120,700);
}
);
hints = (
{
horizontal = 1;
place = (0,21);
target = up;
type = BottomGhost;
},
{
horizontal = 1;
place = (249,90);
type = Stem;
},
{
horizontal = 1;
place = (309,-20);
target = down;
type = TopGhost;
},
{
place = (42,9);
type = Stem;
},
{
place = (195,9);
type = Stem;
}
);
layerId = m004;
shapes = (
{
closed = 1;
nodes = (
(166,0,l),
(166,700,l),
(70,700,l),
(70,0,l)
);
},
{
pos = (76,0);
ref = "puzo-n";
}
);
width = 560;
},
{
anchors = (
{
name = bottom;
pos = (281,0);
},
{
name = top;
pos = (105,700);
}
);
hints = (
{
horizontal = 1;
place = (0,21);
target = up;
type = BottomGhost;
},
{
horizontal = 1;
place = (446,38);
type = Stem;
},
{
horizontal = 1;
place = (617,-20);
target = down;
type = TopGhost;
},
{
place = (83,17);
type = Stem;
},
{
place = (390,17);
type = Stem;
}
);
layerId = m007;
shapes = (
{
closed = 1;
nodes = (
(126,0,l),
(126,700,l),
(86,700,l),
(86,0,l)
);
},
{
pos = (52,0);
ref = "puzo-n";
}
);
width = 560;
}
);
metricLeft = n;
metricRight = n;
unicode = 104;
},
{
color = 8;
glyphname = idotless;
kernLeft = n;
kernRight = n;
lastChange = "2025-11-28 20:15:33 +0000";
layers = (
{
anchors = (
{
name = bottom;
pos = (130,0);
},
{
name = ogonek;
pos = (90,0);
},
{
name = top;
pos = (130,500);
}
);
layerId = m003;
shapes = (
{
closed = 1;
nodes = (
(222,0,l),
(222,500,l),
(38,500,l),
(38,0,l)
);
}
);
width = 260;
},
{
anchors = (
{
name = bottom;
pos = (130,0);
},
{
name = ogonek;
pos = (86,0);
},
{
name = top;
pos = (130,500);
}
);
layerId = m004;
shapes = (
{
closed = 1;
nodes = (
(178,0,l),
(178,500,l),
(82,500,l),
(82,0,l)
);
}
);
width = 260;
},
{
anchors = (
{
name = bottom;
pos = (130,0);
},
{
name = ogonek;
pos = (110,0);
},
{
name = top;
pos = (130,500);
}
);
layerId = m007;
shapes = (
{
closed = 1;
nodes = (
(150,0,l),
(150,500,l),
(110,500,l),
(110,0,l)
);
}
);
width = 260;
}
);
unicode = 305;
},
{
color = 8;
glyphname = jdotless;
kernLeft = "j-n";
kernRight = "n-des";
lastChange = "2025-12-01 13:54:30 +0000";
layers = (
{
anchors = (
{
name = bottom;
pos = (80,-200);
},
{
name = top;
pos = (130,500);
}
);
layerId = m003;
shapes = (
{
closed = 1;
nodes = (
(38,500,l),
(38,-28,ls),
(38,-46,o),
(26,-58,o),
(8,-58,cs),
(-60,-58,l),
(-60,-200,l),
(90,-200,ls),
(178,-200,o),
(222,-154,o),
(222,-66,cs),
(222,500,l)
);
}
);
width = 260;
},
{
anchors = (
{
name = bottom;
pos = (80,-200);
},
{
name = top;
pos = (130,500);
}
);
layerId = m004;
shapes = (
{
closed = 1;
nodes = (
(82,500,l),
(82,-48,ls),
(82,-90,o),
(62,-112,o),
(16,-112,cs),
(-60,-112,l),
(-60,-200,l),
(46,-200,ls),
(134,-200,o),
(178,-156,o),
(178,-68,cs),
(178,500,l)
);
}
);
width = 260;
},
{
anchors = (
{
name = bottom;
pos = (80,-200);
},
{
name = top;
pos = (130,500);
}
);
layerId = m007;
shapes = (
{
closed = 1;
nodes = (
(110,500,l),
(110,-72,ls),
(110,-130,o),
(80,-160,o),
(22,-160,cs),
(-60,-160,l),
(-60,-200,l),
(22,-200,ls),
(110,-200,o),
(150,-160,o),
(150,-72,cs),
(150,500,l)
);
}
);
width = 260;
}
);
metricRight = idotless;
unicode = 567;
},
{
glyphname = jdotless.ss03;
kernLeft = n;
kernRight = "n-des";
lastChange = "2025-11-28 20:15:27 +0000";
layers = (
{
anchors = (
{
name = bottom;
pos = (130,-200);
},
{
name = top;
pos = (130,500);
}
);
layerId = m003;
shapes = (
{
closed = 1;
nodes = (
(222,-200,l),
(222,500,l),
(38,500,l),
(38,-200,l)
);
}
);
width = 260;
},
{
anchors = (
{
name = bottom;
pos = (130,-200);
},
{
name = top;
pos = (130,500);
}
);
layerId = m004;
shapes = (
{
closed = 1;
nodes = (
(178,-200,l),
(178,500,l),
(82,500,l),
(82,-200,l)
);
}
);
width = 260;
},
{
anchors = (
{
name = bottom;
pos = (130,-200);
},
{
name = top;
pos = (130,500);
}
);
layerId = m007;
shapes = (
{
closed = 1;
nodes = (
(150,-200,l),
(150,500,l),
(110,500,l),
(110,-200,l)
);
}
);
width = 260;
}
);
metricLeft = idotless;
metricRight = idotless;
},
{
color = 9;
glyphname = k;
kernLeft = I;
kernRight = x;
lastChange = "2025-12-01 15:02:31 +0000";
layers = (
{
anchors = (
{
name = bottom;
pos = (280,0);
},
{
name = top;
pos = (135,700);
}
);
layerId = m003;
shapes = (
{
closed = 1;
nodes = (
(220,0,l),
(220,700,l),
(40,700,l),
(40,0,l)
);
},
{
ref = kgreenlandic;
}
);
width = 560;
},
{
anchors = (
{
name = bottom;
pos = (280,0);
},
{
name = top;
pos = (121,700);
}
);
layerId = m004;
shapes = (
{
closed = 1;
nodes = (
(166,0,l),
(166,700,l),
(70,700,l),
(70,0,l)
);
},
{
ref = kgreenlandic;
}
);
width = 560;
},
{
anchors = (
{
name = bottom;
pos = (280,0);
},
{
name = top;
pos = (105,700);
}
);
layerId = m007;
shapes = (
{
closed = 1;
nodes = (
(126,0,l),
(126,700,l),
(86,700,l),
(86,0,l)
);
},
{
ref = kgreenlandic;
}
);
width = 560;
}
);
metricLeft = n;
metricRight = x;
unicode = 107;
userData = {
KernOnName = k;
};
},
{
glyphname = k.cv07;
kernLeft = I;
kernRight = x;
lastChange = "2025-12-01 15:01:34 +0000";
layers = (
{
anchors = (
{
name = bottom;
pos = (280,0);
},
{
name = top;
pos = (135,700);
}
);
layerId = m003;
shapes = (
{
closed = 1;
nodes = (
(224,0,l),
(224,700,l),
(40,700,l),
(40,0,l)
);
},
{
ref = kappa.cv07;
}
);
width = 580;
},
{
anchors = (
{
name = bottom;
pos = (280,0);
},
{
name = top;
pos = (121,700);
}
);
layerId = m004;
shapes = (
{
closed = 1;
nodes = (
(166,0,l),
(166,700,l),
(70,700,l),
(70,0,l)
);
},
{
ref = kappa.cv07;
}
);
width = 580;
},
{
anchors = (
{
name = bottom;
pos = (280,0);
},
{
name = top;
pos = (105,700);
}
);
layerId = m007;
shapes = (
{
closed = 1;
nodes = (
(126,0,l),
(126,700,l),
(86,700,l),
(86,0,l)
);
},
{
ref = kappa.cv07;
}
);
width = 580;
}
);
metricLeft = n;
userData = {
KernOnName = k;
};
},
{
color = 8;
glyphname = kgreenlandic;
kernLeft = n;
kernRight = x;
lastChange = "2025-12-01 14:44:36 +0000";
layers = (
{
layerId = m003;
shapes = (
{
closed = 1;
nodes = (
(220,0,l),
(220,132,l),
(246,174,l),
(340,0,l),
(548,0,l),
(390,284,l),
(548,500,l),
(360,500,l),
(220,318,l),
(220,500,l),
(40,500,l),
(40,0,l)
);
}
);
width = 560;
},
{
layerId = m004;
shapes = (
{
closed = 1;
nodes = (
(166,0,l),
(166,156,l),
(246,234,l),
(416,0,l),
(534,0,l),
(328,296,l),
(534,500,l),
(408,500,l),
(166,266,l),
(166,500,l),
(70,500,l),
(70,0,l)
);
}
);
width = 560;
},
{
layerId = m007;
shapes = (
{
closed = 1;
nodes = (
(126,0,l),
(126,160,l),
(254,266,l),
(472,0,l),
(522,0,l),
(286,294,l),
(524,500,l),
(466,500,l),
(126,208,l),
(126,500,l),
(86,500,l),
(86,0,l)
);
}
);
width = 560;
}
);
metricLeft = n;
metricRight = x;
unicode = 312;
},
{
color = 9;
glyphname = l;
kernLeft = I;
kernRight = I;
lastChange = "2025-12-01 18:37:14 +0000";
layers = (
{
anchors = (
{
name = _topright;
pos = (250,700);
},
{
name = bottom;
pos = (130,0);
},
{
name = top;
pos = (130,700);
}
);
layerId = m003;
shapes = (
{
closed = 1;
nodes = (
(222,0,l),
(222,700,l),
(38,700,l),
(38,0,l)
);
}
);
width = 260;
},
{
anchors = (
{
name = _topright;
pos = (250,700);
},
{
name = bottom;
pos = (130,0);
},
{
name = top;
pos = (130,700);
}
);
layerId = m004;
shapes = (
{
closed = 1;
nodes = (
(178,0,l),
(178,700,l),
(82,700,l),
(82,0,l)
);
}
);
width = 260;
},
{
anchors = (
{
name = _topright;
pos = (250,700);
},
{
name = bottom;
pos = (130,0);
},
{
name = top;
pos = (130,700);
}
);
layerId = m007;
shapes = (
{
closed = 1;
nodes = (
(150,0,l),
(150,700,l),
(110,700,l),
(110,0,l)
);
}
);
width = 260;
}
);
metricLeft = idotless;
metricRight = idotless;
unicode = 108;
},
{
glyphname = l.ss02;
kernLeft = I;
kernRight = "l-tail";
lastChange = "2025-12-01 18:37:06 +0000";
layers = (
{
anchors = (
{
name = _topright;
pos = (250,700);
},
{
name = bottom;
pos = (183,0);
},
{
name = top;
pos = (130,700);
}
);
layerId = m003;
shapes = (
{
closed = 1;
nodes = (
(38,134,ls),
(38,46,o),
(84,0,o),
(172,0,cs),
(288,0,l),
(288,150,l),
(252,150,ls),
(230,150,o),
(222,160,o),
(222,178,cs),
(222,700,l),
(38,700,l)
);
}
);
width = 300;
},
{
anchors = (
{
name = _topright;
pos = (240,700);
},
{
name = bottom;
pos = (191,0);
},
{
name = top;
pos = (121,700);
}
);
layerId = m004;
shapes = (
{
closed = 1;
nodes = (
(72,132,ls),
(72,44,o),
(116,0,o),
(204,0,cs),
(270,0,l),
(270,88,l),
(234,88,ls),
(192,88,o),
(168,110,o),
(168,152,cs),
(168,700,l),
(72,700,l)
);
}
);
width = 300;
},
{
anchors = (
{
name = _topright;
pos = (210,700);
},
{
name = bottom;
pos = (193,0);
},
{
name = top;
pos = (113,700);
}
);
layerId = m007;
shapes = (
{
closed = 1;
nodes = (
(94,128,ls),
(94,40,o),
(134,0,o),
(222,0,cs),
(264,0,l),
(264,40,l),
(222,40,ls),
(164,40,o),
(134,70,o),
(134,128,cs),
(134,700,l),
(94,700,l)
);
}
);
width = 300;
}
);
metricRight = tau;
},
{
color = 8;
glyphname = ldot;
kernLeft = I;
kernRight = O;
lastChange = "2025-11-28 17:01:10 +0000";
layers = (
{
layerId = m003;
shapes = (
{
alignment = -1;
ref = l;
},
{
closed = 1;
nodes = (
(242,297.333,o),
(268,255,o),
(312,255,cs),
(320,255,ls),
(364,255,o),
(387,299.333,o),
(387,362,cs),
(387,423.333,o),
(361.333,465,o),
(316,465,cs),
(308,465,ls),
(264,465,o),
(242,421.333,o),
(242,360,cs)
);
}
);
width = 400;
},
{
layerId = m004;
shapes = (
{
alignment = -1;
ref = l;
},
{
closed = 1;
nodes = (
(214,322.667,o),
(233.333,296,o),
(268,296,cs),
(274,296,ls),
(308.667,296,o),
(328,322,o),
(328,362,cs),
(328,399.333,o),
(306.667,426,o),
(272,426,cs),
(266,426,ls),
(231.333,426,o),
(214,397.333,o),
(214,360,cs)
);
}
);
width = 400;
},
{
layerId = m007;
shapes = (
{
alignment = -1;
ref = l;
},
{
closed = 1;
nodes = (
(204.667,336,o),
(218.667,320.667,o),
(240,322,cs),
(244,322,ls),
(265.333,320.667,o),
(278,337.333,o),
(278,360,cs),
(278,384,o),
(264,398.667,o),
(244,400,cs),
(240,400,ls),
(218.667,398.667,o),
(204.667,384,o),
(206,360,c)
);
}
);
width = 400;
}
);
metricLeft = l;
unicode = 320;
},
{
glyphname = ldot.ss02;
kernLeft = I;
kernRight = O;
lastChange = "2025-11-28 17:01:10 +0000";
layers = (
{
layerId = m003;
shapes = (
{
alignment = -1;
ref = l.ss02;
},
{
closed = 1;
nodes = (
(242,288.667,o),
(269.333,244,o),
(312,244,cs),
(318,244,ls),
(360.667,244,o),
(388,288.667,o),
(388,350,cs),
(388,411.333,o),
(360.667,456,o),
(318,456,cs),
(312,456,ls),
(269.333,456,o),
(242,411.333,o),
(242,350,cs)
);
}
);
width = 400;
},
{
layerId = m004;
shapes = (
{
alignment = -1;
ref = l.ss02;
},
{
closed = 1;
nodes = (
(214,312.667,o),
(233.333,286,o),
(268,286,cs),
(274,286,ls),
(308.667,286,o),
(328,310,o),
(328,350,cs),
(328,387.333,o),
(308.667,414,o),
(274,414,cs),
(268,414,ls),
(233.333,414,o),
(214,387.333,o),
(214,350,cs)
);
}
);
width = 400;
},
{
layerId = m007;
shapes = (
{
alignment = -1;
ref = l.ss02;
},
{
closed = 1;
nodes = (
(208,326,o),
(220.667,312,o),
(242,312,cs),
(246,312,ls),
(267.333,312,o),
(280,328.667,o),
(280,350,cs),
(280,374,o),
(267.333,388,o),
(246,388,cs),
(242,388,ls),
(220.667,388,o),
(208,374,o),
(208,350,cs)
);
}
);
width = 400;
}
);
metricLeft = l.ss02;
},
{
color = 8;
glyphname = lslash;
kernLeft = I;
kernRight = I;
lastChange = "2025-11-28 20:15:10 +0000";
layers = (
{
layerId = m003;
shapes = (
{
closed = 1;
nodes = (
(300,349,l),
(300,477,l),
(0,351,l),
(0,223,l)
);
},
{
alignment = -1;
pos = (21,0);
ref = l;
}
);
width = 300;
},
{
layerId = m004;
shapes = (
{
closed = 1;
nodes = (
(292,364,l),
(292,450,l),
(10,336,l),
(10,250,l)
);
},
{
alignment = -1;
pos = (21,0);
ref = l;
}
);
width = 300;
},
{
layerId = m007;
shapes = (
{
closed = 1;
nodes = (
(284,378,l),
(284,424,l),
(18,322,l),
(18,276,l)
);
},
{
alignment = -1;
pos = (22,0);
ref = l;
}
);
width = 300;
}
);
unicode = 322;
},
{
glyphname = lslash.ss02;
kernLeft = I;
kernRight = "l-tail";
lastChange = "2025-11-28 20:15:07 +0000";
layers = (
{
layerId = m003;
shapes = (
{
closed = 1;
nodes = (
(307,349,l),
(307,477,l),
(0,351,l),
(0,223,l)
);
},
{
alignment = -1;
pos = (20,0);
ref = l.ss02;
}
);
width = 320;
},
{
layerId = m004;
shapes = (
{
closed = 1;
nodes = (
(290,364,l),
(290,450,l),
(10,336,l),
(10,250,l)
);
},
{
alignment = -1;
pos = (20,0);
ref = l.ss02;
}
);
width = 320;
},
{
layerId = m007;
shapes = (
{
closed = 1;
nodes = (
(284,380,l),
(284,422,l),
(18,320,l),
(18,278,l)
);
},
{
alignment = -1;
pos = (20,0);
ref = l.ss02;
}
);
width = 320;
}
);
metricRight = tau;
},
{
color = 9;
glyphname = m;
kernLeft = n;
kernRight = n;
lastChange = "2025-11-28 20:15:04 +0000";
layers = (
{
anchors = (
{
name = bottom;
pos = (433,0);
},
{
name = top;
pos = (433,500);
}
);
layerId = m003;
shapes = (
{
closed = 1;
nodes = (
(224,0,l),
(224,500,l),
(40,500,l),
(40,0,l)
);
},
{
pos = (154,0);
ref = "puzo-m";
}
);
width = 840;
},
{
anchors = (
{
name = bottom;
pos = (423,0);
},
{
name = top;
pos = (423,500);
}
);
layerId = m004;
shapes = (
{
closed = 1;
nodes = (
(166,0,l),
(166,500,l),
(70,500,l),
(70,0,l)
);
},
{
pos = (116,0);
ref = "puzo-m";
}
);
width = 840;
},
{
anchors = (
{
name = bottom;
pos = (422,0);
},
{
name = top;
pos = (422,500);
}
);
layerId = m007;
shapes = (
{
closed = 1;
nodes = (
(126,0,l),
(126,500,l),
(86,500,l),
(86,0,l)
);
},
{
pos = (90,0);
ref = "puzo-m";
}
);
width = 840;
}
);
metricLeft = n;
metricRight = n;
unicode = 109;
},
{
glyphname = m.ss05;
kernLeft = rho;
kernRight = a;
lastChange = "2025-12-03 08:51:11 +0000";
layers = (
{
anchors = (
{
name = bottom;
pos = (420,0);
},
{
name = top;
pos = (411,500);
}
);
layerId = m003;
shapes = (
{
closed = 1;
nodes = (
(214,0,l),
(214,300,ls),
(214,336,o),
(230,358,o),
(264,358,cs),
(268,358,ls),
(301.863,358,o),
(320,337.367,o),
(320,300,cs),
(320,0,l),
(504,0,l),
(504,300,ls),
(504,339,o),
(520,358,o),
(554,358,cs),
(558,358,ls),
(592.224,358,o),
(610,336.323,o),
(610,300,cs),
(610,0,l),
(794,0,l),
(794,304,ls),
(794,447.083,o),
(704.781,512,o),
(586,512,cs),
(582,512,ls),
(506,512,o),
(445,481,o),
(414,428,c),
(378.915,482.577,o),
(317.974,512,o),
(240,512,cs),
(236,512,ls),
(118,512,o),
(30,446,o),
(30,304,cs),
(30,0,l)
);
}
);
width = 824;
},
{
anchors = (
{
name = bottom;
pos = (411,0);
},
{
name = top;
pos = (410,500);
}
);
layerId = m004;
shapes = (
{
closed = 1;
nodes = (
(158,0,l),
(158,312,ls),
(158,393,o),
(198,424,o),
(256,424,cs),
(260,424,ls),
(320.93,424,o),
(362,393.586,o),
(362,312,cs),
(362,0,l),
(458,0,l),
(458,312,ls),
(458,393,o),
(498,424,o),
(558,424,cs),
(562,424,ls),
(626.036,424,o),
(662,391.255,o),
(662,312,cs),
(662,0,l),
(758,0,l),
(758,326,ls),
(758,465.636,o),
(668.032,512,o),
(574,512,cs),
(570,512,ls),
(478,512,o),
(430,470,o),
(410,424,c),
(390,470,o),
(342,512,o),
(250,512,cs),
(246,512,ls),
(140,512,o),
(62,454,o),
(62,326,cs),
(62,0,l)
);
}
);
width = 820;
},
{
anchors = (
{
name = bottom;
pos = (410,0);
},
{
name = top;
pos = (410,500);
}
);
layerId = m007;
shapes = (
{
closed = 1;
nodes = (
(120,0,l),
(120,332,ls),
(120,434,o),
(176,472,o),
(252,472,cs),
(256,472,ls),
(324.75,472,o),
(390,440.642,o),
(390,332,cs),
(390,0,l),
(430,0,l),
(430,332,ls),
(430,434,o),
(486,472,o),
(564,472,cs),
(568,472,ls),
(639.333,472,o),
(700,439.468,o),
(700,332,cs),
(700,0,l),
(740,0,l),
(740,338,ls),
(740,462.042,o),
(670.58,512,o),
(570,512,cs),
(566,512,ls),
(478,512,o),
(428,466,o),
(410,426,c),
(396.663,466.011,o),
(340.607,512,o),
(254,512,cs),
(250,512,ls),
(150,512,o),
(80,458,o),
(80,338,cs),
(80,0,l)
);
}
);
width = 820;
}
);
metricLeft = upsilon;
metricRight = upsilon;
},
{
color = 9;
glyphname = n;
kernLeft = n;
kernRight = n;
lastChange = "2025-11-28 20:14:34 +0000";
layers = (
{
anchors = (
{
name = bottom;
pos = (280,0);
},
{
name = top;
pos = (280,500);
}
);
hints = (
{
origin = (0,2);
target = (0,1);
type = Stem;
},
{
place = (0,0);
type = Stem;
},
{
horizontal = 1;
origin = (0,1);
target = (0,1);
type = Stem;
}
);
layerId = m003;
shapes = (
{
closed = 1;
nodes = (
(224,0,l),
(224,500,l),
(40,500,l),
(40,0,l)
);
},
{
pos = (122,0);
ref = "puzo-n";
}
);
width = 560;
},
{
anchors = (
{
name = bottom;
pos = (280,0);
},
{
name = top;
pos = (280,500);
}
);
hints = (
{
origin = (0,2);
target = (0,1);
type = Stem;
},
{
place = (189,9);
type = Stem;
},
{
horizontal = 1;
origin = (0,1);
target = (0,1);
type = Stem;
}
);
layerId = m004;
shapes = (
{
closed = 1;
nodes = (
(166,0,l),
(166,500,l),
(70,500,l),
(70,0,l)
);
},
{
pos = (76,0);
ref = "puzo-n";
}
);
width = 560;
},
{
anchors = (
{
name = bottom;
pos = (280,0);
},
{
name = top;
pos = (280,500);
}
);
hints = (
{
origin = (0,2);
target = (0,1);
type = Stem;
},
{
place = (377,17);
type = Stem;
},
{
horizontal = 1;
origin = (0,1);
target = (0,1);
type = Stem;
}
);
layerId = m007;
shapes = (
{
closed = 1;
nodes = (
(126,0,l),
(126,500,l),
(86,500,l),
(86,0,l)
);
},
{
pos = (52,0);
ref = "puzo-n";
}
);
width = 560;
}
);
unicode = 110;
userData = {
KernOnName = n;
};
},
{
color = 9;
glyphname = o;
kernLeft = o;
kernRight = o;
lastChange = "2025-12-03 09:11:32 +0000";
layers = (
{
anchors = (
{
name = bottom;
pos = (280,0);
},
{
name = top;
pos = (280,500);
}
);
layerId = m003;
shapes = (
{
closed = 1;
nodes = (
(438,-12,o),
(538,86,o),
(538,248,cs),
(538,252,ls),
(538,414,o),
(438,512,o),
(282,512,cs),
(278,512,ls),
(122,512,o),
(22,414,o),
(22,252,cs),
(22,248,ls),
(22,86,o),
(122,-12,o),
(278,-12,cs),
(282,-12,ls)
);
},
{
closed = 1;
nodes = (
(278,138,ls),
(228,138,o),
(206,178,o),
(206,248,cs),
(206,252,ls),
(206,322,o),
(228,362,o),
(278,362,cs),
(282,362,ls),
(332,362,o),
(354,322,o),
(354,252,cs),
(354,248,ls),
(354,178,o),
(332,138,o),
(282,138,cs)
);
}
);
width = 560;
},
{
anchors = (
{
name = bottom;
pos = (280,0);
},
{
name = top;
pos = (280,500);
}
);
layerId = m004;
shapes = (
{
closed = 1;
nodes = (
(426,-12,o),
(516,86,o),
(516,248,cs),
(516,252,ls),
(516,414,o),
(426,512,o),
(282,512,cs),
(278,512,ls),
(134,512,o),
(44,414,o),
(44,252,cs),
(44,248,ls),
(44,86,o),
(134,-12,o),
(278,-12,cs),
(282,-12,ls)
);
},
{
closed = 1;
nodes = (
(278,76,ls),
(190,76,o),
(140,136,o),
(140,248,cs),
(140,252,ls),
(140,364,o),
(190,424,o),
(278,424,cs),
(282,424,ls),
(370,424,o),
(420,364,o),
(420,252,cs),
(420,248,ls),
(420,136,o),
(370,76,o),
(282,76,cs)
);
}
);
width = 560;
},
{
anchors = (
{
name = bottom;
pos = (280,0);
},
{
name = top;
pos = (280,500);
}
);
layerId = m007;
shapes = (
{
closed = 1;
nodes = (
(408,-12,o),
(504,76,o),
(504,248,cs),
(504,252,ls),
(504,424,o),
(408,512,o),
(282,512,cs),
(278,512,ls),
(152,512,o),
(56,424,o),
(56,252,cs),
(56,248,ls),
(56,76,o),
(152,-12,o),
(278,-12,cs),
(282,-12,ls)
);
},
{
closed = 1;
nodes = (
(278,28,ls),
(170,28,o),
(96,104,o),
(96,248,cs),
(96,252,ls),
(96,396,o),
(170,472,o),
(278,472,cs),
(282,472,ls),
(390,472,o),
(464,396,o),
(464,252,cs),
(464,248,ls),
(464,104,o),
(390,28,o),
(282,28,cs)
);
}
);
width = 560;
}
);
unicode = 111;
userData = {
KernOnName = o;
};
},
{
color = 8;
glyphname = ohorn;
kernLeft = o;
kernRight = "o-horn";
lastChange = "2025-11-28 20:14:30 +0000";
layers = (
{
anchors = (
{
name = top;
pos = (280,500);
}
);
layerId = m003;
shapes = (
{
alignment = -1;
ref = o;
},
{
pos = (340,-200);
ref = horncomb;
},
{
closed = 1;
nodes = (
(272,500,l),
(272,388,l),
(356,388,l),
(356,500,l)
);
}
);
width = 640;
},
{
anchors = (
{
name = top;
pos = (280,500);
}
);
layerId = m004;
shapes = (
{
alignment = -1;
ref = o;
},
{
pos = (392,-200);
ref = horncomb;
},
{
closed = 1;
nodes = (
(296,500,l),
(296,434,l),
(406,434,l),
(406,500,l)
);
}
);
width = 640;
},
{
anchors = (
{
name = top;
pos = (280,500);
}
);
layerId = m007;
shapes = (
{
alignment = -1;
ref = o;
},
{
pos = (430,-200);
ref = horncomb;
},
{
closed = 1;
nodes = (
(350,500,l),
(350,460,l),
(448,460,l),
(448,500,l)
);
}
);
width = 640;
}
);
metricLeft = o;
metricRight = tau;
unicode = 417;
},
{
color = 8;
glyphname = oslash;
kernLeft = o;
kernRight = o;
lastChange = "2025-11-28 20:14:26 +0000";
layers = (
{
anchors = (
{
name = top;
pos = (280,500);
}
);
layerId = m003;
shapes = (
{
closed = 1;
nodes = (
(135,0,l),
(536,500,l),
(428,500,l),
(27,0,l)
);
},
{
ref = o;
}
);
width = 560;
},
{
anchors = (
{
name = top;
pos = (280,500);
}
);
layerId = m004;
shapes = (
{
closed = 1;
nodes = (
(144,0,l),
(511,500,l),
(424,500,l),
(54,0,l)
);
},
{
ref = o;
}
);
width = 560;
},
{
anchors = (
{
name = top;
pos = (280,500);
}
);
layerId = m007;
shapes = (
{
closed = 1;
nodes = (
(110,0,l),
(504,500,l),
(454,500,l),
(60,0,l)
);
},
{
ref = o;
}
);
width = 560;
}
);
metricLeft = o;
metricRight = o;
unicode = 248;
},
{
color = 8;
glyphname = oe;
kernLeft = o;
kernRight = o;
lastChange = "2025-12-03 09:35:11 +0000";
layers = (
{
anchors = (
{
name = bottom;
pos = (420,0);
},
{
name = top;
pos = (420,500);
}
);
guides = (
{
pos = (-8,170);
}
);
layerId = m003;
shapes = (
{
closed = 1;
nodes = (
(256,-12,ls),
(342,-12,o),
(392,22,o),
(416,60,c),
(444,24,o),
(500,-12,o),
(590,-12,cs),
(594,-12,ls),
(724,-12,o),
(806,62,o),
(816,170,c),
(650,170,l),
(646,142,o),
(630,118,o),
(590,118,cs),
(586,118,ls),
(536,118,o),
(510,149,o),
(506,194,c),
(818,194,l),
(818,252,ls),
(818,418,o),
(728,512,o),
(594,512,cs),
(590,512,ls),
(496,512,o),
(446,476,o),
(418,436,c),
(390,476,o),
(338,512,o),
(256,512,cs),
(252,512,ls),
(110,512,o),
(22,410,o),
(22,252,cs),
(22,248,ls),
(22,96,o),
(106,-12,o),
(252,-12,cs)
);
},
{
closed = 1;
nodes = (
(214,138,o),
(192,178,o),
(192,248,cs),
(192,252,ls),
(192,324,o),
(216,364,o),
(262,364,cs),
(266,364,ls),
(312,364,o),
(332,322,o),
(332,252,cs),
(332,248,ls),
(332,180,o),
(314,138,o),
(266,138,cs),
(262,138,ls)
);
},
{
closed = 1;
nodes = (
(512,353,o),
(530,386,o),
(580,386,cs),
(584,386,ls),
(630,386,o),
(648,348,o),
(648,306,c),
(508,306,l)
);
}
);
width = 840;
},
{
anchors = (
{
name = bottom;
pos = (420,0);
},
{
name = top;
pos = (420,500);
}
);
guides = (
{
pos = (-8,150);
}
);
layerId = m004;
shapes = (
{
closed = 1;
nodes = (
(258,-12,ls),
(338,-12,o),
(390,24,o),
(420,92,c),
(448,24,o),
(512,-12,o),
(594,-12,cs),
(598,-12,ls),
(712,-12,o),
(780,54,o),
(790,150,c),
(696,150,l),
(688,104,o),
(658,72,o),
(596,72,cs),
(592,72,ls),
(514,72,o),
(476,133,o),
(472,210,c),
(796,210,l),
(796,252,ls),
(796,426,o),
(714,512,o),
(596,512,cs),
(592,512,ls),
(506,512,o),
(450,470,o),
(422,410,c),
(396,470,o),
(338,512,o),
(258,512,cs),
(254,512,ls),
(126,512,o),
(44,414,o),
(44,252,cs),
(44,248,ls),
(44,86,o),
(126,-12,o),
(254,-12,cs)
);
},
{
closed = 1;
nodes = (
(176,76,o),
(140,144,o),
(140,248,cs),
(140,252,ls),
(140,342,o),
(164,424,o),
(258,424,cs),
(262,424,ls),
(354,424,o),
(376,336,o),
(376,252,cs),
(376,248,ls),
(376,144,o),
(342,76,o),
(262,76,cs),
(258,76,ls)
);
},
{
closed = 1;
nodes = (
(474,367,o),
(510,428,o),
(590,428,cs),
(594,428,ls),
(666,428,o),
(700,380,o),
(700,290,c),
(474,290,l)
);
}
);
width = 840;
},
{
anchors = (
{
name = bottom;
pos = (420,0);
},
{
name = top;
pos = (420,500);
}
);
guides = (
{
pos = (-8,140);
}
);
layerId = m007;
shapes = (
{
closed = 1;
nodes = (
(258,-12,ls),
(366,-12,o),
(410,58,o),
(426,112,c),
(442,58,o),
(490,-12,o),
(600,-12,cs),
(604,-12,ls),
(702,-12,o),
(770,54,o),
(778,140,c),
(738,140,l),
(730,78,o),
(680,28,o),
(604,28,cs),
(600,28,ls),
(492,28,o),
(444,107,o),
(444,230,c),
(784,230,l),
(784,252,ls),
(784,404,o),
(732,512,o),
(602,512,cs),
(598,512,ls),
(490,512,o),
(442,444,o),
(426,388,c),
(406,444,o),
(366,512,o),
(258,512,cs),
(254,512,ls),
(110,512,o),
(56,390,o),
(56,252,cs),
(56,248,ls),
(56,102,o),
(118,-12,o),
(254,-12,cs)
);
},
{
closed = 1;
nodes = (
(152,28,o),
(96,110,o),
(96,248,cs),
(96,252,ls),
(96,372,o),
(140,472,o),
(254,472,cs),
(258,472,ls),
(362,472,o),
(406,394,o),
(406,252,cs),
(406,248,ls),
(406,106,o),
(362,28,o),
(258,28,cs),
(254,28,ls)
);
},
{
closed = 1;
nodes = (
(444,393,o),
(492,472,o),
(598,472,cs),
(602,472,ls),
(710,472,o),
(744,378,o),
(744,270,c),
(444,270,l)
);
}
);
width = 840;
}
);
metricLeft = o;
metricRight = o;
unicode = 339;
},
{
color = 8;
glyphname = thorn;
kernLeft = I;
kernRight = o;
lastChange = "2025-11-28 20:14:04 +0000";
layers = (
{
layerId = m003;
shapes = (
{
closed = 1;
nodes = (
(224,-200,l),
(224,140,l),
(40,140,l),
(40,-200,l)
);
},
{
alignment = -1;
ref = b;
}
);
width = 560;
},
{
layerId = m004;
shapes = (
{
closed = 1;
nodes = (
(166,-200,l),
(166,140,l),
(70,140,l),
(70,-200,l)
);
},
{
alignment = -1;
ref = b;
}
);
width = 560;
},
{
layerId = m007;
shapes = (
{
closed = 1;
nodes = (
(126,-200,l),
(126,140,l),
(86,140,l),
(86,-200,l)
);
},
{
alignment = -1;
ref = b;
}
);
width = 560;
}
);
metricLeft = n;
metricRight = o;
unicode = 254;
},
{
color = 9;
glyphname = r;
kernLeft = n;
kernRight = tau;
lastChange = "2025-12-01 13:52:25 +0000";
layers = (
{
anchors = (
{
name = bottom;
pos = (130,0);
},
{
name = top;
pos = (220,500);
}
);
layerId = m003;
shapes = (
{
closed = 1;
nodes = (
(224,0,l),
(224,242,ls),
(224,304,o),
(254,334,o),
(316,334,cs),
(388,334,l),
(388,500,l),
(344,500,ls),
(278,500,o),
(238,472,o),
(224,440,c),
(224,500,l),
(40,500,l),
(40,0,l)
);
}
);
width = 400;
},
{
anchors = (
{
name = bottom;
pos = (117,0);
},
{
name = top;
pos = (220,500);
}
);
layerId = m004;
shapes = (
{
closed = 1;
nodes = (
(166,0,l),
(166,252,ls),
(166,356,o),
(218,412,o),
(308,412,cs),
(370,412,l),
(370,500,l),
(316,500,ls),
(234,500,o),
(184,466,o),
(166,424,c),
(166,500,l),
(70,500,l),
(70,0,l)
);
}
);
width = 400;
},
{
anchors = (
{
name = bottom;
pos = (112,0);
},
{
name = top;
pos = (220,500);
}
);
layerId = m007;
shapes = (
{
closed = 1;
nodes = (
(126,0,l),
(126,258,ls),
(126,392,o),
(188,460,o),
(294,460,cs),
(364,460,l),
(364,500,l),
(298,500,ls),
(200,500,o),
(144,452,o),
(126,402,c),
(126,500,l),
(86,500,l),
(86,0,l)
);
}
);
width = 400;
}
);
metricLeft = n;
metricRight = tau;
unicode = 114;
userData = {
KernOnName = r;
};
},
{
glyphname = rfishhook;
kernLeft = n;
kernRight = tau;
lastChange = "2025-12-01 13:52:36 +0000";
layers = (
{
layerId = m007;
shapes = (
{
closed = 1;
nodes = (
(126,0,l),
(126,372,ls),
(126,430,o),
(156,460,o),
(214,460,cs),
(364,460,l),
(364,500,l),
(214,500,ls),
(126,500,o),
(86,460,o),
(86,372,cs),
(86,0,l)
);
}
);
width = 400;
},
{
layerId = m004;
shapes = (
{
closed = 1;
nodes = (
(166,0,l),
(166,358,ls),
(166,396,o),
(180,412,o),
(220,412,cs),
(370,412,l),
(370,500,l),
(178,500,ls),
(104,500,o),
(70,466,o),
(70,392,cs),
(70,0,l)
);
}
);
width = 400;
},
{
layerId = m003;
shapes = (
{
closed = 1;
nodes = (
(224,0,l),
(224,330,ls),
(224,344,o),
(230,350,o),
(244,350,cs),
(388,350,l),
(388,500,l),
(140,500,ls),
(74,500,o),
(40,466,o),
(40,400,cs),
(40,0,l)
);
}
);
width = 400;
}
);
unicode = 638;
},
{
color = 8;
glyphname = rlongleg;
kernLeft = n;
kernRight = tau;
lastChange = "2025-11-28 20:13:54 +0000";
layers = (
{
layerId = m003;
shapes = (
{
closed = 1;
nodes = (
(223,-200,l),
(223,500,l),
(40,500,l),
(40,-200,l)
);
},
{
ref = r;
}
);
width = 400;
},
{
layerId = m004;
shapes = (
{
closed = 1;
nodes = (
(166,-200,l),
(166,500,l),
(70,500,l),
(70,-200,l)
);
},
{
ref = r;
}
);
width = 400;
},
{
layerId = m007;
shapes = (
{
closed = 1;
nodes = (
(126,-200,l),
(126,500,l),
(86,500,l),
(86,-200,l)
);
},
{
ref = r;
}
);
width = 400;
}
);
metricLeft = n;
metricRight = tau;
unicode = 636;
},
{
glyphname = rlongleg.ss05;
kernLeft = n;
kernRight = tau;
lastChange = "2025-11-28 20:13:51 +0000";
layers = (
{
layerId = m003;
shapes = (
{
closed = 1;
nodes = (
(223,-200,l),
(223,100,l),
(40,100,l),
(40,-200,l)
);
},
{
ref = r.ss05;
}
);
width = 400;
},
{
layerId = m004;
shapes = (
{
closed = 1;
nodes = (
(166,-200,l),
(166,100,l),
(70,100,l),
(70,-200,l)
);
},
{
ref = r.ss05;
}
);
width = 400;
},
{
layerId = m007;
shapes = (
{
closed = 1;
nodes = (
(126,-200,l),
(126,100,l),
(86,100,l),
(86,-200,l)
);
},
{
ref = r.ss05;
}
);
width = 400;
}
);
metricLeft = n;
metricRight = tau;
},
{
color = 9;
glyphname = s;
kernLeft = s;
kernRight = s;
lastChange = "2025-12-03 09:46:53 +0000";
layers = (
{
anchors = (
{
name = bottom;
pos = (250,0);
},
{
name = top;
pos = (250,500);
}
);
guides = (
{
pos = (-8,330);
},
{
pos = (-8,170);
}
);
layerId = m003;
shapes = (
{
closed = 1;
nodes = (
(390,-12,o),
(476,34,o),
(476,152,cs),
(476,156,ls),
(476,256,o),
(418,294,o),
(326,308,cs),
(252,320,ls),
(214,327,o),
(192,332,o),
(192,354,cs),
(192,358,ls),
(192,374,o),
(208,388,o),
(244,388,cs),
(248,388,ls),
(289.058,388,o),
(306,370.835,o),
(306,330,c),
(472,330,l),
(468,460,o),
(382,512,o),
(250,512,cs),
(246,512,ls),
(96,512,o),
(26,442,o),
(26,346,cs),
(26,342,ls),
(26,240,o),
(86,204,o),
(188,190,cs),
(258,180,ls),
(298,174,o),
(308,164,o),
(308,146,cs),
(308,142,ls),
(308,118,o),
(286,112,o),
(254,112,cs),
(250,112,ls),
(206,112,o),
(190,129,o),
(190,170,c),
(24,170,l),
(28,37,o),
(114,-12,o),
(252,-12,cs),
(256,-12,ls)
);
}
);
width = 500;
},
{
anchors = (
{
name = bottom;
pos = (250,0);
},
{
name = top;
pos = (250,500);
}
);
guides = (
{
pos = (-8,350);
},
{
pos = (-8,150);
}
);
layerId = m004;
shapes = (
{
closed = 1;
nodes = (
(382,-12,o),
(450,38,o),
(450,138,cs),
(450,142,ls),
(450,226,o),
(392,272,o),
(302,288,cs),
(232,300,ls),
(185,310,o),
(152,320,o),
(152,364,cs),
(152,368,ls),
(152,406,o),
(184,432,o),
(244,432,cs),
(248,432,ls),
(310.309,432,o),
(350,408.73,o),
(350,350,c),
(442,350,l),
(442,455.443,o),
(369.724,512,o),
(246,512,cs),
(242,512,ls),
(122,512,o),
(56,448,o),
(56,362,cs),
(56,358,ls),
(56,274,o),
(102,230,o),
(204,212,cs),
(272,200,ls),
(326,192,o),
(354,178,o),
(354,138,cs),
(354,134,ls),
(354,90,o),
(324,68,o),
(256,68,cs),
(252,68,ls),
(176,68,o),
(142,92,o),
(142,150,c),
(50,150,l),
(50,45,o),
(124,-12,o),
(252,-12,cs),
(256,-12,ls)
);
}
);
width = 500;
},
{
anchors = (
{
name = bottom;
pos = (250,0);
},
{
name = top;
pos = (250,500);
}
);
guides = (
{
pos = (-8,360);
},
{
pos = (-8,140);
}
);
layerId = m007;
shapes = (
{
closed = 1;
nodes = (
(380,-12,o),
(436,38,o),
(436,126,cs),
(436,130,ls),
(436,218,o),
(368,252,o),
(290,266,cs),
(218,278,ls),
(153,290,o),
(108,304,o),
(108,370,cs),
(108,374,ls),
(108,436,o),
(162,472,o),
(244,472,cs),
(248,472,ls),
(335.078,472,o),
(392,432,o),
(392,360,c),
(432,360,l),
(432,452,o),
(360.672,512,o),
(248,512,cs),
(244,512,ls),
(138,512,o),
(68,458,o),
(68,374,cs),
(68,370,ls),
(68,290,o),
(121,255,o),
(210,240,cs),
(282,228,ls),
(348,216,o),
(396,192,o),
(396,130,cs),
(396,126,ls),
(396,50,o),
(336,28,o),
(256,28,cs),
(252,28,ls),
(164,28,o),
(104,61,o),
(104,140,c),
(64,140,l),
(64,38,o),
(140,-12,o),
(252,-12,cs),
(256,-12,ls)
);
}
);
width = 500;
}
);
unicode = 115;
userData = {
KernOnName = s;
};
},
{
color = 8;
glyphname = germandbls;
kernLeft = Omega;
kernRight = delta;
lastChange = "2025-12-03 11:01:11 +0000";
layers = (
{
layerId = m003;
shapes = (
{
closed = 1;
nodes = (
(524,0,o),
(600,52,o),
(600,164,cs),
(600,168,ls),
(600,216,o),
(576,264,o),
(536,298,cs),
(496,332,ls),
(474,350,o),
(456,364,o),
(456,390,cs),
(456,394,ls),
(456,436,o),
(526,460,o),
(526,542,cs),
(526,546,ls),
(526,652,o),
(414,712,o),
(292,712,cs),
(288,712,ls),
(122,712,o),
(40,630,o),
(40,496,cs),
(40,0,l),
(224,0,l),
(224,484,ls),
(224,538,o),
(244,570,o),
(290,570,cs),
(294,570,ls),
(324,570,o),
(344,552,o),
(344,524,cs),
(344,520,ls),
(344,466,o),
(278,444,o),
(278,362,cs),
(278,358,ls),
(278,320,o),
(298,286,o),
(340,254,cs),
(378,226,ls),
(404,206,o),
(416,192,o),
(416,172,cs),
(416,168,ls),
(416,152,o),
(402,134,o),
(374,134,cs),
(272,134,l),
(272,0,l),
(400,0,ls)
);
}
);
width = 620;
},
{
layerId = m004;
shapes = (
{
closed = 1;
nodes = (
(510,0,o),
(582,42,o),
(582,152,cs),
(582,156,ls),
(582,212,o),
(552,262,o),
(490,302,cs),
(446,330,ls),
(422,344,o),
(408,360,o),
(408,384,cs),
(408,388,ls),
(408,434,o),
(486,470,o),
(486,554,cs),
(486,558,ls),
(486,632,o),
(430,712,o),
(284,712,cs),
(280,712,ls),
(166,712,o),
(70,654,o),
(70,480,cs),
(70,0,l),
(166,0,l),
(166,474,ls),
(166,565,o),
(198,624,o),
(280,624,cs),
(284,624,ls),
(350,624,o),
(388,596,o),
(388,544,cs),
(388,540,ls),
(388,486,o),
(312,450,o),
(312,370,cs),
(312,366,ls),
(312,320,o),
(336,286,o),
(382,258,cs),
(426,232,ls),
(472,204,o),
(486,184,o),
(486,150,cs),
(486,146,ls),
(486,112,o),
(464,88,o),
(388,88,cs),
(264,88,l),
(264,0,l),
(398,0,ls)
);
}
);
width = 620;
},
{
layerId = m007;
shapes = (
{
closed = 1;
nodes = (
(523,0,o),
(572,66,o),
(572,146,cs),
(572,150,ls),
(572,198,o),
(544,238,o),
(488,274,cs),
(444,302,ls),
(406,326,o),
(380,348,o),
(380,386,cs),
(380,390,ls),
(380,452,o),
(466,482,o),
(466,568,cs),
(466,572,ls),
(466,660,o),
(392,712,o),
(286,712,cs),
(282,712,ls),
(142,712,o),
(84,629,o),
(86,490,cs),
(86,0,l),
(126,0,l),
(126,488,ls),
(126,617,o),
(172,672,o),
(282,672,cs),
(286,672,ls),
(368,672,o),
(426,642,o),
(426,572,cs),
(426,568,ls),
(426,498,o),
(340,464,o),
(340,388,cs),
(340,384,ls),
(340,340,o),
(370,302,o),
(424,270,cs),
(468,244,ls),
(508,220,o),
(532,190,o),
(532,150,cs),
(532,146,ls),
(532,76,o),
(481,40,o),
(402,40,cs),
(254,40,l),
(254,0,l),
(404,0,ls)
);
}
);
width = 620;
}
);
metricLeft = n;
unicode = 223;
},
{
color = 9;
glyphname = t;
kernLeft = t;
kernRight = t;
lastChange = "2025-12-01 18:37:48 +0000";
layers = (
{
anchors = (
{
name = _topright;
pos = (300,700);
},
{
name = bottom;
pos = (250,0);
}
);
layerId = m003;
shapes = (
{
closed = 1;
nodes = (
(104,360,l),
(288,360,l),
(288,600,l),
(104,600,l)
);
},
{
ref = tau.ss02;
}
);
width = 440;
},
{
anchors = (
{
name = _topright;
pos = (260,700);
},
{
name = bottom;
pos = (271,0);
}
);
layerId = m004;
shapes = (
{
closed = 1;
nodes = (
(136,424,l),
(232,424,l),
(232,600,l),
(136,600,l)
);
},
{
ref = tau.ss02;
}
);
width = 440;
},
{
anchors = (
{
name = _topright;
pos = (220,700);
},
{
name = bottom;
pos = (293,0);
}
);
layerId = m007;
shapes = (
{
closed = 1;
nodes = (
(160,476,l),
(200,476,l),
(200,600,l),
(160,600,l)
);
},
{
ref = tau.ss02;
}
);
width = 440;
}
);
metricLeft = tau.ss02;
unicode = 116;
userData = {
KernOnName = t;
};
},
{
glyphname = t.ss03;
kernLeft = t;
kernRight = t;
lastChange = "2025-12-01 18:38:24 +0000";
layers = (
{
anchors = (
{
name = _topright;
pos = (300,700);
}
);
layerId = m003;
shapes = (
{
closed = 1;
nodes = (
(292,358,l),
(292,600,l),
(108,600,l),
(108,358,l)
);
},
{
closed = 1;
nodes = (
(292,0,l),
(292,358,l),
(388,358,l),
(388,500,l),
(12,500,l),
(12,358,l),
(108,358,l),
(108,0,l)
);
}
);
width = 400;
},
{
anchors = (
{
name = _topright;
pos = (260,700);
}
);
layerId = m004;
shapes = (
{
closed = 1;
nodes = (
(248,412,l),
(248,600,l),
(152,600,l),
(152,412,l)
);
},
{
closed = 1;
nodes = (
(248,0,l),
(248,412,l),
(370,412,l),
(370,500,l),
(30,500,l),
(30,412,l),
(152,412,l),
(152,0,l)
);
}
);
width = 400;
},
{
anchors = (
{
name = _topright;
pos = (240,700);
}
);
layerId = m007;
shapes = (
{
closed = 1;
nodes = (
(220,460,l),
(220,600,l),
(180,600,l),
(180,460,l)
);
},
{
closed = 1;
nodes = (
(220,0,l),
(220,460,l),
(364,460,l),
(364,500,l),
(36,500,l),
(36,460,l),
(180,460,l),
(180,0,l)
);
}
);
width = 400;
}
);
metricLeft = tau;
metricRight = tau;
userData = {
KernOnName = t;
};
},
{
glyphname = t_circumflexcomb.ss03;
kernLeft = t;
kernRight = t;
lastChange = "2025-11-28 20:12:19 +0000";
layers = (
{
layerId = m003;
shapes = (
{
ref = circumflexcomb;
},
{
closed = 1;
nodes = (
(292,0,l),
(292,358,l),
(388,358,l),
(388,500,l),
(12,500,l),
(12,358,l),
(108,358,l),
(108,0,l)
);
}
);
width = 400;
},
{
layerId = m004;
shapes = (
{
ref = circumflexcomb;
},
{
closed = 1;
nodes = (
(248,0,l),
(248,412,l),
(370,412,l),
(370,500,l),
(30,500,l),
(30,412,l),
(152,412,l),
(152,0,l)
);
}
);
width = 400;
},
{
layerId = m007;
shapes = (
{
ref = circumflexcomb;
},
{
closed = 1;
nodes = (
(220,0,l),
(220,460,l),
(364,460,l),
(364,500,l),
(36,500,l),
(36,460,l),
(180,460,l),
(180,0,l)
);
}
);
width = 400;
}
);
metricLeft = tau;
metricRight = tau;
},
{
color = 8;
glyphname = tbar;
kernLeft = t;
kernRight = t;
lastChange = "2025-11-28 20:12:17 +0000";
layers = (
{
layerId = m003;
shapes = (
{
closed = 1;
nodes = (
(414,204,l),
(414,298,l),
(14,298,l),
(14,204,l)
);
},
{
ref = t;
}
);
width = 440;
},
{
layerId = m004;
shapes = (
{
closed = 1;
nodes = (
(392,214,l),
(392,286,l),
(30,286,l),
(30,214,l)
);
},
{
ref = t;
}
);
width = 440;
},
{
layerId = m007;
shapes = (
{
closed = 1;
nodes = (
(384,230,l),
(384,270,l),
(38,270,l),
(38,230,l)
);
},
{
ref = t;
}
);
width = 440;
}
);
metricLeft = t;
metricRight = t;
unicode = 359;
},
{
glyphname = tbar.ss03;
kernLeft = t;
kernRight = t;
lastChange = "2025-11-28 20:12:14 +0000";
layers = (
{
layerId = m003;
shapes = (
{
closed = 1;
nodes = (
(388,204,l),
(388,298,l),
(14,298,l),
(14,204,l)
);
},
{
ref = t.ss03;
}
);
width = 400;
},
{
layerId = m004;
shapes = (
{
closed = 1;
nodes = (
(370,214,l),
(370,286,l),
(30,286,l),
(30,214,l)
);
},
{
ref = t.ss03;
}
);
width = 400;
},
{
layerId = m007;
shapes = (
{
closed = 1;
nodes = (
(364,230,l),
(364,270,l),
(36,270,l),
(36,230,l)
);
},
{
ref = t.ss03;
}
);
width = 400;
}
);
metricLeft = t.ss03;
metricRight = t.ss03;
},
{
color = 8;
glyphname = tcaron;
kernLeft = t;
kernRight = t;
lastChange = "2025-11-28 20:12:11 +0000";
layers = (
{
anchors = (
{
name = bottom;
pos = (250,0);
}
);
layerId = m003;
shapes = (
{
closed = 1;
nodes = (
(103,393,l),
(235,393,l),
(235,600,l),
(103,600,l)
);
},
{
alignment = -1;
ref = tau.ss02;
},
{
pos = (268,0);
ref = caroncomb.alt;
}
);
width = 440;
},
{
anchors = (
{
name = bottom;
pos = (271,0);
}
);
layerId = m004;
shapes = (
{
closed = 1;
nodes = (
(136,423,l),
(221,423,l),
(221,600,l),
(136,600,l)
);
},
{
alignment = -1;
ref = tau.ss02;
},
{
pos = (249,0);
ref = caroncomb.alt;
}
);
width = 440;
},
{
anchors = (
{
name = bottom;
pos = (293,0);
}
);
layerId = m007;
shapes = (
{
closed = 1;
nodes = (
(160,466,l),
(200,466,l),
(200,600,l),
(160,600,l)
);
},
{
alignment = -1;
ref = tau.ss02;
},
{
pos = (209,0);
ref = caroncomb.alt;
}
);
width = 440;
}
);
metricLeft = t;
unicode = 357;
},
{
glyphname = tcaron.ss03;
kernLeft = t;
kernRight = f;
lastChange = "2025-11-28 20:10:40 +0000";
layers = (
{
layerId = m003;
shapes = (
{
closed = 1;
nodes = (
(203,358,l),
(203,600,l),
(101,600,l),
(101,358,l)
);
},
{
closed = 1;
nodes = (
(292,0,l),
(292,358,l),
(380,358,l),
(380,500,l),
(20,500,l),
(20,358,l),
(108,358,l),
(108,0,l)
);
},
{
pos = (228,0);
ref = caroncomb.alt;
}
);
width = 400;
},
{
layerId = m004;
shapes = (
{
closed = 1;
nodes = (
(214,412,l),
(214,600,l),
(152,600,l),
(152,412,l)
);
},
{
closed = 1;
nodes = (
(248,0,l),
(248,412,l),
(372,412,l),
(372,500,l),
(30,500,l),
(30,412,l),
(152,412,l),
(152,0,l)
);
},
{
pos = (234,0);
ref = caroncomb.alt;
}
);
width = 400;
},
{
layerId = m007;
shapes = (
{
closed = 1;
nodes = (
(220,460,l),
(220,600,l),
(180,600,l),
(180,460,l)
);
},
{
closed = 1;
nodes = (
(220,0,l),
(220,460,l),
(364,460,l),
(364,500,l),
(38,500,l),
(38,460,l),
(180,460,l),
(180,0,l)
);
},
{
pos = (221,0);
ref = caroncomb.alt;
}
);
width = 400;
}
);
},
{
glyphname = tdotaccent.ss03;
kernLeft = t;
kernRight = t;
lastChange = "2025-11-28 20:10:25 +0000";
layers = (
{
layerId = m003;
shapes = (
{
pos = (50,0);
ref = dotaccentcomb;
},
{
closed = 1;
nodes = (
(292,0,l),
(292,358,l),
(387,358,l),
(387,500,l),
(12,500,l),
(12,358,l),
(108,358,l),
(108,0,l)
);
}
);
width = 400;
},
{
layerId = m004;
shapes = (
{
pos = (50,0);
ref = dotaccentcomb;
},
{
closed = 1;
nodes = (
(248,0,l),
(248,412,l),
(370,412,l),
(370,500,l),
(30,500,l),
(30,412,l),
(152,412,l),
(152,0,l)
);
}
);
width = 400;
},
{
layerId = m007;
shapes = (
{
pos = (50,0);
ref = dotaccentcomb;
},
{
closed = 1;
nodes = (
(220,0,l),
(220,460,l),
(364,460,l),
(364,500,l),
(36,500,l),
(36,460,l),
(180,460,l),
(180,0,l)
);
}
);
width = 400;
}
);
metricLeft = tau;
metricRight = tau;
},
{
color = 9;
glyphname = v;
kernLeft = v;
kernRight = v;
lastChange = "2025-11-28 20:10:22 +0000";
layers = (
{
anchors = (
{
name = bottom;
pos = (260,0);
},
{
name = top;
pos = (260,500);
}
);
layerId = m003;
shapes = (
{
closed = 1;
nodes = (
(384,0,l),
(508,500,l),
(330,500,l),
(268,200,l),
(206,500,l),
(12,500,l),
(138,0,l)
);
}
);
width = 520;
},
{
anchors = (
{
name = bottom;
pos = (260,0);
},
{
name = top;
pos = (260,500);
}
);
layerId = m004;
shapes = (
{
closed = 1;
nodes = (
(320,0,l),
(494,500,l),
(390,500,l),
(262,120,l),
(136,500,l),
(26,500,l),
(200,0,l)
);
}
);
width = 520;
},
{
anchors = (
{
name = bottom;
pos = (260,0);
},
{
name = top;
pos = (260,500);
}
);
layerId = m007;
shapes = (
{
closed = 1;
nodes = (
(284,0,l),
(484,500,l),
(440,500,l),
(260,52,l),
(80,500,l),
(36,500,l),
(236,0,l)
);
}
);
width = 520;
}
);
metricLeft = x;
metricRight = x;
unicode = 118;
userData = {
KernOnName = v;
};
},
{
color = 9;
glyphname = w;
kernLeft = w;
kernRight = w;
lastChange = "2025-11-28 20:10:19 +0000";
layers = (
{
anchors = (
{
name = bottom;
pos = (370,0);
},
{
name = top;
pos = (370,500);
}
);
layerId = m003;
shapes = (
{
closed = 1;
nodes = (
(312,0,l),
(368,244,l),
(422,0,l),
(626,0,l),
(728,500,l),
(564,500,l),
(514,220,l),
(458,500,l),
(302,500,l),
(240,220,l),
(196,500,l),
(12,500,l),
(114,0,l)
);
}
);
width = 740;
},
{
anchors = (
{
name = bottom;
pos = (370,0);
},
{
name = top;
pos = (370,500);
}
);
layerId = m004;
shapes = (
{
closed = 1;
nodes = (
(278,0,l),
(370,344,l),
(462,0,l),
(574,0,l),
(714,500,l),
(616,500,l),
(522,128,l),
(416,500,l),
(324,500,l),
(224,128,l),
(132,500,l),
(26,500,l),
(166,0,l)
);
}
);
width = 740;
},
{
anchors = (
{
name = bottom;
pos = (370,0);
},
{
name = top;
pos = (370,500);
}
);
layerId = m007;
shapes = (
{
closed = 1;
nodes = (
(240,0,l),
(370,444,l),
(500,0,l),
(548,0,l),
(704,500,l),
(662,500,l),
(524,56,l),
(394,500,l),
(346,500,l),
(216,56,l),
(78,500,l),
(36,500,l),
(192,0,l)
);
}
);
width = 740;
}
);
metricLeft = x;
metricRight = x;
unicode = 119;
userData = {
KernOnName = w;
};
},
{
color = 9;
glyphname = x;
kernLeft = x;
kernRight = x;
lastChange = "2025-11-30 21:22:29 +0000";
layers = (
{
anchors = (
{
name = bottom;
pos = (270,0);
},
{
name = top;
pos = (270,500);
}
);
layerId = m003;
shapes = (
{
closed = 1;
nodes = (
(198,0,l),
(260,132,l),
(324,0,l),
(528,0,l),
(396,256,l),
(522,500,l),
(338,500,l),
(280,368,l),
(222,500,l),
(18,500,l),
(144,244,l),
(12,0,l)
);
}
);
width = 540;
},
{
anchors = (
{
name = bottom;
pos = (270,0);
},
{
name = top;
pos = (270,500);
}
);
layerId = m004;
shapes = (
{
closed = 1;
nodes = (
(136,0,l),
(266,188,l),
(394,0,l),
(514,0,l),
(336,256,l),
(506,500,l),
(396,500,l),
(274,316,l),
(156,500,l),
(36,500,l),
(204,250,l),
(26,0,l)
);
}
);
width = 540;
},
{
anchors = (
{
name = bottom;
pos = (270,0);
},
{
name = top;
pos = (270,500);
}
);
layerId = m007;
shapes = (
{
closed = 1;
nodes = (
(86,0,l),
(270,224,l),
(454,0,l),
(504,0,l),
(296,250,l),
(496,500,l),
(446,500,l),
(270,278,l),
(94,500,l),
(44,500,l),
(244,250,l),
(36,0,l)
);
}
);
width = 540;
}
);
unicode = 120;
userData = {
KernOnName = x;
};
},
{
color = 9;
glyphname = y;
kernLeft = y;
kernRight = y;
lastChange = "2025-11-28 20:10:13 +0000";
layers = (
{
anchors = (
{
name = bottom;
pos = (220,-200);
},
{
name = top;
pos = (260,500);
}
);
layerId = m003;
shapes = (
{
closed = 1;
nodes = (
(306,-200,l),
(508,500,l),
(332,500,l),
(266,228,l),
(198,500,l),
(12,500,l),
(176,-18,l),
(130,-200,l)
);
}
);
width = 520;
},
{
anchors = (
{
name = bottom;
pos = (211,-200);
},
{
name = top;
pos = (260,500);
}
);
layerId = m004;
shapes = (
{
closed = 1;
nodes = (
(254,-200,l),
(494,500,l),
(390,500,l),
(272,130,l),
(136,500,l),
(26,500,l),
(220,-4,l),
(154,-200,l)
);
}
);
width = 520;
},
{
anchors = (
{
name = bottom;
pos = (203,-200);
},
{
name = top;
pos = (260,500);
}
);
layerId = m007;
shapes = (
{
closed = 1;
nodes = (
(218,-200,l),
(484,500,l),
(440,500,l),
(270,54,l),
(80,500,l),
(36,500,l),
(250,0,l),
(174,-200,l)
);
}
);
width = 520;
}
);
metricLeft = x;
metricRight = x;
unicode = 121;
},
{
glyphname = y.ss02;
kernLeft = "y-tail";
kernRight = y;
lastChange = "2025-11-28 20:10:10 +0000";
layers = (
{
anchors = (
{
name = bottom;
pos = (220,-200);
},
{
name = top;
pos = (260,500);
}
);
layerId = m003;
shapes = (
{
closed = 1;
nodes = (
(176,-200,ls),
(290.667,-200,o),
(336,-149.333,o),
(360,-64,cs),
(508,500,l),
(332,500,l),
(266,228,l),
(198,500,l),
(12,500,l),
(178,-18,l),
(174,-30,ls),
(166,-51.333,o),
(159.333,-56,o),
(138,-56,cs),
(56,-56,l),
(56,-200,l)
);
}
);
width = 520;
},
{
anchors = (
{
name = bottom;
pos = (211,-200);
},
{
name = top;
pos = (260,500);
}
);
layerId = m004;
shapes = (
{
closed = 1;
nodes = (
(154,-200,ls),
(234,-200,o),
(269.333,-174,o),
(296,-94,cs),
(494,500,l),
(390,500,l),
(272,130,l),
(136,500,l),
(26,500,l),
(222,-4,l),
(200,-66,ls),
(189.333,-98,o),
(173.333,-112,o),
(136,-112,cs),
(76,-112,l),
(76,-200,l)
);
}
);
width = 520;
},
{
anchors = (
{
name = bottom;
pos = (203,-200);
},
{
name = top;
pos = (260,500);
}
);
layerId = m007;
shapes = (
{
closed = 1;
nodes = (
(138,-200,ls),
(200.667,-200,o),
(226,-178,o),
(250,-118,cs),
(484,500,l),
(438,500,l),
(272,56,l),
(82,500,l),
(36,500,l),
(250,0,l),
(210,-108,ls),
(194,-148,o),
(174,-160,o),
(134,-160,cs),
(88,-160,l),
(88,-200,l)
);
}
);
width = 520;
}
);
metricLeft = x;
metricRight = x;
userData = {
KernOnName = y;
};
},
{
color = 9;
glyphname = z;
kernLeft = z;
kernRight = z;
lastChange = "2025-11-28 20:10:06 +0000";
layers = (
{
anchors = (
{
name = bottom;
pos = (240,0);
},
{
name = top;
pos = (240,500);
}
);
layerId = m003;
shapes = (
{
closed = 1;
nodes = (
(456,0,l),
(456,142,l),
(254,142,l),
(454,388,l),
(454,500,l),
(26,500,l),
(26,358,l),
(222,358,l),
(24,114,l),
(24,0,l)
);
}
);
width = 480;
},
{
anchors = (
{
name = bottom;
pos = (240,0);
},
{
name = top;
pos = (240,500);
}
);
layerId = m004;
shapes = (
{
closed = 1;
nodes = (
(440,0,l),
(440,88,l),
(168,88,l),
(442,428,l),
(442,500,l),
(42,500,l),
(42,412,l),
(314,412,l),
(40,72,l),
(40,0,l)
);
}
);
width = 480;
},
{
anchors = (
{
name = bottom;
pos = (240,0);
},
{
name = top;
pos = (240,500);
}
);
layerId = m007;
shapes = (
{
closed = 1;
nodes = (
(432,0,l),
(432,40,l),
(106,40,l),
(434,470,l),
(434,500,l),
(48,500,l),
(48,460,l),
(378,460,l),
(48,30,l),
(48,0,l)
);
}
);
width = 480;
}
);
unicode = 122;
},
{
color = 8;
glyphname = saltillo;
kernLeft = I;
kernRight = I;
lastChange = "2025-11-28 20:10:04 +0000";
layers = (
{
layerId = m003;
shapes = (
{
closed = 1;
nodes = (
(222,380,l),
(222,600,l),
(222,700,l),
(38,700,l),
(38,600,l),
(38,380,l)
);
}
);
width = 260;
},
{
layerId = m004;
shapes = (
{
closed = 1;
nodes = (
(178,380,l),
(178,600,l),
(178,700,l),
(82,700,l),
(82,600,l),
(82,380,l)
);
}
);
width = 260;
},
{
layerId = m007;
shapes = (
{
closed = 1;
nodes = (
(150,380,l),
(150,600,l),
(150,700,l),
(110,700,l),
(110,600,l),
(110,380,l)
);
}
);
width = 260;
}
);
metricLeft = idotless;
metricRight = idotless;
unicode = 42892;
},
{
export = 0;
glyphname = a.small;
lastChange = "2025-12-03 11:57:25 +0000";
layers = (
{
guides = (
{
},
{
pos = (0,400);
},
{
pos = (0,300);
},
{
pos = (0,-100);
},
{
pos = (0,200);
}
);
layerId = m003;
shapes = (
{
closed = 1;
nodes = (
(134,-4,ls),
(182,-4,o),
(210,10,o),
(228,38,c),
(228,0,l),
(358,0,l),
(358,182,ls),
(358,266,o),
(300,308,o),
(196,308,cs),
(192,308,ls),
(80,308,o),
(36,258,o),
(32,200,c),
(164,200,l),
(164,213,o),
(174,220,o),
(190,220,cs),
(194,220,ls),
(212,220,o),
(220,206,o),
(220,192,cs),
(220,110,ls),
(220,91,o),
(208,80,o),
(184,80,cs),
(180,80,ls),
(166,80,o),
(154,84,o),
(154,96,cs),
(154,100,ls),
(154,108,o),
(164,116,o),
(190,116,cs),
(266,116,l),
(266,184,l),
(168,184,ls),
(68,184,o),
(18,158,o),
(18,84,cs),
(18,80,ls),
(18,18,o),
(76,-4,o),
(130,-4,cs)
);
}
);
width = 380;
},
{
guides = (
{
pos = (-16,0);
},
{
pos = (-16,400);
},
{
pos = (-16,300);
},
{
pos = (-16,-100);
},
{
pos = (-16,210);
}
);
layerId = m004;
shapes = (
{
closed = 1;
nodes = (
(144,-4,ls),
(196,-4,o),
(230,14,o),
(252,46,c),
(252,0,l),
(332,0,l),
(332,192,ls),
(332,272,o),
(276,308,o),
(194,308,cs),
(190,308,ls),
(96,308,o),
(50,262,o),
(50,210,c),
(130,210,l),
(130,230,o),
(152,240,o),
(186,240,cs),
(190,240,ls),
(226,240,o),
(250,232,o),
(250,196,cs),
(250,126,ls),
(250,81,o),
(216,64,o),
(174,64,cs),
(170,64,ls),
(136,64,o),
(114,68,o),
(114,86,cs),
(114,90,ls),
(114,112,o),
(134,118,o),
(198,118,cs),
(282,118,l),
(282,182,l),
(190,182,ls),
(88,182,o),
(34,156,o),
(34,90,cs),
(34,86,ls),
(34,22,o),
(82,-4,o),
(140,-4,cs)
);
}
);
width = 380;
},
{
guides = (
{
pos = (-16,0);
},
{
pos = (-16,400);
},
{
pos = (-16,300);
},
{
pos = (-16,-100);
},
{
pos = (-16,220);
}
);
layerId = m007;
shapes = (
{
closed = 1;
nodes = (
(158,-8,ls),
(216,-8,o),
(252,14,o),
(274,52,c),
(274,0,l),
(314,0,l),
(314,192,ls),
(314,272,o),
(266,308,o),
(192,308,cs),
(188,308,ls),
(114,308,o),
(66,271,o),
(62,220,c),
(104,220,l),
(108,248,o),
(132,268,o),
(186,268,cs),
(190,268,ls),
(240,268,o),
(274,250,o),
(274,192,cs),
(274,140,ls),
(274,84,o),
(238,32,o),
(162,32,cs),
(158,32,ls),
(116,32,o),
(86,44,o),
(86,78,cs),
(86,82,ls),
(86,118,o),
(124,130,o),
(206,130,cs),
(298,130,l),
(298,170,l),
(204,170,ls),
(92,170,o),
(46,146,o),
(46,82,cs),
(46,78,ls),
(46,20,o),
(88,-8,o),
(154,-8,cs)
);
}
);
width = 380;
}
);
userData = {
KernOnName = a;
};
},
{
export = 0;
glyphname = b.small;
lastChange = "2025-12-03 11:57:52 +0000";
layers = (
{
guides = (
{
},
{
pos = (0,400);
},
{
pos = (0,300);
},
{
pos = (0,-100);
}
);
layerId = m003;
shapes = (
{
closed = 1;
nodes = (
(356,-8,o),
(408,50,o),
(408,148,cs),
(408,152,ls),
(408,248,o),
(356,308,o),
(274,308,cs),
(270,308,ls),
(226,308,o),
(196,294,o),
(178,272,c),
(178,400,l),
(24,400,l),
(24,0,l),
(178,0,l),
(178,30,l),
(192,6,o),
(230,-8,o),
(270,-8,cs),
(274,-8,ls)
);
},
{
closed = 1;
nodes = (
(212,102,ls),
(186,102,o),
(174,120,o),
(174,148,cs),
(174,152,ls),
(174,182,o),
(186,198,o),
(212,198,cs),
(216,198,ls),
(242,198,o),
(256,182,o),
(256,152,cs),
(256,148,ls),
(256,120,o),
(244,102,o),
(216,102,cs)
);
}
);
width = 420;
},
{
guides = (
{
pos = (-22,0);
},
{
pos = (-22,400);
},
{
pos = (-22,300);
},
{
pos = (-22,-100);
}
);
layerId = m004;
shapes = (
{
closed = 1;
nodes = (
(328,-8,o),
(388,50,o),
(388,148,cs),
(388,152,ls),
(388,248,o),
(328,308,o),
(236,308,cs),
(232,308,ls),
(194,308,o),
(159,300,o),
(128,272,c),
(128,400,l),
(48,400,l),
(48,0,l),
(128,0,l),
(128,32,l),
(157,-1,o),
(196,-8,o),
(232,-8,cs),
(236,-8,ls)
);
},
{
closed = 1;
nodes = (
(216,62,ls),
(160,62,o),
(126,90,o),
(126,148,cs),
(126,152,ls),
(126,210,o),
(160,240,o),
(216,240,cs),
(220,240,ls),
(272,240,o),
(308,210,o),
(308,152,cs),
(308,148,ls),
(308,88,o),
(272,62,o),
(220,62,cs)
);
}
);
width = 420;
},
{
guides = (
{
pos = (-22,0);
},
{
pos = (-22,400);
},
{
pos = (-22,300);
},
{
pos = (-22,-100);
}
);
layerId = m007;
shapes = (
{
closed = 1;
nodes = (
(310,-8,o),
(372,44,o),
(372,148,cs),
(372,152,ls),
(372,254,o),
(310,308,o),
(226,308,cs),
(222,308,ls),
(168,308,o),
(126,288,o),
(104,254,c),
(104,400,l),
(64,400,l),
(64,0,l),
(104,0,l),
(104,46,l),
(126,12,o),
(166,-8,o),
(222,-8,cs),
(226,-8,ls)
);
},
{
closed = 1;
nodes = (
(218,32,ls),
(164,32,o),
(104,58,o),
(104,148,cs),
(104,152,ls),
(104,242,o),
(164,268,o),
(218,268,cs),
(222,268,ls),
(272,268,o),
(332,244,o),
(332,152,cs),
(332,148,ls),
(332,56,o),
(272,32,o),
(222,32,cs)
);
}
);
width = 420;
}
);
metricLeft = n.small;
metricRight = o.small;
},
{
export = 0;
glyphname = c.small;
lastChange = "2025-12-03 11:58:15 +0000";
layers = (
{
guides = (
{
},
{
pos = (0,400);
},
{
pos = (0,300);
},
{
pos = (0,-100);
},
{
pos = (0,200);
},
{
pos = (0,100);
}
);
layerId = m003;
shapes = (
{
closed = 1;
nodes = (
(304,-8,o),
(356,40,o),
(360,100,c),
(220,100,l),
(220,92,o),
(214,80,o),
(200,80,cs),
(196,80,ls),
(174,80,o),
(166,102,o),
(166,148,cs),
(166,152,ls),
(166,198,o),
(174,220,o),
(196,220,cs),
(200,220,ls),
(214,220,o),
(220,208,o),
(220,200,c),
(360,200,l),
(358,238,o),
(328,308,o),
(200,308,cs),
(196,308,ls),
(72,308,o),
(14,238,o),
(14,152,cs),
(14,148,ls),
(14,60,o),
(72,-8,o),
(196,-8,cs),
(200,-8,ls)
);
}
);
width = 360;
},
{
guides = (
{
pos = (-18,0);
},
{
pos = (-18,400);
},
{
pos = (-18,300);
},
{
pos = (-18,-100);
},
{
pos = (-18,90);
},
{
pos = (-18,210);
}
);
layerId = m004;
shapes = (
{
closed = 1;
nodes = (
(284,-8,o),
(340,38,o),
(340,90,c),
(262,90,l),
(258,70,o),
(232,64,o),
(198,64,cs),
(194,64,ls),
(148,64,o),
(114,86,o),
(114,148,cs),
(114,152,ls),
(114,213,o),
(146,236,o),
(194,236,cs),
(198,236,ls),
(232,236,o),
(258,230,o),
(262,210,c),
(340,210,l),
(340,262,o),
(284,308,o),
(198,308,cs),
(194,308,ls),
(94,308,o),
(34,254,o),
(34,152,cs),
(34,148,ls),
(34,52,o),
(92,-8,o),
(194,-8,cs),
(198,-8,ls)
);
}
);
width = 360;
},
{
guides = (
{
pos = (-18,0);
},
{
pos = (-18,400);
},
{
pos = (-18,300);
},
{
pos = (-18,-100);
},
{
pos = (-18,80);
},
{
pos = (-18,220);
}
);
layerId = m007;
shapes = (
{
closed = 1;
nodes = (
(300,-8,o),
(322,54,o),
(324,80,c),
(284,80,l),
(280,50,o),
(248,32,o),
(198,32,cs),
(194,32,ls),
(124,32,o),
(88,78,o),
(88,148,cs),
(88,152,ls),
(88,221,o),
(118,268,o),
(194,268,cs),
(198,268,ls),
(248,268,o),
(280,250,o),
(284,220,c),
(324,220,l),
(320,268,o),
(278,308,o),
(198,308,cs),
(194,308,ls),
(102,308,o),
(48,250,o),
(48,152,cs),
(48,148,ls),
(48,52,o),
(106,-8,o),
(194,-8,cs),
(198,-8,ls)
);
}
);
width = 360;
}
);
metricLeft = o.small;
userData = {
KernOnName = c;
};
},
{
export = 0;
glyphname = e.small;
lastChange = "2025-12-03 11:58:40 +0000";
layers = (
{
guides = (
{
},
{
pos = (0,400);
},
{
pos = (0,300);
},
{
pos = (0,-100);
},
{
pos = (0,100);
}
);
layerId = m003;
shapes = (
{
closed = 1;
nodes = (
(308,-8,o),
(362,38,o),
(368,100,c),
(224,100,l),
(224,88,o),
(218,80,o),
(198,80,cs),
(194,80,ls),
(170,80,o),
(156,100,o),
(156,146,cs),
(156,156,ls),
(156,204,o),
(166,224,o),
(194,224,cs),
(198,224,ls),
(218,224,o),
(226,210,o),
(226,188,c),
(100,188,l),
(100,126,l),
(368,126,l),
(368,150,ls),
(368,256,o),
(292,308,o),
(196,308,cs),
(192,308,ls),
(80,308,o),
(14,246,o),
(14,152,cs),
(14,148,ls),
(14,58,o),
(80,-8,o),
(196,-8,cs),
(200,-8,ls)
);
}
);
width = 380;
},
{
guides = (
{
pos = (-18,0);
},
{
pos = (-18,400);
},
{
pos = (-18,300);
},
{
pos = (-18,-100);
},
{
pos = (-18,90);
}
);
layerId = m004;
shapes = (
{
closed = 1;
nodes = (
(294,-8,o),
(340,34,o),
(346,90,c),
(260,90,l),
(254,70,o),
(230,64,o),
(198,64,cs),
(194,64,ls),
(152,64,o),
(114,80,o),
(114,146,cs),
(114,156,ls),
(114,222,o),
(150,236,o),
(192,236,cs),
(196,236,ls),
(234,236,o),
(264,218,o),
(268,182,c),
(82,182,l),
(82,118,l),
(348,118,l),
(348,154,ls),
(348,268,o),
(270,308,o),
(196,308,cs),
(192,308,ls),
(96,308,o),
(34,258,o),
(34,152,cs),
(34,148,ls),
(34,44,o),
(96,-8,o),
(194,-8,cs),
(198,-8,ls)
);
}
);
width = 380;
},
{
guides = (
{
pos = (-18,0);
},
{
pos = (-18,400);
},
{
pos = (-18,300);
},
{
pos = (-18,-100);
},
{
pos = (-18,80);
}
);
layerId = m007;
shapes = (
{
closed = 1;
nodes = (
(294,-8,o),
(324,54,o),
(326,80,c),
(284,80,l),
(280,64,o),
(260,32,o),
(196,32,cs),
(192,32,ls),
(138,34,o),
(88,58,o),
(88,146,cs),
(88,154,ls),
(88,244,o),
(136,268,o),
(192,268,cs),
(196,268,ls),
(268,268,o),
(292,226,o),
(292,170,c),
(64,170,l),
(64,130,l),
(332,130,l),
(332,162,ls),
(332,254,o),
(282,308,o),
(196,308,cs),
(192,308,ls),
(118,308,o),
(48,270,o),
(48,152,cs),
(48,148,ls),
(48,36,o),
(114,-8,o),
(192,-8,cs),
(196,-8,ls)
);
}
);
width = 380;
}
);
metricLeft = o.small;
metricRight = o.small;
userData = {
KernOnName = e;
};
},
{
export = 0;
glyphname = f.small;
lastChange = "2025-12-01 17:49:06 +0000";
layers = (
{
guides = (
{
},
{
pos = (0,400);
},
{
pos = (0,300);
},
{
pos = (0,-100);
}
);
layerId = m003;
shapes = (
{
closed = 1;
nodes = (
(268,168,l),
(268,264,l),
(6,264,l),
(6,168,l)
);
},
{
closed = 1;
nodes = (
(198,0,l),
(198,284,ls),
(198,298,o),
(204,304,o),
(218,304,cs),
(268,304,l),
(268,400,l),
(124,400,ls),
(70,400,o),
(44,374,o),
(44,320,cs),
(44,0,l)
);
}
);
width = 280;
},
{
guides = (
{
pos = (-8,0);
},
{
pos = (-8,400);
},
{
pos = (-8,300);
},
{
pos = (-8,-100);
}
);
layerId = m004;
shapes = (
{
closed = 1;
nodes = (
(252,202,l),
(252,274,l),
(16,274,l),
(16,202,l)
);
},
{
closed = 1;
nodes = (
(158,0,l),
(158,288,ls),
(158,314,o),
(172,328,o),
(198,328,cs),
(272,328,l),
(272,400,l),
(178,400,ls),
(114,400,o),
(78,364,o),
(78,300,cs),
(78,0,l)
);
}
);
width = 280;
},
{
guides = (
{
pos = (-8,0);
},
{
pos = (-8,400);
},
{
pos = (-8,300);
},
{
pos = (-8,-100);
}
);
layerId = m007;
shapes = (
{
closed = 1;
nodes = (
(244,260,l),
(244,300,l),
(22,300,l),
(22,260,l)
);
},
{
closed = 1;
nodes = (
(134,0,l),
(134,320,ls),
(134,346,o),
(148,360,o),
(174,360,cs),
(254,360,l),
(254,400,l),
(174,400,ls),
(120,400,o),
(94,374,o),
(94,320,cs),
(94,0,l)
);
}
);
width = 280;
}
);
userData = {
KernOnName = f;
};
},
{
export = 0;
glyphname = g.small;
lastChange = "2025-12-03 11:59:03 +0000";
layers = (
{
guides = (
{
},
{
pos = (0,400);
},
{
pos = (0,300);
},
{
pos = (0,-100);
}
);
layerId = m003;
shapes = (
{
closed = 1;
nodes = (
(328,-108,o),
(398,-76,o),
(398,40,cs),
(398,300,l),
(244,300,l),
(244,270,l),
(230,288,o),
(194,308,o),
(148,308,cs),
(144,308,ls),
(76,308,o),
(14,268,o),
(14,166,cs),
(14,162,ls),
(14,58,o),
(80,20,o),
(142,20,cs),
(146,20,ls),
(196,20,o),
(230,40,o),
(244,58,c),
(244,20,ls),
(244,-6,o),
(232,-18,o),
(206,-18,cs),
(202,-18,ls),
(188,-18,o),
(176,-14,o),
(170,0,c),
(16,0,l),
(22,-90,o),
(116,-108,o),
(202,-108,cs),
(206,-108,ls)
);
},
{
closed = 1;
nodes = (
(204,126,ls),
(180,126,o),
(166,134,o),
(166,162,cs),
(166,166,ls),
(166,194,o),
(180,202,o),
(204,202,cs),
(208,202,ls),
(232,202,o),
(246,190,o),
(246,166,cs),
(246,162,ls),
(246,136,o),
(232,126,o),
(208,126,cs)
);
}
);
width = 420;
},
{
guides = (
{
pos = (-16,0);
},
{
pos = (-16,400);
},
{
pos = (-16,300);
},
{
pos = (-16,-100);
}
);
layerId = m004;
shapes = (
{
closed = 1;
nodes = (
(310,-108,o),
(374,-76,o),
(374,32,cs),
(374,300,l),
(294,300,l),
(294,270,l),
(268,296,o),
(234,308,o),
(186,308,cs),
(182,308,ls),
(96,308,o),
(34,254,o),
(34,166,cs),
(34,162,ls),
(34,66,o),
(100,18,o),
(182,18,cs),
(186,18,ls),
(238,18,o),
(268,34,o),
(294,60,c),
(294,22,ls),
(294,-32,o),
(254,-40,o),
(206,-40,cs),
(202,-40,ls),
(164,-40,o),
(132,-26,o),
(128,0,c),
(44,0,l),
(48,-66,o),
(108,-108,o),
(202,-108,cs),
(206,-108,ls)
);
},
{
closed = 1;
nodes = (
(202,92,ls),
(146,92,o),
(114,116,o),
(114,162,cs),
(114,166,ls),
(114,212,o),
(148,236,o),
(202,236,cs),
(206,236,ls),
(256,236,o),
(294,210,o),
(294,166,cs),
(294,162,ls),
(294,114,o),
(258,92,o),
(206,92,cs)
);
}
);
width = 420;
},
{
guides = (
{
pos = (-16,0);
},
{
pos = (-16,400);
},
{
pos = (-16,300);
},
{
pos = (-16,-100);
}
);
layerId = m007;
shapes = (
{
closed = 1;
nodes = (
(302,-108,o),
(360,-72,o),
(360,28,cs),
(360,300,l),
(320,300,l),
(320,258,l),
(296,286,o),
(254,308,o),
(198,308,cs),
(194,308,ls),
(122,308,o),
(48,266,o),
(48,162,cs),
(48,158,ls),
(48,62,o),
(120,18,o),
(194,18,cs),
(198,18,ls),
(254,18,o),
(296,38,o),
(320,70,c),
(320,28,ls),
(320,-52,o),
(274,-68,o),
(206,-68,cs),
(202,-68,ls),
(138,-68,o),
(98,-44,o),
(94,0,c),
(52,0,l),
(56,-66,o),
(108,-108,o),
(202,-108,cs),
(206,-108,ls)
);
},
{
closed = 1;
nodes = (
(202,58,ls),
(128,58,o),
(88,94,o),
(88,158,cs),
(88,162,ls),
(88,230,o),
(130,268,o),
(202,268,cs),
(206,268,ls),
(272,268,o),
(320,232,o),
(320,164,cs),
(320,160,ls),
(320,90,o),
(270,58,o),
(206,58,cs)
);
}
);
width = 420;
}
);
metricLeft = o.small;
metricRight = n.small;
userData = {
KernOnName = g;
};
},
{
export = 0;
glyphname = glottalstop;
kernLeft = C;
kernRight = S;
lastChange = "2025-12-03 11:42:58 +0000";
layers = (
{
guides = (
{
pos = (-8,480);
}
);
layerId = m003;
shapes = (
{
closed = 1;
nodes = (
(368,0,l),
(368,130,ls),
(368,160,o),
(376,172,o),
(396,192,cs),
(452,244,ls),
(514,302,o),
(576,376,o),
(576,480,cs),
(576,484,ls),
(576,616,o),
(472,712,o),
(304,712,cs),
(300,712,ls),
(130,712,o),
(20,620,o),
(16,480,c),
(210,480,l),
(214,532,o),
(248,564,o),
(300,564,cs),
(304,564,ls),
(350,564,o),
(380,532,o),
(380,490,cs),
(380,486,ls),
(380,432,o),
(354,404,o),
(308,362,cs),
(242,300,ls),
(204,264,o),
(180,232,o),
(180,176,cs),
(180,0,l)
);
}
);
width = 600;
},
{
guides = (
{
pos = (-8,500);
}
);
layerId = m004;
shapes = (
{
closed = 1;
nodes = (
(314,0,l),
(314,128,ls),
(314,178,o),
(330,206,o),
(362,230,cs),
(426,280,ls),
(500,338,o),
(552,390,o),
(552,490,cs),
(552,494,ls),
(552,634,o),
(444,712,o),
(300,712,cs),
(296,712,ls),
(144,712,o),
(48,618,o),
(44,500,c),
(144,500,l),
(148,562,o),
(200,620,o),
(296,620,cs),
(300,620,ls),
(392,620,o),
(452,576,o),
(452,494,cs),
(452,490,ls),
(452,432,o),
(418,396,o),
(362,354,cs),
(286,292,ls),
(244,258,o),
(214,210,o),
(214,138,cs),
(214,0,l)
);
}
);
width = 600;
},
{
guides = (
{
pos = (-8,520);
}
);
layerId = m007;
shapes = (
{
closed = 1;
nodes = (
(290,0,l),
(290,112,ls),
(290,192,o),
(308,212,o),
(350,248,cs),
(406,294,ls),
(486,360,o),
(534,406,o),
(534,500,cs),
(534,504,ls),
(534,634,o),
(438,712,o),
(296,712,cs),
(292,712,ls),
(158,712,o),
(60,634,o),
(56,520,c),
(96,520,l),
(100,606,o),
(172,672,o),
(292,672,cs),
(296,672,ls),
(414,672,o),
(494,608,o),
(494,504,cs),
(494,500,ls),
(494,420,o),
(444,380,o),
(380,326,cs),
(320,276,ls),
(272,236,o),
(250,202,o),
(250,112,cs),
(250,0,l)
);
}
);
width = 600;
}
);
unicode = 660;
},
{
export = 0;
glyphname = glottalstopreversed.small;
lastChange = "2025-12-03 11:59:24 +0000";
layers = (
{
guides = (
{
},
{
pos = (0,400);
},
{
pos = (0,-100);
},
{
pos = (0,270);
}
);
layerId = m003;
shapes = (
{
closed = 1;
nodes = (
(280,84,ls),
(280,150,o),
(264,174,o),
(232,200,cs),
(212,216,ls),
(187,239,o),
(166,258,o),
(166,280,cs),
(166,284,ls),
(166,298,o),
(174,306,o),
(188,306,cs),
(192,306,ls),
(208,306,o),
(216,294,o),
(216,270,c),
(360,270,l),
(356,356,o),
(296,408,o),
(190,408,cs),
(186,408,ls),
(74,408,o),
(14,358,o),
(14,272,cs),
(14,268,ls),
(14,220,o),
(32,176,o),
(72,144,cs),
(94,128,ls),
(116,110,o),
(128,98,o),
(128,68,cs),
(128,0,l),
(280,0,l)
);
}
);
width = 360;
},
{
guides = (
{
pos = (-18,0);
},
{
pos = (-18,400);
},
{
pos = (-18,290);
},
{
pos = (-18,-100);
}
);
layerId = m004;
shapes = (
{
closed = 1;
nodes = (
(244,76,ls),
(244,134,o),
(226,158,o),
(188,182,cs),
(164,200,ls),
(127,223,o),
(118,248,o),
(118,276,cs),
(118,280,ls),
(118,314,o),
(140,336,o),
(186,336,cs),
(190,336,ls),
(234,336,o),
(258,326,o),
(258,290,c),
(340,290,l),
(340,362,o),
(282,408,o),
(188,408,cs),
(184,408,ls),
(90,408,o),
(34,352,o),
(34,280,cs),
(34,276,ls),
(34,220,o),
(54,178,o),
(100,148,cs),
(126,130,ls),
(152,112,o),
(160,100,o),
(160,68,cs),
(160,0,l),
(244,0,l)
);
}
);
width = 360;
},
{
guides = (
{
pos = (-18,0);
},
{
pos = (-18,400);
},
{
pos = (-18,300);
},
{
pos = (-18,-100);
}
);
layerId = m007;
shapes = (
{
closed = 1;
nodes = (
(226,66,ls),
(226,108,o),
(212,134,o),
(178,158,cs),
(150,178,ls),
(109,204,o),
(88,228,o),
(88,274,cs),
(88,278,ls),
(88,342,o),
(122,368,o),
(186,368,cs),
(190,368,ls),
(242,368,o),
(280,348,o),
(284,300,c),
(324,300,l),
(320,366,o),
(266,408,o),
(190,408,cs),
(186,408,ls),
(104,408,o),
(48,370,o),
(48,278,cs),
(48,274,ls),
(48,218,o),
(81,178,o),
(122,148,cs),
(152,128,ls),
(184,106,o),
(184,90,o),
(186,64,cs),
(186,0,l),
(226,0,l)
);
}
);
width = 360;
}
);
metricLeft = c.small;
metricRight = c.small;
},
{
export = 0;
glyphname = glottalstopsmall;
lastChange = "2025-11-28 20:21:00 +0000";
layers = (
{
guides = (
{
pos = (-8,330);
}
);
layerId = m003;
shapes = (
{
closed = 1;
nodes = (
(302,0,l),
(302,74,ls),
(302,96.667,o),
(310,109.333,o),
(330,128,cs),
(375,166,ls),
(425.667,207.333,o),
(459,251,o),
(459,327,cs),
(459,430.779,o),
(380.498,512,o),
(238,512,cs),
(93.023,512,o),
(12,440.637,o),
(12,330,c),
(182,330,l),
(182,366.412,o),
(192.335,389,o),
(231,389,cs),
(265.218,389,o),
(281,369.576,o),
(281,327,cs),
(281,292.333,o),
(270,277.667,o),
(246,259,cs),
(197,221,ls),
(154.333,187.667,o),
(137,154.667,o),
(137,108,cs),
(137,0,l)
);
}
);
width = 480;
},
{
guides = (
{
pos = (-8,350);
}
);
layerId = m004;
shapes = (
{
closed = 1;
nodes = (
(258,0,l),
(258,46,ls),
(258,91.333,o),
(266,109.333,o),
(298,136,cs),
(348,176,ls),
(414.667,229.333,o),
(436,268,o),
(436,340,cs),
(436,449.002,o),
(355.725,512,o),
(234,512,cs),
(116,512,o),
(34,448,o),
(30,350,c),
(126,350,l),
(129.979,397.744,o),
(174.738,424,o),
(232,424,cs),
(299.665,424,o),
(340,396.469,o),
(340,340,cs),
(340,292,o),
(319.333,272,o),
(282,240,cs),
(222,192,ls),
(179.333,160,o),
(162,120.667,o),
(162,62,cs),
(162,0,l)
);
}
);
width = 480;
},
{
guides = (
{
pos = (-8,360);
}
);
layerId = m007;
shapes = (
{
closed = 1;
nodes = (
(236,0,l),
(236,28,ls),
(234.667,85.333,o),
(241.333,111.333,o),
(284,146,cs),
(336,190,ls),
(401.333,243.333,o),
(422.667,282,o),
(424,346,cs),
(422.077,445.996,o),
(351.164,512,o),
(232,512,cs),
(134,512,o),
(42,446,o),
(42,360,c),
(80,360,l),
(80,428,o),
(152,478,o),
(232,480,cs),
(324.739,478.145,o),
(384,430.896,o),
(384,346,cs),
(384,291.333,o),
(365.333,262.667,o),
(312,216,cs),
(256,170,ls),
(212,134,o),
(196.667,99.333,o),
(198,30,cs),
(198,0,l)
);
}
);
width = 480;
}
);
unicode = 578;
},
{
export = 0;
glyphname = h.small;
lastChange = "2025-12-03 11:59:35 +0000";
layers = (
{
guides = (
{
},
{
pos = (0,400);
},
{
pos = (0,300);
},
{
pos = (0,-100);
}
);
layerId = m003;
shapes = (
{
closed = 1;
nodes = (
(178,0,l),
(178,148,ls),
(178,171,o),
(188,182,o),
(202,182,cs),
(206,182,ls),
(218,182,o),
(224,174,o),
(224,162,cs),
(224,0,l),
(378,0,l),
(378,194,ls),
(378,290,o),
(316,308,o),
(276,308,cs),
(272,308,ls),
(218,308,o),
(186,280,o),
(170,254,c),
(170,400,l),
(24,400,l),
(24,0,l)
);
}
);
width = 400;
},
{
guides = (
{
pos = (-22,0);
},
{
pos = (-22,400);
},
{
pos = (-22,300);
},
{
pos = (-22,-100);
}
);
layerId = m004;
shapes = (
{
closed = 1;
nodes = (
(128,0,l),
(128,156,ls),
(128,217,o),
(168,232,o),
(202,232,cs),
(206,232,ls),
(248,232,o),
(274,214,o),
(274,174,cs),
(274,0,l),
(354,0,l),
(354,192,ls),
(354,274,o),
(292,308,o),
(228,308,cs),
(224,308,ls),
(184,308,o),
(150,292,o),
(128,266,c),
(128,400,l),
(48,400,l),
(48,0,l)
);
}
);
width = 400;
},
{
guides = (
{
pos = (-22,0);
},
{
pos = (-22,400);
},
{
pos = (-22,300);
},
{
pos = (-22,-100);
}
);
layerId = m007;
shapes = (
{
closed = 1;
nodes = (
(104,0,l),
(104,160,ls),
(104,245,o),
(156,268,o),
(206,268,cs),
(210,268,ls),
(264,268,o),
(300,242,o),
(300,180,cs),
(300,0,l),
(340,0,l),
(340,192,ls),
(340,272,o),
(288,308,o),
(216,308,cs),
(212,308,ls),
(142,308,o),
(112,266,o),
(104,254,c),
(104,400,l),
(64,400,l),
(64,0,l)
);
}
);
width = 400;
}
);
metricLeft = n.small;
metricRight = n.small;
},
{
export = 0;
glyphname = hhook.small;
lastChange = "2025-12-03 11:59:58 +0000";
layers = (
{
guides = (
{
},
{
pos = (0,400);
},
{
pos = (0,300);
},
{
pos = (0,-100);
}
);
layerId = m003;
shapes = (
{
closed = 1;
nodes = (
(24,0,l),
(178,0,l),
(178,104,ls),
(178,129,o),
(188,142,o),
(202,142,cs),
(206,142,ls),
(218,142,o),
(224,132,o),
(224,120,cs),
(224,0,l),
(378,0,l),
(378,154,ls),
(378,230,o),
(340,268,o),
(282,268,cs),
(278,268,ls),
(222,268,o),
(192,238,o),
(178,210,c),
(178,270,ls),
(178,292,o),
(186,300,o),
(208,300,cs),
(288,300,l),
(288,400,l),
(136,400,ls),
(64,400,o),
(24,368,o),
(24,296,cs)
);
}
);
width = 400;
},
{
guides = (
{
pos = (-22,0);
},
{
pos = (-22,400);
},
{
pos = (-22,300);
},
{
pos = (-22,-100);
}
);
layerId = m004;
shapes = (
{
closed = 1;
nodes = (
(48,0,l),
(128,0,l),
(128,116,ls),
(128,173,o),
(158,192,o),
(204,192,cs),
(208,192,ls),
(242,192,o),
(274,174,o),
(274,134,cs),
(274,0,l),
(354,0,l),
(354,148,ls),
(354,232,o),
(296,268,o),
(224,268,cs),
(220,268,ls),
(184,268,o),
(148,254,o),
(128,230,c),
(128,288,ls),
(128,314,o),
(142,328,o),
(168,328,cs),
(288,328,l),
(288,400,l),
(158,400,ls),
(86,400,o),
(48,362,o),
(48,290,cs)
);
}
);
width = 400;
},
{
guides = (
{
pos = (-22,0);
},
{
pos = (-22,400);
},
{
pos = (-22,300);
},
{
pos = (-22,-100);
}
);
layerId = m007;
shapes = (
{
closed = 1;
nodes = (
(64,0,l),
(104,0,l),
(104,120,ls),
(104,201,o),
(154,228,o),
(204,228,cs),
(208,228,ls),
(266,228,o),
(300,204,o),
(300,140,cs),
(300,0,l),
(340,0,l),
(340,152,ls),
(340,226,o),
(290,268,o),
(212,268,cs),
(208,268,ls),
(160,268,o),
(126,250,o),
(104,220,c),
(104,320,ls),
(104,346,o),
(118,360,o),
(144,360,cs),
(288,360,l),
(288,400,l),
(144,400,ls),
(90,400,o),
(64,374,o),
(64,320,cs)
);
}
);
width = 400;
}
);
},
{
export = 0;
glyphname = i.small;
lastChange = "2025-12-01 17:49:20 +0000";
layers = (
{
guides = (
{
},
{
pos = (0,400);
},
{
pos = (0,300);
},
{
pos = (0,-100);
}
);
layerId = m003;
shapes = (
{
closed = 1;
nodes = (
(178,0,l),
(178,300,l),
(24,300,l),
(24,0,l)
);
},
{
closed = 1;
nodes = (
(156,328,o),
(188,354,o),
(188,388,cs),
(188,392,ls),
(188,426,o),
(156,452,o),
(100,452,cs),
(44,452,o),
(14,426,o),
(14,392,cs),
(14,388,ls),
(14,354,o),
(44,328,o),
(100,328,cs)
);
}
);
width = 200;
},
{
guides = (
{
pos = (-32,0);
},
{
pos = (-32,400);
},
{
pos = (-32,300);
},
{
pos = (-32,-100);
}
);
layerId = m004;
shapes = (
{
closed = 1;
nodes = (
(140,0,l),
(140,300,l),
(60,300,l),
(60,0,l)
);
},
{
closed = 1;
nodes = (
(140,346,o),
(156,362,o),
(156,386,cs),
(156,388,ls),
(156,412,o),
(140,428,o),
(100,428,cs),
(62,428,o),
(44,412,o),
(44,388,cs),
(44,386,ls),
(44,362,o),
(62,346,o),
(100,346,cs)
);
}
);
width = 200;
},
{
guides = (
{
pos = (-32,0);
},
{
pos = (-32,400);
},
{
pos = (-32,300);
},
{
pos = (-32,-100);
}
);
layerId = m007;
shapes = (
{
closed = 1;
nodes = (
(120,0,l),
(120,300,l),
(80,300,l),
(80,0,l)
);
},
{
closed = 1;
nodes = (
(122,360,o),
(132,370,o),
(132,386,cs),
(132,388,ls),
(132,404,o),
(122,414,o),
(100,414,cs),
(78,414,o),
(68,404,o),
(68,388,cs),
(68,386,ls),
(68,370,o),
(78,360,o),
(100,360,cs)
);
}
);
width = 200;
}
);
userData = {
KernOnName = i;
};
},
{
export = 0;
glyphname = j.small;
lastChange = "2025-12-01 17:49:24 +0000";
layers = (
{
guides = (
{
},
{
pos = (0,400);
},
{
pos = (0,300);
},
{
pos = (0,-100);
}
);
layerId = m003;
shapes = (
{
closed = 1;
nodes = (
(24,300,l),
(24,18,ls),
(24,4,o),
(18,-2,o),
(4,-2,cs),
(-20,-2,l),
(-20,-100,l),
(98,-100,ls),
(152,-100,o),
(178,-74,o),
(178,-20,cs),
(178,300,l)
);
},
{
closed = 1;
nodes = (
(156,328,o),
(188,354,o),
(188,388,cs),
(188,392,ls),
(188,426,o),
(156,452,o),
(100,452,cs),
(44,452,o),
(14,426,o),
(14,392,cs),
(14,388,ls),
(14,354,o),
(44,328,o),
(100,328,cs)
);
}
);
width = 200;
},
{
guides = (
{
},
{
pos = (0,400);
},
{
pos = (0,300);
},
{
pos = (0,-100);
}
);
layerId = m004;
shapes = (
{
closed = 1;
nodes = (
(60,300,l),
(60,12,ls),
(60,-14,o),
(46,-28,o),
(20,-28,cs),
(-20,-28,l),
(-20,-100,l),
(40,-100,ls),
(104,-100,o),
(140,-64,o),
(140,0,cs),
(140,300,l)
);
},
{
closed = 1;
nodes = (
(140,346,o),
(156,362,o),
(156,386,cs),
(156,388,ls),
(156,412,o),
(140,428,o),
(100,428,cs),
(62,428,o),
(44,412,o),
(44,388,cs),
(44,386,ls),
(44,362,o),
(62,346,o),
(100,346,cs)
);
}
);
width = 200;
},
{
guides = (
{
},
{
pos = (0,400);
},
{
pos = (0,300);
},
{
pos = (0,-100);
}
);
layerId = m007;
shapes = (
{
closed = 1;
nodes = (
(80,300,l),
(80,-20,ls),
(80,-46,o),
(66,-60,o),
(40,-60,cs),
(-20,-60,l),
(-20,-100,l),
(40,-100,ls),
(94,-100,o),
(120,-74,o),
(120,-20,cs),
(120,300,l)
);
},
{
closed = 1;
nodes = (
(122,360,o),
(132,370,o),
(132,386,cs),
(132,388,ls),
(132,404,o),
(122,414,o),
(100,414,cs),
(78,414,o),
(68,404,o),
(68,388,cs),
(68,386,ls),
(68,370,o),
(78,360,o),
(100,360,cs)
);
}
);
width = 200;
}
);
metricRight = i.small;
userData = {
KernOnName = j;
};
},
{
export = 0;
glyphname = k.small;
lastChange = "2025-12-01 17:49:29 +0000";
layers = (
{
guides = (
{
},
{
pos = (0,400);
},
{
pos = (0,300);
},
{
pos = (0,-100);
}
);
layerId = m003;
shapes = (
{
closed = 1;
nodes = (
(178,0,l),
(178,100,l),
(184,110,l),
(234,0,l),
(396,0,l),
(308,186,l),
(398,300,l),
(240,300,l),
(178,210,l),
(178,400,l),
(24,400,l),
(24,0,l)
);
}
);
width = 400;
},
{
guides = (
{
pos = (-22,0);
},
{
pos = (-22,400);
},
{
pos = (-22,300);
},
{
pos = (-22,-100);
}
);
layerId = m004;
shapes = (
{
closed = 1;
nodes = (
(128,0,l),
(128,92,l),
(186,144,l),
(280,0,l),
(376,0,l),
(252,188,l),
(378,300,l),
(270,300,l),
(128,178,l),
(128,400,l),
(48,400,l),
(48,0,l)
);
}
);
width = 400;
},
{
guides = (
{
pos = (-22,0);
},
{
pos = (-22,400);
},
{
pos = (-22,300);
},
{
pos = (-22,-100);
}
);
layerId = m007;
shapes = (
{
closed = 1;
nodes = (
(104,0,l),
(104,102,l),
(194,172,l),
(318,0,l),
(364,0,l),
(224,194,l),
(360,300,l),
(302,300,l),
(104,148,l),
(104,400,l),
(64,400,l),
(64,0,l)
);
}
);
width = 400;
}
);
metricLeft = n.small;
metricRight = x.small;
userData = {
KernOnName = k;
};
},
{
export = 0;
glyphname = l.small;
lastChange = "2025-12-01 17:49:34 +0000";
layers = (
{
guides = (
{
},
{
pos = (0,400);
},
{
pos = (0,300);
},
{
pos = (0,-100);
}
);
layerId = m003;
shapes = (
{
closed = 1;
nodes = (
(178,0,l),
(178,400,l),
(24,400,l),
(24,0,l)
);
}
);
width = 200;
},
{
guides = (
{
pos = (-34,0);
},
{
pos = (-34,400);
},
{
pos = (-34,300);
},
{
pos = (-34,-100);
}
);
layerId = m004;
shapes = (
{
closed = 1;
nodes = (
(140,0,l),
(140,400,l),
(60,400,l),
(60,0,l)
);
}
);
width = 200;
},
{
guides = (
{
pos = (-34,0);
},
{
pos = (-34,400);
},
{
pos = (-34,300);
},
{
pos = (-34,-100);
}
);
layerId = m007;
shapes = (
{
closed = 1;
nodes = (
(120,0,l),
(120,400,l),
(80,400,l),
(80,0,l)
);
}
);
width = 200;
}
);
},
{
export = 0;
glyphname = m.small;
lastChange = "2025-12-03 12:00:17 +0000";
layers = (
{
guides = (
{
},
{
pos = (0,400);
},
{
pos = (0,300);
},
{
pos = (0,-100);
}
);
layerId = m003;
shapes = (
{
closed = 1;
nodes = (
(178,0,l),
(178,142,ls),
(178,171,o),
(188,184,o),
(204,184,cs),
(208,184,ls),
(216,184,o),
(224,178,o),
(224,164,cs),
(224,0,l),
(378,0,l),
(378,142,ls),
(378,171,o),
(388,184,o),
(404,184,cs),
(408,184,ls),
(416,184,o),
(424,178,o),
(424,164,cs),
(424,0,l),
(578,0,l),
(578,194,ls),
(578,268,o),
(540,308,o),
(474,308,cs),
(470,308,ls),
(416,308,o),
(380,278,o),
(364,244,c),
(356,282,o),
(324,308,o),
(278,308,cs),
(274,308,ls),
(224,308,o),
(192,282,o),
(178,256,c),
(178,300,l),
(24,300,l),
(24,0,l)
);
}
);
width = 600;
},
{
guides = (
{
pos = (-22,0);
},
{
pos = (-22,400);
},
{
pos = (-22,300);
},
{
pos = (-22,-100);
}
);
layerId = m004;
shapes = (
{
closed = 1;
nodes = (
(128,0,l),
(128,168,ls),
(128,205,o),
(156,232,o),
(198,232,cs),
(202,232,ls),
(238,232,o),
(260,212,o),
(260,180,cs),
(260,0,l),
(340,0,l),
(340,168,ls),
(340,205,o),
(370,232,o),
(412,232,cs),
(416,232,ls),
(452,232,o),
(474,212,o),
(474,180,cs),
(474,0,l),
(554,0,l),
(554,196,ls),
(554,266,o),
(506,308,o),
(434,308,cs),
(430,308,ls),
(378,308,o),
(344,282,o),
(326,250,c),
(316,284,o),
(278,308,o),
(232,308,cs),
(228,308,ls),
(182,308,o),
(150,292,o),
(128,268,c),
(128,300,l),
(48,300,l),
(48,0,l)
);
}
);
width = 600;
},
{
guides = (
{
pos = (-22,0);
},
{
pos = (-22,400);
},
{
pos = (-22,300);
},
{
pos = (-22,-100);
}
);
layerId = m007;
shapes = (
{
closed = 1;
nodes = (
(104,0,l),
(104,188,ls),
(104,233,o),
(144,268,o),
(194,268,cs),
(198,268,ls),
(250,268,o),
(280,234,o),
(280,186,cs),
(280,0,l),
(320,0,l),
(320,184,ls),
(320,233,o),
(354,268,o),
(410,268,cs),
(414,268,ls),
(468,268,o),
(500,242,o),
(500,188,cs),
(500,0,l),
(540,0,l),
(540,188,ls),
(540,266,o),
(488,308,o),
(416,308,cs),
(412,308,ls),
(358,308,o),
(328,286,o),
(306,252,c),
(290,286,o),
(254,308,o),
(202,308,cs),
(198,308,ls),
(150,308,o),
(118,286,o),
(104,262,c),
(104,300,l),
(64,300,l),
(64,0,l)
);
}
);
width = 600;
}
);
metricLeft = n.small;
metricRight = n.small;
},
{
export = 0;
glyphname = n.small;
lastChange = "2025-12-03 12:00:28 +0000";
layers = (
{
guides = (
{
},
{
pos = (0,400);
},
{
pos = (0,300);
},
{
pos = (0,-100);
}
);
layerId = m003;
shapes = (
{
closed = 1;
nodes = (
(178,0,l),
(178,144,ls),
(178,169,o),
(184,182,o),
(202,182,cs),
(206,182,ls),
(220,182,o),
(224,172,o),
(224,158,cs),
(224,0,l),
(378,0,l),
(378,194,ls),
(378,270,o),
(340,308,o),
(282,308,cs),
(278,308,ls),
(222,308,o),
(190,282,o),
(170,250,c),
(170,300,l),
(24,300,l),
(24,0,l)
);
}
);
width = 400;
},
{
guides = (
{
pos = (-22,0);
},
{
pos = (-22,400);
},
{
pos = (-22,300);
},
{
pos = (-22,-100);
}
);
layerId = m004;
shapes = (
{
closed = 1;
nodes = (
(128,0,l),
(128,156,ls),
(128,217,o),
(166,232,o),
(202,232,cs),
(206,232,ls),
(248,232,o),
(274,214,o),
(274,174,cs),
(274,0,l),
(354,0,l),
(354,192,ls),
(354,274,o),
(292,308,o),
(228,308,cs),
(224,308,ls),
(182,308,o),
(150,292,o),
(128,266,c),
(128,300,l),
(48,300,l),
(48,0,l)
);
}
);
width = 400;
},
{
guides = (
{
pos = (-22,0);
},
{
pos = (-22,400);
},
{
pos = (-22,300);
},
{
pos = (-22,-100);
}
);
layerId = m007;
shapes = (
{
closed = 1;
nodes = (
(104,0,l),
(104,160,ls),
(104,245,o),
(156,268,o),
(206,268,cs),
(210,268,ls),
(264,268,o),
(300,242,o),
(300,180,cs),
(300,0,l),
(340,0,l),
(340,192,ls),
(340,272,o),
(288,308,o),
(216,308,cs),
(212,308,ls),
(140,308,o),
(112,268,o),
(104,256,c),
(104,300,l),
(64,300,l),
(64,0,l)
);
}
);
width = 400;
}
);
userData = {
KernOnName = n;
};
},
{
export = 0;
glyphname = o.small;
lastChange = "2025-12-03 12:00:54 +0000";
layers = (
{
guides = (
{
},
{
pos = (0,400);
},
{
pos = (0,300);
},
{
pos = (0,-100);
}
);
layerId = m003;
shapes = (
{
closed = 1;
nodes = (
(318,-8,o),
(388,50,o),
(388,148,cs),
(388,152,ls),
(388,248,o),
(318,308,o),
(202,308,cs),
(198,308,ls),
(84,308,o),
(14,248,o),
(14,152,cs),
(14,148,ls),
(14,52,o),
(86,-8,o),
(198,-8,cs),
(202,-8,ls)
);
},
{
closed = 1;
nodes = (
(198,98,ls),
(174,98,o),
(166,120,o),
(166,148,cs),
(166,152,ls),
(166,178,o),
(172,204,o),
(198,204,cs),
(202,204,ls),
(228,204,o),
(234,180,o),
(234,152,cs),
(234,148,ls),
(234,124,o),
(230,98,o),
(202,98,cs)
);
}
);
width = 400;
},
{
guides = (
{
pos = (-18,0);
},
{
pos = (-18,400);
},
{
pos = (-18,300);
},
{
pos = (-18,-100);
}
);
layerId = m004;
shapes = (
{
closed = 1;
nodes = (
(304,-8,o),
(368,48,o),
(368,148,cs),
(368,152,ls),
(368,250,o),
(304,308,o),
(202,308,cs),
(198,308,ls),
(100,308,o),
(34,252,o),
(34,152,cs),
(34,148,ls),
(34,48,o),
(102,-8,o),
(198,-8,cs),
(202,-8,ls)
);
},
{
closed = 1;
nodes = (
(198,64,ls),
(152,64,o),
(114,90,o),
(114,148,cs),
(114,152,ls),
(114,212,o),
(152,236,o),
(198,236,cs),
(202,236,ls),
(252,236,o),
(288,208,o),
(288,152,cs),
(288,148,ls),
(288,106,o),
(264,64,o),
(202,64,cs)
);
}
);
width = 400;
},
{
guides = (
{
pos = (-18,0);
},
{
pos = (-18,400);
},
{
pos = (-18,300);
},
{
pos = (-18,-100);
}
);
layerId = m007;
shapes = (
{
closed = 1;
nodes = (
(282,-8,o),
(352,38,o),
(352,148,cs),
(352,152,ls),
(352,260,o),
(284,308,o),
(202,308,cs),
(198,308,ls),
(120,308,o),
(48,264,o),
(48,152,cs),
(48,148,ls),
(48,34,o),
(124,-8,o),
(198,-8,cs),
(202,-8,ls)
);
},
{
closed = 1;
nodes = (
(198,32,ls),
(134,32,o),
(88,72,o),
(88,148,cs),
(88,152,ls),
(88,228,o),
(132,268,o),
(198,268,cs),
(202,268,ls),
(266,268,o),
(312,228,o),
(312,152,cs),
(312,148,ls),
(312,70,o),
(266,32,o),
(202,32,cs)
);
}
);
width = 400;
}
);
userData = {
KernOnName = o;
};
},
{
export = 0;
glyphname = r.small;
lastChange = "2025-12-01 17:49:52 +0000";
layers = (
{
guides = (
{
},
{
pos = (0,400);
},
{
pos = (0,300);
},
{
pos = (0,-100);
}
);
layerId = m003;
shapes = (
{
closed = 1;
nodes = (
(178,0,l),
(178,104,ls),
(178,150,o),
(194,174,o),
(240,174,cs),
(272,174,l),
(272,300,l),
(244,300,ls),
(214,300,o),
(188,288,o),
(178,258,c),
(178,300,l),
(24,300,l),
(24,0,l)
);
}
);
width = 280;
},
{
guides = (
{
pos = (-22,0);
},
{
pos = (-22,400);
},
{
pos = (-22,300);
},
{
pos = (-22,-100);
}
);
layerId = m004;
shapes = (
{
closed = 1;
nodes = (
(128,0,l),
(128,132,ls),
(128,190,o),
(158,220,o),
(216,220,cs),
(254,220,l),
(254,300,l),
(218,300,ls),
(178,300,o),
(142,282,o),
(128,250,c),
(128,300,l),
(48,300,l),
(48,0,l)
);
}
);
width = 280;
},
{
guides = (
{
pos = (-22,0);
},
{
pos = (-22,400);
},
{
pos = (-22,300);
},
{
pos = (-22,-100);
}
);
layerId = m007;
shapes = (
{
closed = 1;
nodes = (
(104,0,l),
(104,142,ls),
(104,224,o),
(136,260,o),
(200,260,cs),
(244,260,l),
(244,300,l),
(200,300,ls),
(150,300,o),
(118,282,o),
(104,252,c),
(104,300,l),
(64,300,l),
(64,0,l)
);
}
);
width = 280;
}
);
metricLeft = n.small;
userData = {
KernOnName = r;
};
},
{
export = 0;
glyphname = s.small;
lastChange = "2025-12-03 12:02:23 +0000";
layers = (
{
guides = (
{
},
{
pos = (0,400);
},
{
pos = (0,300);
},
{
pos = (0,-100);
},
{
pos = (0,200);
},
{
pos = (0,100);
}
);
layerId = m003;
shapes = (
{
closed = 1;
nodes = (
(276,-8,o),
(352,16,o),
(352,96,cs),
(352,100,ls),
(352,158,o),
(312,180,o),
(246,188,cs),
(182,196,ls),
(166,198,o),
(156,202,o),
(156,210,cs),
(156,214,ls),
(156,222,o),
(164,226,o),
(176,226,cs),
(180,226,ls),
(194,226,o),
(204,220,o),
(204,200,c),
(350,200,l),
(346,280,o),
(260,308,o),
(178,308,cs),
(174,308,ls),
(70,308,o),
(10,270,o),
(10,208,cs),
(10,204,ls),
(10,146,o),
(46,124,o),
(114,116,cs),
(170,110,ls),
(190,108,o),
(204,106,o),
(204,94,cs),
(204,90,ls),
(204,82,o),
(198,78,o),
(182,78,cs),
(178,78,ls),
(164,78,o),
(154,86,o),
(154,100,c),
(10,100,l),
(14,22,o),
(76,-8,o),
(178,-8,cs),
(182,-8,ls)
);
}
);
width = 360;
},
{
guides = (
{
pos = (-22,0);
},
{
pos = (-22,400);
},
{
pos = (-22,300);
},
{
pos = (-22,-100);
},
{
pos = (-22,90);
},
{
pos = (-22,210);
}
);
layerId = m004;
shapes = (
{
closed = 1;
nodes = (
(266,-8,o),
(328,18,o),
(328,86,cs),
(328,90,ls),
(328,162,o),
(278,172,o),
(218,182,cs),
(172,188,ls),
(146,192,o),
(124,198,o),
(124,214,cs),
(124,218,ls),
(124,234,o),
(146,240,o),
(178,240,cs),
(182,240,ls),
(212,240,o),
(246,236,o),
(246,210,c),
(326,210,l),
(326,272,o),
(264,308,o),
(180,308,cs),
(176,308,ls),
(96,308,o),
(36,276,o),
(36,218,cs),
(36,214,ls),
(36,152,o),
(86,128,o),
(144,120,cs),
(188,114,ls),
(216,108,o),
(240,104,o),
(240,88,cs),
(240,84,ls),
(240,66,o),
(218,60,o),
(184,60,cs),
(180,60,ls),
(142,60,o),
(112,62,o),
(112,90,c),
(32,90,l),
(32,14,o),
(104,-8,o),
(180,-8,cs),
(184,-8,ls)
);
}
);
width = 360;
},
{
guides = (
{
pos = (-22,0);
},
{
pos = (-22,400);
},
{
pos = (-22,300);
},
{
pos = (-22,-100);
},
{
pos = (-22,80);
},
{
pos = (-22,220);
}
);
layerId = m007;
shapes = (
{
closed = 1;
nodes = (
(268,-8,o),
(312,24,o),
(312,78,cs),
(312,82,ls),
(312,134,o),
(276,162,o),
(208,172,cs),
(172,178,ls),
(128,186,o),
(94,190,o),
(94,222,cs),
(94,226,ls),
(94,260,o),
(130,268,o),
(178,268,cs),
(182,268,ls),
(224,268,o),
(264,258,o),
(268,220,c),
(308,220,l),
(304,276,o),
(254,308,o),
(182,308,cs),
(178,308,ls),
(106,308,o),
(54,282,o),
(54,226,cs),
(54,222,ls),
(54,168,o),
(94,150,o),
(158,140,cs),
(194,134,ls),
(242,124,o),
(272,116,o),
(272,82,cs),
(272,78,ls),
(272,46,o),
(240,32,o),
(184,32,cs),
(180,32,ls),
(132,32,o),
(92,42,o),
(88,80,c),
(48,80,l),
(52,24,o),
(96,-6,o),
(180,-8,cs),
(184,-8,ls)
);
}
);
width = 360;
}
);
userData = {
KernOnName = s;
};
},
{
export = 0;
glyphname = t.small;
lastChange = "2025-12-01 17:50:00 +0000";
layers = (
{
guides = (
{
},
{
pos = (0,400);
},
{
pos = (0,300);
},
{
pos = (0,-100);
}
);
layerId = m003;
shapes = (
{
closed = 1;
nodes = (
(6,300,l),
(6,204,l),
(268,204,l),
(268,300,l)
);
},
{
closed = 1;
nodes = (
(44,80,ls),
(44,26,o),
(70,0,o),
(124,0,cs),
(268,0,l),
(268,98,l),
(218,98,ls),
(204,98,o),
(198,104,o),
(198,118,cs),
(198,350,l),
(44,350,l)
);
}
);
width = 280;
},
{
guides = (
{
pos = (-8,0);
},
{
pos = (-8,400);
},
{
pos = (-8,300);
},
{
pos = (-8,-100);
}
);
layerId = m004;
shapes = (
{
closed = 1;
nodes = (
(16,300,l),
(16,228,l),
(252,228,l),
(252,300,l)
);
},
{
closed = 1;
nodes = (
(78,100,ls),
(78,34,o),
(112,0,o),
(178,0,cs),
(252,0,l),
(252,72,l),
(198,72,ls),
(172,72,o),
(158,86,o),
(158,112,cs),
(158,350,l),
(78,350,l)
);
}
);
width = 280;
},
{
guides = (
{
pos = (-8,0);
},
{
pos = (-8,400);
},
{
pos = (-8,300);
},
{
pos = (-8,-100);
}
);
layerId = m007;
shapes = (
{
closed = 1;
nodes = (
(22,300,l),
(22,260,l),
(244,260,l),
(244,300,l)
);
},
{
closed = 1;
nodes = (
(98,80,ls),
(98,26,o),
(124,0,o),
(178,0,cs),
(244,0,l),
(244,40,l),
(178,40,ls),
(152,40,o),
(138,54,o),
(138,80,cs),
(138,350,l),
(98,350,l)
);
}
);
width = 280;
}
);
metricLeft = f.small;
userData = {
KernOnName = t;
};
},
{
export = 0;
glyphname = v.small;
lastChange = "2025-12-01 17:50:06 +0000";
layers = (
{
guides = (
{
},
{
pos = (0,400);
},
{
pos = (0,300);
},
{
pos = (0,-100);
}
);
layerId = m003;
shapes = (
{
closed = 1;
nodes = (
(302,0,l),
(378,300,l),
(220,300,l),
(194,148,l),
(168,300,l),
(4,300,l),
(82,0,l)
);
}
);
width = 380;
},
{
guides = (
{
pos = (-16,0);
},
{
pos = (-16,400);
},
{
pos = (-16,300);
},
{
pos = (-16,-100);
}
);
layerId = m004;
shapes = (
{
closed = 1;
nodes = (
(246,0,l),
(358,300,l),
(270,300,l),
(192,80,l),
(112,300,l),
(24,300,l),
(136,0,l)
);
}
);
width = 380;
},
{
guides = (
{
pos = (-16,0);
},
{
pos = (-16,400);
},
{
pos = (-16,300);
},
{
pos = (-16,-100);
}
);
layerId = m007;
shapes = (
{
closed = 1;
nodes = (
(214,0,l),
(344,300,l),
(300,300,l),
(192,44,l),
(80,300,l),
(36,300,l),
(168,0,l)
);
}
);
width = 380;
}
);
userData = {
KernOnName = v;
};
},
{
export = 0;
glyphname = w.small;
lastChange = "2025-12-01 17:50:10 +0000";
layers = (
{
guides = (
{
},
{
pos = (0,400);
},
{
pos = (0,300);
},
{
pos = (0,-100);
}
);
layerId = m003;
shapes = (
{
closed = 1;
nodes = (
(240,0,l),
(272,136,l),
(302,0,l),
(474,0,l),
(538,300,l),
(398,300,l),
(378,150,l),
(346,300,l),
(216,300,l),
(180,150,l),
(164,300,l),
(4,300,l),
(66,0,l)
);
}
);
width = 540;
},
{
guides = (
{
pos = (-16,0);
},
{
pos = (-16,400);
},
{
pos = (-16,300);
},
{
pos = (-16,-100);
}
);
layerId = m004;
shapes = (
{
closed = 1;
nodes = (
(214,0,l),
(272,194,l),
(328,0,l),
(428,0,l),
(518,300,l),
(430,300,l),
(374,100,l),
(314,300,l),
(226,300,l),
(168,100,l),
(112,300,l),
(24,300,l),
(114,0,l)
);
}
);
width = 540;
},
{
guides = (
{
pos = (-16,0);
},
{
pos = (-16,400);
},
{
pos = (-16,300);
},
{
pos = (-16,-100);
}
);
layerId = m007;
shapes = (
{
closed = 1;
nodes = (
(182,0,l),
(270,254,l),
(358,0,l),
(408,0,l),
(504,300,l),
(460,300,l),
(384,44,l),
(292,300,l),
(248,300,l),
(158,44,l),
(80,300,l),
(36,300,l),
(132,0,l)
);
}
);
width = 540;
}
);
metricLeft = v.small;
metricRight = v.small;
userData = {
KernOnName = w;
};
},
{
export = 0;
glyphname = x.small;
lastChange = "2025-12-01 17:50:13 +0000";
layers = (
{
guides = (
{
},
{
pos = (0,400);
},
{
pos = (0,300);
},
{
pos = (0,-100);
}
);
layerId = m003;
shapes = (
{
closed = 1;
nodes = (
(164,0,l),
(198,70,l),
(230,0,l),
(398,0,l),
(308,152,l),
(390,300,l),
(232,300,l),
(206,232,l),
(178,300,l),
(10,300,l),
(94,152,l),
(4,0,l)
);
}
);
width = 400;
},
{
guides = (
{
pos = (-16,0);
},
{
pos = (-16,400);
},
{
pos = (-16,300);
},
{
pos = (-16,-100);
}
);
layerId = m004;
shapes = (
{
closed = 1;
nodes = (
(126,0,l),
(200,100,l),
(270,0,l),
(378,0,l),
(260,152,l),
(372,300,l),
(270,300,l),
(204,200,l),
(136,300,l),
(30,300,l),
(142,152,l),
(24,0,l)
);
}
);
width = 400;
},
{
guides = (
{
pos = (-16,0);
},
{
pos = (-16,400);
},
{
pos = (-16,300);
},
{
pos = (-16,-100);
}
);
layerId = m007;
shapes = (
{
closed = 1;
nodes = (
(86,0,l),
(200,126,l),
(314,0,l),
(364,0,l),
(226,150,l),
(360,300,l),
(310,300,l),
(200,174,l),
(92,300,l),
(42,300,l),
(174,150,l),
(36,0,l)
);
}
);
width = 400;
}
);
userData = {
KernOnName = x;
};
},
{
export = 0;
glyphname = y.small;
lastChange = "2025-12-01 17:50:17 +0000";
layers = (
{
guides = (
{
},
{
pos = (0,400);
},
{
pos = (0,300);
},
{
pos = (0,-100);
}
);
layerId = m003;
shapes = (
{
closed = 1;
nodes = (
(154,-100,ls),
(228,-100,o),
(260,-74,o),
(282,-2,cs),
(378,300,l),
(220,300,l),
(194,172,l),
(168,300,l),
(4,300,l),
(98,28,l),
(94,16,ls),
(90,4,o),
(84,0,o),
(68,0,cs),
(32,0,l),
(32,-100,l)
);
}
);
width = 380;
},
{
guides = (
{
pos = (-16,0);
},
{
pos = (-16,400);
},
{
pos = (-16,300);
},
{
pos = (-16,-100);
}
);
layerId = m004;
shapes = (
{
closed = 1;
nodes = (
(128,-100,ls),
(190,-100,o),
(218,-76,o),
(240,-18,cs),
(358,300,l),
(270,300,l),
(200,102,l),
(114,300,l),
(24,300,l),
(154,10,l),
(150,-2,ls),
(144,-20,o),
(126,-28,o),
(104,-28,cs),
(52,-28,l),
(52,-100,l)
);
}
);
width = 380;
},
{
guides = (
{
pos = (-16,0);
},
{
pos = (-16,400);
},
{
pos = (-16,300);
},
{
pos = (-16,-100);
}
);
layerId = m007;
shapes = (
{
closed = 1;
nodes = (
(112,-100,ls),
(162,-100,o),
(186,-82,o),
(204,-34,cs),
(344,300,l),
(300,300,l),
(198,44,l),
(82,300,l),
(36,300,l),
(176,2,l),
(162,-28,ls),
(148,-54,o),
(142,-60,o),
(112,-60,cs),
(72,-60,l),
(72,-100,l)
);
}
);
width = 380;
}
);
metricLeft = v.small;
metricRight = v.small;
userData = {
KernOnName = y;
};
},
{
export = 0;
glyphname = z.small;
lastChange = "2025-12-01 17:50:21 +0000";
layers = (
{
guides = (
{
},
{
pos = (0,400);
},
{
pos = (0,300);
},
{
pos = (0,-100);
}
);
layerId = m003;
shapes = (
{
closed = 1;
nodes = (
(338,0,l),
(338,98,l),
(220,98,l),
(340,226,l),
(340,300,l),
(26,300,l),
(26,204,l),
(140,204,l),
(22,76,l),
(22,0,l)
);
}
);
width = 360;
},
{
guides = (
{
pos = (-6,0);
},
{
pos = (-6,400);
},
{
pos = (-6,300);
},
{
pos = (-6,-100);
}
);
layerId = m004;
shapes = (
{
closed = 1;
nodes = (
(326,0,l),
(326,72,l),
(158,72,l),
(326,240,l),
(326,300,l),
(34,300,l),
(34,228,l),
(202,228,l),
(34,62,l),
(34,0,l)
);
}
);
width = 360;
},
{
guides = (
{
pos = (-6,0);
},
{
pos = (-6,400);
},
{
pos = (-6,300);
},
{
pos = (-6,-100);
}
);
layerId = m007;
shapes = (
{
closed = 1;
nodes = (
(320,0,l),
(320,40,l),
(98,40,l),
(320,264,l),
(320,300,l),
(40,300,l),
(40,260,l),
(262,260,l),
(40,36,l),
(40,0,l)
);
}
);
width = 360;
}
);
},
{
glyphname = f_f;
kernLeft = t;
kernRight = f;
lastChange = "2025-12-01 13:53:27 +0000";
layers = (
{
anchors = (
{
name = caret_1;
pos = (367,0);
},
{
name = top;
pos = (240,700);
}
);
layerId = m003;
shapes = (
{
closed = 1;
nodes = (
(558,358,l),
(558,500,l),
(170,500,l),
(170,358,l)
);
},
{
closed = 1;
nodes = (
(394,358,l),
(394,500,l),
(12,500,l),
(12,358,l)
);
},
{
closed = 1;
nodes = (
(280,0,l),
(280,536,ls),
(280,554,o),
(290,566,o),
(308,566,cs),
(380,566,l),
(380,700,l),
(230,700,ls),
(142,700,o),
(96,656,o),
(96,568,cs),
(96,0,l)
);
},
{
pos = (320,0);
ref = f;
}
);
width = 740;
},
{
anchors = (
{
name = caret_1;
pos = (360,0);
},
{
name = top;
pos = (240,700);
}
);
layerId = m004;
shapes = (
{
closed = 1;
nodes = (
(546,412,l),
(546,500,l),
(178,500,l),
(178,412,l)
);
},
{
closed = 1;
nodes = (
(372,412,l),
(372,500,l),
(30,500,l),
(30,412,l)
);
},
{
closed = 1;
nodes = (
(226,0,l),
(226,544,ls),
(226,592,o),
(248,612,o),
(296,612,cs),
(372,612,l),
(372,700,l),
(268,700,ls),
(174,700,o),
(130,658,o),
(130,570,cs),
(130,0,l)
);
},
{
pos = (320,0);
ref = f;
}
);
width = 740;
},
{
anchors = (
{
name = caret_1;
pos = (360,0);
},
{
name = top;
pos = (240,700);
}
);
layerId = m007;
shapes = (
{
closed = 1;
nodes = (
(496,460,l),
(496,500,l),
(168,500,l),
(168,460,l)
);
},
{
closed = 1;
nodes = (
(364,460,l),
(364,500,l),
(36,500,l),
(36,460,l)
);
},
{
closed = 1;
nodes = (
(192,0,l),
(192,572,ls),
(192,630,o),
(222,660,o),
(280,660,cs),
(364,660,l),
(364,700,l),
(280,700,ls),
(194,700,o),
(152,658,o),
(152,572,cs),
(152,0,l)
);
},
{
pos = (320,0);
ref = f;
}
);
width = 740;
}
);
metricLeft = tau;
metricRight = f;
},
{
glyphname = f_f_i;
kernLeft = t;
kernRight = I;
lastChange = "2025-12-01 13:54:02 +0000";
layers = (
{
anchors = (
{
name = caret_1;
pos = (360,0);
},
{
name = caret_2;
pos = (660,2);
},
{
name = top;
pos = (240,700);
}
);
layerId = m003;
shapes = (
{
closed = 1;
nodes = (
(742,358,l),
(920,500,l),
(198,500,l),
(198,358,l)
);
},
{
closed = 1;
nodes = (
(654,566,l),
(920,566,l),
(920,700,l),
(654,700,l)
);
},
{
pos = (698,0);
ref = idotless;
},
{
closed = 1;
nodes = (
(394,358,l),
(394,500,l),
(12,500,l),
(12,358,l)
);
},
{
closed = 1;
nodes = (
(280,0,l),
(280,536,ls),
(280,554,o),
(290,566,o),
(308,566,cs),
(380,566,l),
(380,700,l),
(230,700,ls),
(142,700,o),
(96,656,o),
(96,568,cs),
(96,0,l)
);
},
{
pos = (322,0);
ref = f;
}
);
width = 960;
},
{
anchors = (
{
name = caret_1;
pos = (360,0);
},
{
name = caret_2;
pos = (660,2);
},
{
name = top;
pos = (240,700);
}
);
layerId = m004;
shapes = (
{
closed = 1;
nodes = (
(796,412,l),
(890,500,l),
(182,500,l),
(182,412,l)
);
},
{
closed = 1;
nodes = (
(654,612,l),
(890,612,l),
(890,700,l),
(654,700,l)
);
},
{
pos = (712,0);
ref = idotless;
},
{
closed = 1;
nodes = (
(372,412,l),
(372,500,l),
(30,500,l),
(30,412,l)
);
},
{
closed = 1;
nodes = (
(226,0,l),
(226,544,ls),
(226,592,o),
(248,612,o),
(298,612,cs),
(372,612,l),
(372,700,l),
(268,700,ls),
(174,700,o),
(130,658,o),
(130,570,cs),
(130,0,l)
);
},
{
pos = (334,0);
ref = f;
}
);
width = 960;
},
{
anchors = (
{
name = caret_1;
pos = (360,0);
},
{
name = caret_2;
pos = (660,2);
},
{
name = top;
pos = (240,700);
}
);
layerId = m007;
shapes = (
{
closed = 1;
nodes = (
(834,460,l),
(874,500,l),
(174,500,l),
(174,460,l)
);
},
{
closed = 1;
nodes = (
(654,660,l),
(874,660,l),
(874,700,l),
(654,700,l)
);
},
{
pos = (724,0);
ref = idotless;
},
{
closed = 1;
nodes = (
(364,460,l),
(364,500,l),
(36,500,l),
(36,460,l)
);
},
{
closed = 1;
nodes = (
(194,0,l),
(194,572,ls),
(194,630,o),
(224,660,o),
(282,660,cs),
(364,660,l),
(364,700,l),
(280,700,ls),
(194,700,o),
(154,658,o),
(154,572,cs),
(154,0,l)
);
},
{
pos = (344,0);
ref = f;
}
);
width = 960;
}
);
metricLeft = tau;
metricRight = u;
},
{
glyphname = f_f_j;
kernLeft = t;
kernRight = "I-des";
lastChange = "2025-12-01 13:54:16 +0000";
layers = (
{
anchors = (
{
name = caret_1;
pos = (360,0);
},
{
name = caret_2;
pos = (660,2);
},
{
name = top;
pos = (240,700);
}
);
layerId = m003;
shapes = (
{
closed = 1;
nodes = (
(916,500,l),
(214,500,l),
(214,358,l),
(916,358,l)
);
},
{
closed = 1;
nodes = (
(672,566,l),
(920,566,l),
(920,700,l),
(672,700,l)
);
},
{
pos = (698,0);
ref = jdotless;
},
{
closed = 1;
nodes = (
(394,358,l),
(394,500,l),
(12,500,l),
(12,358,l)
);
},
{
closed = 1;
nodes = (
(280,0,l),
(280,538,ls),
(280,556,o),
(290,566,o),
(308,566,cs),
(380,566,l),
(380,700,l),
(230,700,ls),
(142,700,o),
(96,656,o),
(96,568,cs),
(96,0,l)
);
},
{
pos = (322,0);
ref = f;
}
);
width = 960;
},
{
anchors = (
{
name = caret_1;
pos = (360,0);
},
{
name = caret_2;
pos = (660,2);
},
{
name = top;
pos = (240,700);
}
);
layerId = m004;
shapes = (
{
closed = 1;
nodes = (
(888,500,l),
(178,500,l),
(178,412,l),
(880,412,l)
);
},
{
closed = 1;
nodes = (
(678,612,l),
(890,612,l),
(890,700,l),
(678,700,l)
);
},
{
pos = (712,0);
ref = jdotless;
},
{
closed = 1;
nodes = (
(372,412,l),
(372,500,l),
(30,500,l),
(30,412,l)
);
},
{
closed = 1;
nodes = (
(226,0,l),
(226,544,ls),
(226,592,o),
(248,612,o),
(298,612,cs),
(372,612,l),
(372,700,l),
(270,700,ls),
(176,700,o),
(130,648,o),
(130,560,cs),
(130,0,l)
);
},
{
pos = (334,0);
ref = f;
}
);
width = 960;
},
{
anchors = (
{
name = caret_1;
pos = (360,0);
},
{
name = caret_2;
pos = (660,2);
},
{
name = top;
pos = (240,700);
}
);
layerId = m007;
shapes = (
{
closed = 1;
nodes = (
(872,500,l),
(180,500,l),
(180,460,l),
(854,460,l)
);
},
{
closed = 1;
nodes = (
(684,660,l),
(874,660,l),
(874,700,l),
(684,700,l)
);
},
{
pos = (724,0);
ref = jdotless;
},
{
closed = 1;
nodes = (
(364,460,l),
(364,500,l),
(36,500,l),
(36,460,l)
);
},
{
closed = 1;
nodes = (
(194,0,l),
(194,572,ls),
(194,630,o),
(224,660,o),
(282,660,cs),
(364,660,l),
(364,700,l),
(282,700,ls),
(196,700,o),
(154,658,o),
(154,572,cs),
(154,0,l)
);
},
{
pos = (342,0);
ref = f;
}
);
width = 960;
}
);
metricLeft = tau;
metricRight = u;
},
{
glyphname = f_f_j.ss03;
kernLeft = t;
kernRight = "I-des";
lastChange = "2025-12-01 13:54:20 +0000";
layers = (
{
anchors = (
{
name = caret_1;
pos = (360,0);
},
{
name = caret_2;
pos = (660,2);
},
{
name = top;
pos = (240,700);
}
);
layerId = m003;
shapes = (
{
closed = 1;
nodes = (
(920,500,l),
(184,500,l),
(184,358,l),
(920,358,l)
);
},
{
closed = 1;
nodes = (
(678,566,l),
(920,566,l),
(920,700,l),
(678,700,l)
);
},
{
pos = (698,0);
ref = jdotless.ss03;
},
{
closed = 1;
nodes = (
(394,358,l),
(394,500,l),
(12,500,l),
(12,358,l)
);
},
{
closed = 1;
nodes = (
(280,0,l),
(280,538,ls),
(280,556,o),
(290,566,o),
(308,566,cs),
(380,566,l),
(380,700,l),
(230,700,ls),
(142,700,o),
(96,656,o),
(96,568,cs),
(96,0,l)
);
},
{
pos = (322,0);
ref = f;
}
);
width = 960;
},
{
anchors = (
{
name = caret_1;
pos = (360,0);
},
{
name = caret_2;
pos = (660,2);
},
{
name = top;
pos = (240,700);
}
);
layerId = m004;
shapes = (
{
closed = 1;
nodes = (
(890,500,l),
(170,500,l),
(170,412,l),
(880,412,l)
);
},
{
closed = 1;
nodes = (
(678,612,l),
(890,612,l),
(890,700,l),
(678,700,l)
);
},
{
pos = (712,0);
ref = jdotless.ss03;
},
{
closed = 1;
nodes = (
(372,412,l),
(372,500,l),
(30,500,l),
(30,412,l)
);
},
{
closed = 1;
nodes = (
(226,0,l),
(226,544,ls),
(226,592,o),
(248,612,o),
(298,612,cs),
(372,612,l),
(372,700,l),
(268,700,ls),
(174,700,o),
(130,658,o),
(130,570,cs),
(130,0,l)
);
},
{
pos = (332,0);
ref = f;
}
);
width = 960;
},
{
anchors = (
{
name = caret_1;
pos = (360,0);
},
{
name = caret_2;
pos = (660,2);
},
{
name = top;
pos = (240,700);
}
);
layerId = m007;
shapes = (
{
closed = 1;
nodes = (
(874,500,l),
(170,500,l),
(170,460,l),
(856,460,l)
);
},
{
closed = 1;
nodes = (
(668,660,l),
(874,660,l),
(874,700,l),
(668,700,l)
);
},
{
pos = (724,0);
ref = jdotless.ss03;
},
{
closed = 1;
nodes = (
(364,460,l),
(364,500,l),
(36,500,l),
(36,460,l)
);
},
{
closed = 1;
nodes = (
(194,0,l),
(194,572,ls),
(194,630,o),
(224,660,o),
(282,660,cs),
(364,660,l),
(364,700,l),
(282,700,ls),
(196,700,o),
(154,658,o),
(154,572,cs),
(154,0,l)
);
},
{
pos = (338,0);
ref = f;
}
);
width = 960;
}
);
metricLeft = tau;
metricRight = u;
},
{
glyphname = f_f_l;
kernLeft = t;
kernRight = I;
lastChange = "2025-12-01 13:54:07 +0000";
layers = (
{
anchors = (
{
name = caret_1;
pos = (360,0);
},
{
name = caret_2;
pos = (660,2);
},
{
name = top;
pos = (240,700);
}
);
layerId = m003;
shapes = (
{
closed = 1;
nodes = (
(214,500,l),
(214,358,l),
(492,358,l),
(492,500,l)
);
},
{
closed = 1;
nodes = (
(662,700,l),
(662,566,l),
(742,566,l),
(920,700,l)
);
},
{
pos = (698,0);
ref = l;
},
{
pos = (320,0);
ref = f;
},
{
closed = 1;
nodes = (
(394,358,l),
(394,500,l),
(12,500,l),
(12,358,l)
);
},
{
closed = 1;
nodes = (
(280,0,l),
(280,536,ls),
(280,554,o),
(290,566,o),
(308,566,cs),
(380,566,l),
(380,700,l),
(230,700,ls),
(142,700,o),
(96,656,o),
(96,568,cs),
(96,0,l)
);
}
);
width = 960;
},
{
anchors = (
{
name = caret_1;
pos = (360,0);
},
{
name = caret_2;
pos = (660,2);
},
{
name = top;
pos = (240,700);
}
);
layerId = m004;
shapes = (
{
closed = 1;
nodes = (
(200,500,l),
(200,412,l),
(480,412,l),
(480,500,l)
);
},
{
closed = 1;
nodes = (
(650,700,l),
(650,612,l),
(796,612,l),
(890,700,l)
);
},
{
pos = (712,0);
ref = l;
},
{
pos = (330,0);
ref = f;
},
{
closed = 1;
nodes = (
(372,412,l),
(372,500,l),
(30,500,l),
(30,412,l)
);
},
{
closed = 1;
nodes = (
(226,0,l),
(226,544,ls),
(226,592,o),
(248,612,o),
(298,612,cs),
(372,612,l),
(372,700,l),
(268,700,ls),
(174,700,o),
(130,658,o),
(130,570,cs),
(130,0,l)
);
}
);
width = 960;
},
{
anchors = (
{
name = caret_1;
pos = (360,0);
},
{
name = caret_2;
pos = (660,2);
},
{
name = top;
pos = (240,700);
}
);
layerId = m007;
shapes = (
{
closed = 1;
nodes = (
(180,500,l),
(180,460,l),
(476,460,l),
(476,500,l)
);
},
{
closed = 1;
nodes = (
(632,700,l),
(632,660,l),
(836,660,l),
(874,700,l)
);
},
{
pos = (724,0);
ref = l;
},
{
pos = (340,0);
ref = f;
},
{
closed = 1;
nodes = (
(364,460,l),
(364,500,l),
(36,500,l),
(36,460,l)
);
},
{
closed = 1;
nodes = (
(194,0,l),
(194,572,ls),
(194,630,o),
(224,660,o),
(282,660,cs),
(364,660,l),
(364,700,l),
(280,700,ls),
(194,700,o),
(154,658,o),
(154,572,cs),
(154,0,l)
);
}
);
width = 960;
}
);
metricLeft = tau;
metricRight = u;
},
{
glyphname = f_f_l.ss02;
kernLeft = t;
kernRight = "l-tail";
lastChange = "2025-12-01 13:54:12 +0000";
layers = (
{
anchors = (
{
name = caret_1;
pos = (368,0);
},
{
name = caret_2;
pos = (668,2);
},
{
name = top;
pos = (240,700);
}
);
layerId = m003;
shapes = (
{
closed = 1;
nodes = (
(220,500,l),
(220,358,l),
(498,358,l),
(498,500,l)
);
},
{
closed = 1;
nodes = (
(680,700,l),
(680,566,l),
(746,566,l),
(922,700,l)
);
},
{
pos = (700,0);
ref = l.ss02;
},
{
closed = 1;
nodes = (
(394,358,l),
(394,500,l),
(12,500,l),
(12,358,l)
);
},
{
closed = 1;
nodes = (
(280,0,l),
(280,538,ls),
(280,556,o),
(290,566,o),
(308,566,cs),
(380,566,l),
(380,700,l),
(230,700,ls),
(142,700,o),
(96,656,o),
(96,568,cs),
(96,0,l)
);
},
{
pos = (324,0);
ref = f;
}
);
width = 1000;
},
{
anchors = (
{
name = caret_1;
pos = (360,0);
},
{
name = caret_2;
pos = (660,2);
},
{
name = top;
pos = (240,700);
}
);
layerId = m004;
shapes = (
{
closed = 1;
nodes = (
(200,500,l),
(200,412,l),
(492,412,l),
(492,500,l)
);
},
{
closed = 1;
nodes = (
(684,700,l),
(684,612,l),
(778,612,l),
(868,700,l)
);
},
{
pos = (700,0);
ref = l.ss02;
},
{
closed = 1;
nodes = (
(372,412,l),
(372,500,l),
(30,500,l),
(30,412,l)
);
},
{
closed = 1;
nodes = (
(226,0,l),
(226,544,ls),
(226,592,o),
(248,612,o),
(298,612,cs),
(372,612,l),
(372,700,l),
(270,700,ls),
(176,700,o),
(130,648,o),
(130,560,cs),
(130,0,l)
);
},
{
pos = (328,0);
ref = f;
}
);
width = 1000;
},
{
anchors = (
{
name = caret_1;
pos = (360,0);
},
{
name = caret_2;
pos = (660,2);
},
{
name = top;
pos = (240,700);
}
);
layerId = m007;
shapes = (
{
closed = 1;
nodes = (
(178,500,l),
(178,460,l),
(500,460,l),
(500,500,l)
);
},
{
closed = 1;
nodes = (
(678,700,l),
(678,660,l),
(796,660,l),
(832,700,l)
);
},
{
pos = (700,0);
ref = l.ss02;
},
{
closed = 1;
nodes = (
(364,460,l),
(364,500,l),
(36,500,l),
(36,460,l)
);
},
{
closed = 1;
nodes = (
(192,0,l),
(192,572,ls),
(192,630,o),
(222,660,o),
(280,660,cs),
(364,660,l),
(364,700,l),
(280,700,ls),
(194,700,o),
(152,658,o),
(152,572,cs),
(152,0,l)
);
},
{
pos = (330,0);
ref = f;
}
);
width = 1000;
}
);
metricLeft = tau;
metricRight = tau;
},
{
glyphname = f_j;
kernLeft = t;
kernRight = "I-des";
lastChange = "2025-12-01 13:53:53 +0000";
layers = (
{
anchors = (
{
name = caret_1;
pos = (328,0);
}
);
layerId = m003;
shapes = (
{
closed = 1;
nodes = (
(600,500,l),
(184,500,l),
(184,358,l),
(446,358,l)
);
},
{
pos = (378,0);
ref = jdotless;
},
{
closed = 1;
nodes = (
(340,566,l),
(600,566,l),
(600,700,l),
(340,700,l)
);
},
{
ref = f;
}
);
width = 640;
},
{
anchors = (
{
name = caret_1;
pos = (320,0);
}
);
layerId = m004;
shapes = (
{
closed = 1;
nodes = (
(568,500,l),
(170,500,l),
(170,412,l),
(480,412,l)
);
},
{
pos = (392,0);
ref = jdotless;
},
{
closed = 1;
nodes = (
(312,612,l),
(570,612,l),
(570,700,l),
(312,700,l)
);
},
{
ref = f;
}
);
width = 640;
},
{
anchors = (
{
name = caret_1;
pos = (320,0);
}
);
layerId = m007;
shapes = (
{
closed = 1;
nodes = (
(554,500,l),
(170,500,l),
(170,460,l),
(518,460,l)
);
},
{
pos = (404,0);
ref = jdotless;
},
{
closed = 1;
nodes = (
(292,660,l),
(554,660,l),
(554,700,l),
(292,700,l)
);
},
{
ref = f;
}
);
width = 640;
}
);
metricLeft = tau;
metricRight = u;
},
{
glyphname = f_j.ss03;
kernLeft = t;
kernRight = "I-des";
lastChange = "2025-12-01 13:53:58 +0000";
layers = (
{
anchors = (
{
name = caret_1;
pos = (360,0);
}
);
layerId = m003;
shapes = (
{
closed = 1;
nodes = (
(600,500,l),
(208,500,l),
(208,358,l),
(446,358,l)
);
},
{
pos = (378,0);
ref = jdotless.ss03;
},
{
closed = 1;
nodes = (
(344,566,l),
(600,566,l),
(600,700,l),
(344,700,l)
);
},
{
ref = f;
}
);
width = 640;
},
{
anchors = (
{
name = caret_1;
pos = (378,0);
}
);
layerId = m004;
shapes = (
{
closed = 1;
nodes = (
(570,500,l),
(176,500,l),
(176,412,l),
(480,412,l)
);
},
{
pos = (392,0);
ref = jdotless.ss03;
},
{
closed = 1;
nodes = (
(332,612,l),
(570,612,l),
(570,700,l),
(332,700,l)
);
},
{
ref = f;
}
);
width = 640;
},
{
anchors = (
{
name = caret_1;
pos = (394,0);
}
);
layerId = m007;
shapes = (
{
closed = 1;
nodes = (
(554,500,l),
(172,500,l),
(172,460,l),
(516,460,l)
);
},
{
pos = (404,0);
ref = jdotless.ss03;
},
{
closed = 1;
nodes = (
(342,660,l),
(554,660,l),
(554,700,l),
(342,700,l)
);
},
{
ref = f;
}
);
width = 640;
}
);
metricLeft = tau;
metricRight = u;
},
{
glyphname = f_t;
kernLeft = t;
kernRight = t;
lastChange = "2025-12-01 13:53:31 +0000";
layers = (
{
anchors = (
{
name = bottom;
pos = (590,0);
},
{
name = caret_1;
pos = (380,0);
}
);
layerId = m003;
shapes = (
{
closed = 1;
nodes = (
(512,358,l),
(512,500,l),
(220,500,l),
(220,358,l)
);
},
{
ref = f;
},
{
pos = (300,0);
ref = tau.ss02;
},
{
closed = 1;
nodes = (
(334,566,l),
(714,566,l),
(714,700,l),
(334,700,l)
);
}
);
width = 740;
},
{
anchors = (
{
name = bottom;
pos = (611,0);
},
{
name = caret_1;
pos = (380,0);
}
);
layerId = m004;
shapes = (
{
closed = 1;
nodes = (
(512,412,l),
(512,500,l),
(200,500,l),
(200,412,l)
);
},
{
ref = f;
},
{
pos = (300,0);
ref = tau.ss02;
},
{
closed = 1;
nodes = (
(318,612,l),
(692,612,l),
(692,700,l),
(318,700,l)
);
}
);
width = 740;
},
{
anchors = (
{
name = bottom;
pos = (633,0);
},
{
name = caret_1;
pos = (380,0);
}
);
layerId = m007;
shapes = (
{
closed = 1;
nodes = (
(500,460,l),
(500,500,l),
(178,500,l),
(178,460,l)
);
},
{
ref = f;
},
{
pos = (300,0);
ref = tau.ss02;
},
{
closed = 1;
nodes = (
(322,660,l),
(684,660,l),
(684,700,l),
(322,700,l)
);
}
);
width = 740;
}
);
metricLeft = tau;
metricRight = t;
},
{
glyphname = f_t.ss03;
kernLeft = t;
kernRight = f;
lastChange = "2025-12-01 13:53:36 +0000";
layers = (
{
anchors = (
{
name = caret_1;
pos = (367,0);
}
);
layerId = m003;
shapes = (
{
closed = 1;
nodes = (
(606,0,l),
(606,358,l),
(708,358,l),
(708,500,l),
(172,500,l),
(172,358,l),
(422,358,l),
(422,0,l)
);
},
{
ref = f;
},
{
closed = 1;
nodes = (
(334,566,l),
(708,566,l),
(708,700,l),
(334,700,l)
);
}
);
width = 720;
},
{
anchors = (
{
name = caret_1;
pos = (360,0);
}
);
layerId = m004;
shapes = (
{
closed = 1;
nodes = (
(572,0,l),
(572,412,l),
(690,412,l),
(690,500,l),
(174,500,l),
(174,412,l),
(476,412,l),
(476,0,l)
);
},
{
ref = f;
},
{
closed = 1;
nodes = (
(318,612,l),
(690,612,l),
(690,700,l),
(318,700,l)
);
}
);
width = 720;
},
{
anchors = (
{
name = caret_1;
pos = (360,0);
}
);
layerId = m007;
shapes = (
{
closed = 1;
nodes = (
(548,0,l),
(548,460,l),
(684,460,l),
(684,500,l),
(170,500,l),
(170,460,l),
(508,460,l),
(508,0,l)
);
},
{
ref = f;
},
{
closed = 1;
nodes = (
(322,660,l),
(684,660,l),
(684,700,l),
(322,700,l)
);
}
);
width = 720;
}
);
metricLeft = tau;
metricRight = tau;
},
{
glyphname = fi;
kernLeft = t;
kernRight = I;
lastChange = "2025-12-01 13:53:39 +0000";
layers = (
{
anchors = (
{
name = caret_1;
pos = (400,0);
}
);
layerId = m003;
shapes = (
{
closed = 1;
nodes = (
(418,358,l),
(600,500,l),
(198,500,l),
(198,358,l)
);
},
{
closed = 1;
nodes = (
(334,566,l),
(600,566,l),
(600,700,l),
(334,700,l)
);
},
{
pos = (378,0);
ref = idotless;
},
{
ref = f;
}
);
width = 640;
},
{
anchors = (
{
name = caret_1;
pos = (400,0);
}
);
layerId = m004;
shapes = (
{
closed = 1;
nodes = (
(474,412,l),
(570,500,l),
(170,500,l),
(170,412,l)
);
},
{
closed = 1;
nodes = (
(318,612,l),
(568,612,l),
(568,700,l),
(318,700,l)
);
},
{
pos = (392,0);
ref = idotless;
},
{
ref = f;
}
);
width = 640;
},
{
anchors = (
{
name = caret_1;
pos = (400,0);
}
);
layerId = m007;
shapes = (
{
closed = 1;
nodes = (
(514,460,l),
(554,500,l),
(170,500,l),
(170,460,l)
);
},
{
closed = 1;
nodes = (
(324,660,l),
(554,660,l),
(554,700,l),
(324,700,l)
);
},
{
pos = (404,0);
ref = idotless;
},
{
ref = f;
}
);
width = 640;
}
);
metricLeft = tau;
metricRight = u;
},
{
glyphname = fl;
kernLeft = t;
kernRight = I;
lastChange = "2025-12-01 13:53:45 +0000";
layers = (
{
anchors = (
{
name = caret_1;
pos = (410,0);
}
);
layerId = m003;
shapes = (
{
closed = 1;
nodes = (
(338,700,l),
(338,566,l),
(422,566,l),
(600,700,l)
);
},
{
pos = (378,0);
ref = l;
},
{
ref = f;
}
);
width = 640;
},
{
anchors = (
{
name = caret_1;
pos = (410,0);
}
);
layerId = m004;
shapes = (
{
closed = 1;
nodes = (
(352,700,l),
(352,612,l),
(474,612,l),
(570,700,l)
);
},
{
pos = (392,0);
ref = l;
},
{
ref = f;
}
);
width = 640;
},
{
anchors = (
{
name = caret_1;
pos = (410,0);
}
);
layerId = m007;
shapes = (
{
closed = 1;
nodes = (
(362,700,l),
(362,660,l),
(514,660,l),
(554,700,l)
);
},
{
pos = (404,0);
ref = l;
},
{
ref = f;
}
);
width = 640;
}
);
metricLeft = tau;
metricRight = u;
},
{
glyphname = fl.ss02;
kernLeft = t;
kernRight = "l-tail";
lastChange = "2025-11-28 20:24:25 +0000";
layers = (
{
anchors = (
{
name = caret_1;
pos = (410,0);
}
);
layerId = m003;
shapes = (
{
closed = 1;
nodes = (
(348,700,l),
(348,566,l),
(424,566,l),
(602,700,l)
);
},
{
pos = (380,0);
ref = l.ss02;
},
{
ref = f;
}
);
width = 680;
},
{
anchors = (
{
name = caret_1;
pos = (410,0);
}
);
layerId = m004;
shapes = (
{
closed = 1;
nodes = (
(338,700,l),
(338,612,l),
(456,612,l),
(550,700,l)
);
},
{
pos = (380,0);
ref = l.ss02;
},
{
ref = f;
}
);
width = 680;
},
{
anchors = (
{
name = caret_1;
pos = (410,0);
}
);
layerId = m007;
shapes = (
{
closed = 1;
nodes = (
(342,700,l),
(342,660,l),
(474,660,l),
(512,700,l)
);
},
{
pos = (380,0);
ref = l.ss02;
},
{
ref = f;
}
);
width = 680;
}
);
metricLeft = tau;
metricRight = tau;
},
{
glyphname = rhookturnedmod;
kernLeft = superior;
kernRight = superior;
lastChange = "2025-12-01 17:58:34 +0000";
layers = (
{
guides = (
{
pos = (0,400);
},
{
pos = (0,800);
},
{
pos = (0,700);
},
{
pos = (0,300);
}
);
layerId = m003;
shapes = (
{
alignment = -1;
angle = 180;
pos = (280,700);
ref = r.small;
},
{
closed = 1;
nodes = (
(102,328,o),
(142,300,o),
(214,300,cs),
(312,300,l),
(312,396,l),
(286,396,ls),
(264,396,o),
(256,404,o),
(256,426,cs),
(256,700,l),
(102,700,l),
(102,400,l)
);
}
);
width = 320;
},
{
guides = (
{
pos = (0,400);
},
{
pos = (0,800);
},
{
pos = (0,700);
},
{
pos = (0,300);
}
);
layerId = m004;
shapes = (
{
alignment = -1;
angle = 180;
pos = (280,700);
ref = r.small;
},
{
closed = 1;
nodes = (
(152,330,o),
(190,300,o),
(262,300,cs),
(304,300,l),
(304,372,l),
(272,372,ls),
(246,372,o),
(232,386,o),
(232,412,cs),
(232,700,l),
(152,700,l),
(152,400,l)
);
}
);
width = 320;
},
{
guides = (
{
pos = (0,400);
},
{
pos = (0,800);
},
{
pos = (0,700);
},
{
pos = (0,300);
}
);
layerId = m007;
shapes = (
{
alignment = -1;
angle = 180;
pos = (280,700);
ref = r.small;
},
{
closed = 1;
nodes = (
(176,326,o),
(202,300,o),
(256,300,cs),
(300,300,l),
(300,340,l),
(256,340,ls),
(230,340,o),
(216,354,o),
(216,380,cs),
(216,700,l),
(176,700,l),
(176,380,l)
);
}
);
width = 320;
}
);
unicode = 693;
},
{
color = 9;
glyphname = "Be-cy";
kernLeft = I;
kernRight = S;
lastChange = "2025-12-03 11:26:54 +0000";
layers = (
{
layerId = m003;
shapes = (
{
closed = 1;
nodes = (
(380,0,ls),
(543,0,o),
(636,80,o),
(636,220,cs),
(636,224,ls),
(636,358,o),
(556,444,o),
(380,444,cs),
(246,444,l),
(246,548,l),
(598,548,l),
(598,700,l),
(52,700,l),
(52,0,l)
);
},
{
closed = 1;
nodes = (
(246,300,l),
(344,300,ls),
(410,300,o),
(442,278,o),
(442,224,cs),
(442,220,ls),
(442,164,o),
(407,146,o),
(344,146,cs),
(246,146,l)
);
}
);
width = 660;
},
{
layerId = m004;
shapes = (
{
closed = 1;
nodes = (
(372,0,ls),
(521,0,o),
(612,78,o),
(612,214,cs),
(612,218,ls),
(612,346,o),
(534,432,o),
(372,432,cs),
(184,432,l),
(184,612,l),
(586,612,l),
(586,700,l),
(84,700,l),
(84,0,l)
);
},
{
closed = 1;
nodes = (
(184,344,l),
(354,344,ls),
(454,344,o),
(512,310,o),
(512,218,cs),
(512,214,ls),
(512,118,o),
(449,88,o),
(354,88,cs),
(184,88,l)
);
}
);
width = 660;
},
{
layerId = m007;
shapes = (
{
closed = 1;
nodes = (
(360,0,ls),
(507,0,o),
(598,70,o),
(598,208,cs),
(598,212,ls),
(598,356,o),
(498,420,o),
(360,420,cs),
(140,420,l),
(140,660,l),
(582,660,l),
(582,700,l),
(100,700,l),
(100,0,l)
);
},
{
closed = 1;
nodes = (
(140,380,l),
(354,380,ls),
(490,380,o),
(558,324,o),
(558,212,cs),
(558,208,ls),
(558,88,o),
(479,40,o),
(354,40,cs),
(140,40,l)
);
}
);
width = 660;
}
);
metricLeft = N;
metricRight = R;
unicode = 1041;
},
{
color = 8;
glyphname = "Geupturn-cy";
kernLeft = I;
kernRight = T;
lastChange = "2025-11-28 20:25:07 +0000";
layers = (
{
layerId = m003;
shapes = (
{
closed = 1;
nodes = (
(248,0,l),
(248,540,l),
(408,540,ls),
(501.333,540,o),
(548,586.667,o),
(548,680,cs),
(548,800,l),
(388,800,l),
(388,740,ls),
(388,713.333,o),
(374.667,700,o),
(348,700,cs),
(52,700,l),
(52,0,l)
);
}
);
width = 560;
},
{
layerId = m004;
shapes = (
{
closed = 1;
nodes = (
(184,0,l),
(184,612,l),
(412,612,ls),
(492,612,o),
(530,650,o),
(530,730,cs),
(530,800,l),
(442,800,l),
(442,754,ls),
(442,716.667,o),
(425.333,700,o),
(388,700,cs),
(84,700,l),
(84,0,l)
);
}
);
width = 560;
},
{
layerId = m007;
shapes = (
{
closed = 1;
nodes = (
(140,0,l),
(140,660,l),
(418,660,ls),
(484.667,660,o),
(524,699.333,o),
(524,766,cs),
(524,800,l),
(484,800,l),
(484,766,ls),
(484,720.667,o),
(463.333,700,o),
(418,700,cs),
(100,700,l),
(100,0,l)
);
}
);
width = 560;
}
);
metricLeft = N;
metricRight = T;
unicode = 1168;
},
{
glyphname = "Geupturn-cy.ss05";
kernLeft = I;
kernRight = T;
lastChange = "2025-11-28 20:25:10 +0000";
layers = (
{
layerId = m003;
shapes = (
{
closed = 1;
nodes = (
(248,0,l),
(248,500,ls),
(248,526.667,o),
(261.333,540,o),
(288,540,cs),
(408,540,ls),
(501.333,540,o),
(548,586.667,o),
(548,680,cs),
(548,800,l),
(388,800,l),
(388,740,ls),
(388,713.333,o),
(374.667,700,o),
(348,700,cs),
(192,700,ls),
(98.667,700,o),
(52,653.333,o),
(52,560,cs),
(52,0,l)
);
}
);
width = 560;
},
{
layerId = m004;
shapes = (
{
closed = 1;
nodes = (
(184,0,l),
(184,534,ls),
(184,587.333,o),
(208.667,612,o),
(262,612,cs),
(412,612,ls),
(492,612,o),
(530,650,o),
(530,730,cs),
(530,800,l),
(442,800,l),
(442,754,ls),
(442,716.667,o),
(425.333,700,o),
(388,700,cs),
(228,700,ls),
(132,700,o),
(84,652,o),
(84,556,cs),
(84,0,l)
);
}
);
width = 560;
},
{
layerId = m007;
shapes = (
{
closed = 1;
nodes = (
(140,0,l),
(140,544,ls),
(140,624,o),
(176,660,o),
(256,660,cs),
(418,660,ls),
(484.667,660,o),
(524,699.333,o),
(524,766,cs),
(524,800,l),
(484,800,l),
(484,766,ls),
(484,723.333,o),
(460.667,700,o),
(418,700,cs),
(256,700,ls),
(152,700,o),
(100,648,o),
(100,544,cs),
(102,0,l)
);
}
);
width = 560;
}
);
metricLeft = N;
metricRight = T;
},
